SplineFontDB: 3.0
FontName: TitilliumWeb-LightItalic
FullName: Titillium WebLight Italic
FamilyName: Titillium Web
Weight: Light
Copyright: Copyright (c) 2009-2011 by Accademia di Belle Arti di Urbino and students of MA course of Visual design. Some rights reserved.
Version: 1.001;PS 57.000;hotconv 1.0.70;makeotf.lib2.5.55311
ItalicAngle: -13
UnderlinePosition: -70
UnderlineWidth: 30
Ascent: 800
Descent: 200
sfntRevision: 0x00010000
LayerCount: 2
Layer: 0 1 "Back"  1
Layer: 1 1 "Fore"  0
XUID: [1021 998 175201825 11738317]
FSType: 8
OS2Version: 3
OS2_WeightWidthSlopeOnly: 0
OS2_UseTypoMetrics: 1
CreationTime: 1349090880
ModificationTime: 1349108893
PfmFamily: 81
TTFWeight: 300
TTFWidth: 5
LineGap: 0
VLineGap: 0
Panose: 0 0 4 0 0 0 0 0 0 0
OS2TypoAscent: 1133
OS2TypoAOffset: 0
OS2TypoDescent: -388
OS2TypoDOffset: 0
OS2TypoLinegap: 0
OS2WinAscent: 1133
OS2WinAOffset: 0
OS2WinDescent: 388
OS2WinDOffset: 0
HheadAscent: 1133
HheadAOffset: 0
HheadDescent: -388
HheadDOffset: 0
OS2SubXSize: 650
OS2SubYSize: 600
OS2SubXOff: -17
OS2SubYOff: 75
OS2SupXSize: 650
OS2SupYSize: 600
OS2SupXOff: 81
OS2SupYOff: 350
OS2StrikeYSize: 30
OS2StrikeYPos: 299
OS2Vendor: 'UKWN'
OS2CodePages: 20000093.00000000
OS2UnicodeRanges: 00000007.00000001.00000000.00000000
Lookup: 1 0 0 "'locl' Localized Forms in Latin lookup 0"  {"'locl' Localized Forms in Latin lookup 0 subtable"  } ['locl' ('DFLT' <'dflt' > 'latn' <'dflt' > ) ]
Lookup: 1 0 0 "'frac' Diagonal Fractions in Latin lookup 1"  {"'frac' Diagonal Fractions in Latin lookup 1 subtable"  } ['frac' ('DFLT' <'dflt' > 'latn' <'dflt' > ) ]
Lookup: 6 0 0 "'frac' Diagonal Fractions in Latin lookup 2"  {"'frac' Diagonal Fractions in Latin lookup 2 subtable"  } ['frac' ('DFLT' <'dflt' > 'latn' <'dflt' > ) ]
Lookup: 1 0 0 "'frac' Diagonal Fractions in Latin lookup 3"  {"'frac' Diagonal Fractions in Latin lookup 3 subtable"  } ['frac' ('DFLT' <'dflt' > 'latn' <'dflt' > ) ]

StartChar: exclam
Encoding: 33 33 4
Width: 196
GlyphClass: 2
Flags: W
LayerCount: 2
Fore
SplineSet
120 223 m 1,0,-1
 229 700 l 1,1,-1
 289 700 l 1,2,-1
 173 223 l 1,3,-1
 120 223 l 1,0,-1
70 0 m 1,4,-1
 93 100 l 1,5,-1
 154 100 l 1,6,-1
 131 0 l 1,7,-1
 70 0 l 1,4,-1
EndSplineSet
EndChar

StartChar: quotedbl
Encoding: 34 34 5
Width: 314
GlyphClass: 2
Flags: W
LayerCount: 2
Fore
SplineSet
323 474 m 1,0,-1
 269 474 l 1,1,-1
 320 695 l 1,2,-1
 377 695 l 1,3,-1
 323 474 l 1,0,-1
261 474 m 1,4,-1
 207 474 l 1,5,-1
 258 695 l 1,6,-1
 315 695 l 1,7,-1
 261 474 l 1,4,-1
EndSplineSet
EndChar

StartChar: numbersign
Encoding: 35 35 6
Width: 560
GlyphClass: 2
Flags: W
LayerCount: 2
Fore
SplineSet
573 184 m 1,0,-1
 459 184 l 1,1,-1
 414 0 l 1,2,-1
 358 0 l 1,3,-1
 403 184 l 1,4,-1
 236 184 l 1,5,-1
 191 0 l 1,6,-1
 135 0 l 1,7,-1
 180 184 l 1,8,-1
 66 184 l 1,9,-1
 79 236 l 1,10,-1
 193 236 l 1,11,-1
 241 432 l 1,12,-1
 127 432 l 1,13,-1
 140 484 l 1,14,-1
 254 484 l 1,15,-1
 301 667 l 1,16,-1
 357 667 l 1,17,-1
 310 484 l 1,18,-1
 477 484 l 1,19,-1
 524 667 l 1,20,-1
 580 667 l 1,21,-1
 533 484 l 1,22,-1
 647 484 l 1,23,-1
 634 432 l 1,24,-1
 520 432 l 1,25,-1
 472 236 l 1,26,-1
 586 236 l 1,27,-1
 573 184 l 1,0,-1
416 236 m 1,28,-1
 464 432 l 1,29,-1
 297 432 l 1,30,-1
 249 236 l 1,31,-1
 416 236 l 1,28,-1
EndSplineSet
EndChar

StartChar: dollar
Encoding: 36 36 7
Width: 560
GlyphClass: 2
Flags: W
LayerCount: 2
Fore
SplineSet
433 672 m 1,0,-1
 462 671 l 1,1,-1
 505 785 l 1,2,-1
 552 785 l 1,3,-1
 507 666 l 1,4,5
 546 661 546 661 592 650 c 2,6,-1
 605 647 l 1,7,-1
 594 602 l 1,8,9
 541 611 541 611 487 616 c 1,10,-1
 391 363 l 1,11,12
 462 338 462 338 491 309 c 128,-1,13
 520 280 520 280 520 219 c 0,14,15
 520 113 520 113 457 51.5 c 128,-1,16
 394 -10 394 -10 286 -10 c 0,17,18
 274 -10 274 -10 248 -8 c 1,19,-1
 206 -120 l 1,20,-1
 162 -120 l 1,21,-1
 205 -5 l 1,22,-1
 96 12 l 1,23,-1
 107 60 l 1,24,25
 166 51 166 51 225 46 c 1,26,-1
 330 323 l 1,27,28
 260 347 260 347 229.5 376 c 128,-1,29
 199 405 199 405 199 463 c 0,30,31
 199 562 199 562 262.5 617 c 128,-1,32
 326 672 326 672 433 672 c 1,0,-1
460 215 m 0,33,34
 460 254 460 254 441.5 272.5 c 128,-1,35
 423 291 423 291 370 310 c 1,36,-1
 268 43 l 1,37,-1
 290 43 l 2,38,39
 370 43 370 43 415 89 c 128,-1,40
 460 135 460 135 460 215 c 0,33,34
259 467 m 0,41,42
 259 431 259 431 279 412.5 c 128,-1,43
 299 394 299 394 350 376 c 1,44,-1
 442 619 l 1,45,-1
 429 619 l 2,46,47
 350 619 350 619 304.5 580.5 c 128,-1,48
 259 542 259 542 259 467 c 0,41,42
EndSplineSet
EndChar

StartChar: percent
Encoding: 37 37 8
Width: 560
GlyphClass: 2
Flags: W
LayerCount: 2
Fore
SplineSet
297 658 m 0,0,1
 240 658 240 658 220 575 c 1,2,3
 210 538 210 538 210 518 c 0,4,5
 210 469 210 469 250 469 c 0,6,7
 281 469 281 469 299.5 492.5 c 128,-1,8
 318 516 318 516 328 555.5 c 128,-1,9
 338 595 338 595 338 615 c 0,10,11
 338 658 338 658 297 658 c 0,0,1
166 6 m 1,12,-1
 510 706 l 1,13,-1
 554 694 l 1,14,-1
 210 -5 l 1,15,-1
 166 6 l 1,12,-1
167 566 m 0,16,17
 201 702 201 702 308 702 c 0,18,19
 389 702 389 702 389 623 c 0,20,21
 389 598 389 598 381 565 c 0,22,23
 363 495 363 495 326 460 c 128,-1,24
 289 425 289 425 239 425 c 128,-1,25
 189 425 189 425 170 460 c 0,26,27
 159 479 159 479 159 506 c 128,-1,28
 159 533 159 533 167 566 c 0,16,17
415 0 m 0,30,31
 334 0 334 0 334 83 c 0,32,33
 334 108 334 108 342 141 c 0,34,35
 376 277 376 277 483 277 c 0,36,37
 565 277 565 277 565 198 c 0,38,39
 565 173 565 173 557 140 c 0,40,41
 540 70 540 70 502.5 35 c 128,-1,29
 465 0 465 0 415 0 c 0,30,31
513 188 m 0,42,43
 513 233 513 233 472 233 c 0,44,45
 442 233 442 233 423.5 210.5 c 128,-1,46
 405 188 405 188 395.5 150 c 128,-1,47
 386 112 386 112 386 92 c 0,48,49
 386 44 386 44 425 44 c 0,50,51
 482 44 482 44 506 140 c 0,52,53
 513 168 513 168 513 188 c 0,42,43
EndSplineSet
EndChar

StartChar: ampersand
Encoding: 38 38 9
Width: 633
GlyphClass: 2
Flags: W
LayerCount: 2
Fore
SplineSet
446 705 m 0,0,1
 580 705 580 705 580 589 c 0,2,3
 580 511 580 511 530 457 c 128,-1,4
 480 403 480 403 379 365 c 1,5,-1
 498 200 l 1,6,7
 536 262 536 262 560 338 c 1,8,-1
 619 338 l 1,9,10
 590 240 590 240 533 157 c 1,11,-1
 631 32 l 1,12,-1
 589 -6 l 1,13,-1
 496 113 l 1,14,15
 399 -10 399 -10 262 -10 c 0,16,17
 166 -10 166 -10 122 28.5 c 128,-1,18
 78 67 78 67 78 157.5 c 128,-1,19
 78 248 78 248 126.5 308 c 128,-1,20
 175 368 175 368 286 410 c 1,21,22
 260 464 260 464 260 507 c 0,23,24
 260 599 260 599 309.5 652 c 128,-1,25
 359 705 359 705 446 705 c 0,0,1
269 44 m 0,26,27
 386 44 386 44 463 155 c 1,28,-1
 311 368 l 1,29,30
 217 334 217 334 179 283 c 128,-1,31
 141 232 141 232 141 151 c 0,32,33
 141 44 141 44 269 44 c 0,26,27
353 612 m 128,-1,35
 322 571 322 571 322 511 c 128,-1,36
 322 451 322 451 354 404 c 1,37,38
 442 439 442 439 480 481.5 c 128,-1,39
 518 524 518 524 518 586 c 0,40,41
 518 653 518 653 443 653 c 0,42,34
 384 653 384 653 353 612 c 128,-1,35
EndSplineSet
EndChar

StartChar: quotesingle
Encoding: 39 39 10
Width: 168
GlyphClass: 2
Flags: W
LayerCount: 2
Fore
SplineSet
219 474 m 1,0,-1
 165 474 l 1,1,-1
 216 695 l 1,2,-1
 273 695 l 1,3,-1
 219 474 l 1,0,-1
EndSplineSet
EndChar

StartChar: parenleft
Encoding: 40 40 11
Width: 226
GlyphClass: 2
Flags: W
LayerCount: 2
Fore
SplineSet
174 293 m 0,0,1
 150 194 150 194 150 120 c 0,2,3
 150 -18 150 -18 160 -98 c 1,4,-1
 164 -124 l 1,5,-1
 108 -124 l 1,6,7
 88 -40 88 -40 88 80 c 128,-1,8
 88 200 88 200 111 299.5 c 128,-1,9
 134 399 134 399 167 476 c 0,10,11
 236 636 236 636 289 714 c 2,12,-1
 312 748 l 1,13,-1
 370 748 l 1,14,15
 232 534 232 534 174 293 c 0,0,1
EndSplineSet
Substitution2: "'case' Case-Sensitive Forms in Latin lookup 4 subtable" parenleft.cap
EndChar

StartChar: parenright
Encoding: 41 41 12
Width: 225
GlyphClass: 2
Flags: W
LayerCount: 2
Fore
SplineSet
196 337 m 0,0,1
 220 436 220 436 220 510 c 0,2,3
 220 648 220 648 210 728 c 1,4,-1
 206 754 l 1,5,-1
 262 754 l 1,6,7
 282 670 282 670 282 550 c 128,-1,8
 282 430 282 430 259 330.5 c 128,-1,9
 236 231 236 231 203 154 c 0,10,11
 134 -6 134 -6 81 -84 c 2,12,-1
 58 -118 l 1,13,-1
 0 -118 l 1,14,15
 138 96 138 96 196 337 c 0,0,1
EndSplineSet
Substitution2: "'case' Case-Sensitive Forms in Latin lookup 4 subtable" parenright.cap
EndChar

StartChar: asterisk
Encoding: 42 42 13
Width: 411
GlyphClass: 2
Flags: W
LayerCount: 2
Fore
SplineSet
488 514 m 1,0,-1
 354 514 l 1,1,-1
 395 387 l 1,2,-1
 353 374 l 1,3,-1
 311 502 l 1,4,-1
 203 423 l 1,5,-1
 177 458 l 1,6,-1
 286 537 l 1,7,-1
 178 616 l 1,8,-1
 205 652 l 1,9,-1
 313 573 l 1,10,-1
 354 700 l 1,11,-1
 397 686 l 1,12,-1
 356 558 l 1,13,-1
 488 558 l 1,14,-1
 488 514 l 1,0,-1
EndSplineSet
EndChar

StartChar: plus
Encoding: 43 43 14
Width: 560
GlyphClass: 2
Flags: W
LayerCount: 2
Fore
SplineSet
114 223 m 1,0,-1
 114 279 l 1,1,-1
 308 279 l 1,2,-1
 308 480 l 1,3,-1
 365 480 l 1,4,-1
 365 279 l 1,5,-1
 561 279 l 1,6,-1
 561 223 l 1,7,-1
 365 223 l 1,8,-1
 365 20 l 1,9,-1
 308 20 l 1,10,-1
 308 223 l 1,11,-1
 114 223 l 1,0,-1
EndSplineSet
EndChar

StartChar: comma
Encoding: 44 44 15
Width: 185
GlyphClass: 2
Flags: W
LayerCount: 2
Fore
SplineSet
47 -129 m 1,0,-1
 -2 -129 l 1,1,-1
 92 100 l 1,2,-1
 158 100 l 1,3,-1
 47 -129 l 1,0,-1
EndSplineSet
EndChar

StartChar: hyphen
Encoding: 45 45 16
Width: 354
GlyphClass: 2
Flags: W
LayerCount: 2
Fore
SplineSet
109 240 m 1,0,-1
 123 296 l 1,1,-1
 369 296 l 1,2,-1
 355 240 l 1,3,-1
 109 240 l 1,0,-1
EndSplineSet
EndChar

StartChar: period
Encoding: 46 46 17
Width: 172
GlyphClass: 2
Flags: W
LayerCount: 2
Fore
SplineSet
56 0 m 1,0,-1
 79 100 l 1,1,-1
 140 100 l 1,2,-1
 117 0 l 1,3,-1
 56 0 l 1,0,-1
EndSplineSet
EndChar

StartChar: slash
Encoding: 47 47 18
Width: 406
GlyphClass: 2
Flags: W
LayerCount: 2
Fore
SplineSet
99 -7 m 1,0,-1
 43 14 l 1,1,-1
 469 704 l 1,2,-1
 526 683 l 1,3,-1
 99 -7 l 1,0,-1
EndSplineSet
Substitution2: "'frac' Diagonal Fractions in Latin lookup 3 subtable" fraction
EndChar

StartChar: zero
Encoding: 48 48 19
Width: 560
GlyphClass: 2
Flags: W
LayerCount: 2
Fore
SplineSet
243.5 593 m 128,-1,1
 316 670 316 670 412.5 670 c 128,-1,2
 509 670 509 670 559 621.5 c 128,-1,3
 609 573 609 573 609 479 c 0,4,5
 609 355 609 355 573 245 c 128,-1,6
 537 135 537 135 464 62.5 c 128,-1,7
 391 -10 391 -10 297 -10 c 128,-1,8
 203 -10 203 -10 153 38 c 128,-1,9
 103 86 103 86 103 177 c 0,10,11
 103 296 103 296 137 406 c 128,-1,0
 171 516 171 516 243.5 593 c 128,-1,1
411 616 m 0,12,13
 352 616 352 616 303 573 c 128,-1,14
 254 530 254 530 225 463 c 0,15,16
 165 324 165 324 165 184 c 128,-1,17
 165 44 165 44 297 44 c 0,18,19
 356 44 356 44 405 84.5 c 128,-1,20
 454 125 454 125 484 189 c 0,21,22
 546 325 546 325 546 470.5 c 128,-1,23
 546 616 546 616 411 616 c 0,12,13
EndSplineSet
Substitution2: "'frac' Diagonal Fractions in Latin lookup 1 subtable" zerosuperior
EndChar

StartChar: one
Encoding: 49 49 20
Width: 560
GlyphClass: 2
Flags: W
LayerCount: 2
Fore
SplineSet
240 529 m 1,0,-1
 476 661 l 1,1,-1
 530 661 l 1,2,-1
 378 0 l 1,3,-1
 317 0 l 1,4,-1
 451 585 l 1,5,-1
 256 478 l 1,6,-1
 240 529 l 1,0,-1
EndSplineSet
Substitution2: "'frac' Diagonal Fractions in Latin lookup 1 subtable" onesuperior
EndChar

StartChar: two
Encoding: 50 50 21
Width: 560
GlyphClass: 2
Flags: W
LayerCount: 2
Fore
SplineSet
491.5 410 m 128,-1,1
 537 464 537 464 537 517.5 c 128,-1,2
 537 571 537 571 504 594 c 128,-1,3
 471 617 471 617 404 617 c 0,4,5
 330 617 330 617 246 600 c 2,6,-1
 217 594 l 1,7,-1
 223 643 l 1,8,9
 324 671 324 671 414 671 c 0,10,11
 599 671 599 671 599 527 c 0,12,13
 599 454 599 454 552 393 c 128,-1,14
 505 332 505 332 414 260 c 2,15,-1
 158 54 l 1,16,-1
 503 54 l 1,17,-1
 490 0 l 1,18,-1
 68 0 l 1,19,-1
 80 50 l 1,20,-1
 350 276 l 2,21,0
 446 356 446 356 491.5 410 c 128,-1,1
EndSplineSet
Substitution2: "'frac' Diagonal Fractions in Latin lookup 1 subtable" twosuperior
EndChar

StartChar: three
Encoding: 51 51 22
Width: 560
GlyphClass: 2
Flags: W
LayerCount: 2
Fore
SplineSet
418 670 m 0,0,1
 592 670 592 670 592 537 c 128,-1,2
 592 404 592 404 452 351 c 1,3,4
 493 334 493 334 514 303 c 128,-1,5
 535 272 535 272 535 217 c 0,6,7
 535 113 535 113 459.5 51.5 c 128,-1,8
 384 -10 384 -10 269 -10 c 0,9,10
 227 -10 227 -10 178.5 -1.5 c 128,-1,11
 130 7 130 7 102 16 c 2,12,-1
 75 24 l 1,13,-1
 89 71 l 1,14,15
 195 44 195 44 276.5 44 c 128,-1,16
 358 44 358 44 415.5 90.5 c 128,-1,17
 473 137 473 137 473 213 c 0,18,19
 473 317 473 317 350 318 c 1,20,-1
 220 318 l 1,21,-1
 233 368 l 1,22,-1
 363 370 l 2,23,24
 419 370 419 370 474 414.5 c 128,-1,25
 529 459 529 459 529 522 c 0,26,27
 529 571 529 571 500 593.5 c 128,-1,28
 471 616 471 616 420 616 c 0,29,30
 327 616 327 616 244 601 c 2,31,-1
 217 596 l 1,32,-1
 223 643 l 1,33,34
 320 670 320 670 418 670 c 0,0,1
EndSplineSet
Substitution2: "'frac' Diagonal Fractions in Latin lookup 1 subtable" threesuperior
EndChar

StartChar: four
Encoding: 52 52 23
Width: 560
GlyphClass: 2
Flags: W
LayerCount: 2
Fore
SplineSet
368 -1 m 1,0,-1
 398 127 l 1,1,-1
 79 127 l 1,2,-1
 90 174 l 1,3,-1
 414 660 l 1,4,-1
 482 660 l 1,5,-1
 157 180 l 1,6,-1
 410 180 l 1,7,-1
 462 405 l 1,8,-1
 523 405 l 1,9,-1
 471 180 l 1,10,-1
 555 180 l 1,11,-1
 543 127 l 1,12,-1
 459 127 l 1,13,-1
 429 -1 l 1,14,-1
 368 -1 l 1,0,-1
EndSplineSet
Substitution2: "'frac' Diagonal Fractions in Latin lookup 1 subtable" foursuperior
EndChar

StartChar: five
Encoding: 53 53 24
Width: 560
GlyphClass: 2
Flags: W
LayerCount: 2
Fore
SplineSet
384 413 m 0,0,1
 555 413 555 413 555 271 c 0,2,3
 555 153 555 153 474.5 72.5 c 128,-1,4
 394 -8 394 -8 278 -8 c 0,5,6
 196 -8 196 -8 102 16 c 1,7,-1
 72 23 l 1,8,-1
 88 73 l 1,9,10
 198 46 198 46 282.5 46 c 128,-1,11
 367 46 367 46 429.5 109.5 c 128,-1,12
 492 173 492 173 492 263 c 0,13,14
 492 358 492 358 369 358 c 0,15,16
 336 358 336 358 293.5 346.5 c 128,-1,17
 251 335 251 335 226 324 c 2,18,-1
 200 312 l 1,19,-1
 150 321 l 1,20,-1
 255 660 l 1,21,-1
 627 660 l 1,22,-1
 615 606 l 1,23,-1
 293 606 l 1,24,-1
 216 367 l 1,25,26
 312 413 312 413 384 413 c 0,0,1
EndSplineSet
Substitution2: "'frac' Diagonal Fractions in Latin lookup 1 subtable" fivesuperior
EndChar

StartChar: six
Encoding: 54 54 25
Width: 560
GlyphClass: 2
Flags: W
LayerCount: 2
Fore
SplineSet
613 600 m 1,0,1
 532 616 532 616 472 616 c 128,-1,2
 412 616 412 616 374 600 c 128,-1,3
 336 584 336 584 309 560 c 128,-1,4
 282 536 282 536 260 502 c 0,5,6
 224 446 224 446 200 366 c 1,7,8
 296 411 296 411 387.5 411 c 128,-1,9
 479 411 479 411 522.5 370 c 128,-1,10
 566 329 566 329 566 255 c 0,11,12
 566 135 566 135 495.5 62.5 c 128,-1,13
 425 -10 425 -10 301 -10 c 0,14,15
 211 -10 211 -10 163 48 c 128,-1,16
 115 106 115 106 115 215 c 0,17,18
 115 338 115 338 170 454 c 0,19,20
 198 514 198 514 238 562 c 128,-1,21
 278 610 278 610 338.5 640 c 128,-1,22
 399 670 399 670 470 670 c 0,23,24
 534 670 534 670 608 656 c 1,25,-1
 631 651 l 1,26,-1
 613 600 l 1,0,1
373 356 m 0,27,28
 334 356 334 356 288 345 c 128,-1,29
 242 334 242 334 216 324 c 2,30,-1
 189 313 l 1,31,32
 178 280 178 280 178 207 c 128,-1,33
 178 134 178 134 209 89 c 128,-1,34
 240 44 240 44 302 44 c 0,35,36
 399 44 399 44 451 99.5 c 128,-1,37
 503 155 503 155 503 241 c 0,38,39
 503 300 503 300 472.5 328 c 128,-1,40
 442 356 442 356 373 356 c 0,27,28
EndSplineSet
Substitution2: "'frac' Diagonal Fractions in Latin lookup 1 subtable" sixsuperior
EndChar

StartChar: seven
Encoding: 55 55 26
Width: 560
GlyphClass: 2
Flags: W
LayerCount: 2
Fore
SplineSet
221 605 m 1,0,-1
 234 660 l 1,1,-1
 628 660 l 1,2,-1
 605 560 l 1,3,-1
 209 -11 l 1,4,-1
 154 8 l 1,5,-1
 545 569 l 1,6,-1
 553 605 l 1,7,-1
 221 605 l 1,0,-1
EndSplineSet
Substitution2: "'frac' Diagonal Fractions in Latin lookup 1 subtable" sevensuperior
EndChar

StartChar: eight
Encoding: 56 56 27
Width: 560
GlyphClass: 2
Flags: W
LayerCount: 2
Fore
SplineSet
311 652 m 128,-1,1
 367 671 367 671 454 671 c 128,-1,2
 541 671 541 671 590 636 c 128,-1,3
 639 601 639 601 639 538 c 128,-1,4
 639 475 639 475 595 421.5 c 128,-1,5
 551 368 551 368 473 346 c 1,6,7
 529 325 529 325 549.5 294 c 128,-1,8
 570 263 570 263 570 229.5 c 128,-1,9
 570 196 570 196 563 169.5 c 128,-1,10
 556 143 556 143 536 110 c 128,-1,11
 516 77 516 77 484.5 51.5 c 128,-1,12
 453 26 453 26 397 8 c 128,-1,13
 341 -10 341 -10 270 -10 c 0,14,15
 66 -10 66 -10 66 127 c 0,16,17
 66 275 66 275 239 346 c 1,18,19
 193 369 193 369 176.5 394.5 c 128,-1,20
 160 420 160 420 160 459.5 c 128,-1,21
 160 499 160 499 175.5 535 c 128,-1,22
 191 571 191 571 223 602 c 128,-1,0
 255 633 255 633 311 652 c 128,-1,1
170.5 68 m 128,-1,24
 209 44 209 44 275.5 44 c 128,-1,25
 342 44 342 44 387 61 c 128,-1,26
 432 78 432 78 456 104 c 0,27,28
 506 158 506 158 506 207.5 c 128,-1,29
 506 257 506 257 481.5 278.5 c 128,-1,30
 457 300 457 300 400 316 c 1,31,-1
 296 316 l 1,32,33
 227 297 227 297 179.5 253.5 c 128,-1,34
 132 210 132 210 132 136 c 0,35,23
 132 92 132 92 170.5 68 c 128,-1,24
426 616 m 0,36,37
 321 616 321 616 271.5 571.5 c 128,-1,38
 222 527 222 527 222 465 c 0,39,40
 222 432 222 432 241.5 409 c 128,-1,41
 261 386 261 386 309 369 c 1,42,-1
 413 369 l 1,43,44
 495 389 495 389 542 444 c 0,45,46
 572 479 572 479 572 524 c 0,47,48
 572 616 572 616 426 616 c 0,36,37
EndSplineSet
Substitution2: "'frac' Diagonal Fractions in Latin lookup 1 subtable" eightsuperior
EndChar

StartChar: nine
Encoding: 57 57 28
Width: 560
GlyphClass: 2
Flags: W
LayerCount: 2
Fore
SplineSet
429 670 m 0,0,1
 594 670 594 670 594 477 c 0,2,3
 594 420 594 420 579 348 c 1,4,5
 545 162 545 162 456 76 c 128,-1,6
 367 -10 367 -10 238 -10 c 0,7,8
 168 -10 168 -10 102 6 c 1,9,-1
 78 11 l 1,10,-1
 99 65 l 1,11,12
 175 47 175 47 253 47 c 0,13,14
 444 47 444 47 507 290 c 1,15,16
 383 252 383 252 312 252 c 0,17,18
 218 252 218 252 176 300 c 1,19,20
 148 334 148 334 148 392 c 0,21,22
 148 417 148 417 153 447 c 0,23,24
 172 544 172 544 248 607 c 128,-1,25
 324 670 324 670 429 670 c 0,0,1
538 464 m 0,26,27
 538 614 538 614 415 614 c 0,28,29
 342 614 342 614 286 569.5 c 128,-1,30
 230 525 230 525 215 450 c 0,31,32
 210 426 210 426 210 406 c 0,33,34
 210 308 210 308 331 308 c 0,35,36
 391 308 391 308 488 335 c 2,37,-1
 521 344 l 1,38,39
 538 411 538 411 538 464 c 0,26,27
EndSplineSet
Substitution2: "'frac' Diagonal Fractions in Latin lookup 1 subtable" ninesuperior
EndChar

StartChar: colon
Encoding: 58 58 29
Width: 174
GlyphClass: 2
Flags: W
LayerCount: 2
Fore
SplineSet
134 338 m 1,0,-1
 157 438 l 1,1,-1
 218 438 l 1,2,-1
 195 338 l 1,3,-1
 134 338 l 1,0,-1
56 0 m 1,4,-1
 79 100 l 1,5,-1
 140 100 l 1,6,-1
 117 0 l 1,7,-1
 56 0 l 1,4,-1
EndSplineSet
EndChar

StartChar: semicolon
Encoding: 59 59 30
Width: 207
GlyphClass: 2
Flags: W
LayerCount: 2
Fore
SplineSet
10 -129 m 1,0,-1
 104 100 l 1,1,-1
 170 100 l 1,2,-1
 59 -129 l 1,3,-1
 10 -129 l 1,0,-1
154 338 m 1,4,-1
 177 438 l 1,5,-1
 238 438 l 1,6,-1
 215 338 l 1,7,-1
 154 338 l 1,4,-1
EndSplineSet
EndChar

StartChar: less
Encoding: 60 60 31
Width: 560
GlyphClass: 2
Flags: W
LayerCount: 2
Fore
SplineSet
524 423 m 1,0,-1
 165 252 l 1,1,-1
 524 78 l 1,2,-1
 524 14 l 1,3,-1
 104 224 l 1,4,-1
 104 278 l 1,5,-1
 524 486 l 1,6,-1
 524 423 l 1,0,-1
EndSplineSet
EndChar

StartChar: equal
Encoding: 61 61 32
Width: 560
GlyphClass: 2
Flags: W
LayerCount: 2
Fore
SplineSet
123 312 m 1,0,-1
 123 368 l 1,1,-1
 552 368 l 1,2,-1
 552 312 l 1,3,-1
 123 312 l 1,0,-1
123 133 m 1,4,-1
 123 189 l 1,5,-1
 552 189 l 1,6,-1
 552 133 l 1,7,-1
 123 133 l 1,4,-1
EndSplineSet
EndChar

StartChar: greater
Encoding: 62 62 33
Width: 560
GlyphClass: 2
Flags: W
LayerCount: 2
Fore
SplineSet
508 252 m 1,0,-1
 149 423 l 1,1,-1
 149 486 l 1,2,-1
 569 278 l 1,3,-1
 569 224 l 1,4,-1
 149 14 l 1,5,-1
 149 78 l 1,6,-1
 508 252 l 1,0,-1
EndSplineSet
EndChar

StartChar: question
Encoding: 63 63 34
Width: 410
GlyphClass: 2
Flags: W
LayerCount: 2
Fore
SplineSet
456 674.5 m 128,-1,1
 499 644 499 644 499 587 c 128,-1,2
 499 530 499 530 482.5 493.5 c 128,-1,3
 466 457 466 457 435 427 c 128,-1,4
 404 397 404 397 332.5 340 c 128,-1,5
 261 283 261 283 250 232 c 2,6,-1
 242 193 l 1,7,-1
 185 193 l 1,8,9
 187 222 187 222 192 248 c 0,10,11
 205 314 205 314 295 383 c 1,12,13
 380 451 380 451 407.5 487 c 128,-1,14
 435 523 435 523 435 577 c 0,15,16
 435 649 435 649 327 649 c 0,17,18
 270 649 270 649 206 635 c 2,19,-1
 183 630 l 1,20,-1
 186 680 l 1,21,22
 274 705 274 705 343.5 705 c 128,-1,0
 413 705 413 705 456 674.5 c 128,-1,1
146 1 m 1,23,-1
 168 104 l 1,24,-1
 230 104 l 1,25,-1
 207 1 l 1,26,-1
 146 1 l 1,23,-1
EndSplineSet
EndChar

StartChar: at
Encoding: 64 64 35
Width: 927
GlyphClass: 2
Flags: W
LayerCount: 2
Fore
SplineSet
639 719 m 0,0,1
 732 719 732 719 799.5 697 c 128,-1,2
 867 675 867 675 904 637 c 0,3,4
 973 566 973 566 973 444 c 0,5,6
 973 381 973 381 951.5 290.5 c 128,-1,7
 930 200 930 200 905 137.5 c 128,-1,8
 880 75 880 75 849.5 43.5 c 128,-1,9
 819 12 819 12 789.5 1 c 128,-1,10
 760 -10 760 -10 718 -10 c 0,11,12
 632 -10 632 -10 623 49 c 1,13,14
 505 -10 505 -10 432 -10 c 0,15,16
 383 -10 383 -10 354.5 10.5 c 128,-1,17
 326 31 326 31 319.5 65.5 c 128,-1,18
 313 100 313 100 313 116 c 0,19,20
 313 161 313 161 321 209 c 0,21,22
 374 510 374 510 575 510 c 0,23,24
 629 510 629 510 758 486 c 1,25,26
 739 413 739 413 707 267.5 c 128,-1,27
 675 122 675 122 675 92.5 c 128,-1,28
 675 63 675 63 687.5 55 c 128,-1,29
 700 47 700 47 733.5 47 c 128,-1,30
 767 47 767 47 792 64 c 128,-1,31
 817 81 817 81 845 139.5 c 128,-1,32
 873 198 873 198 893 284.5 c 128,-1,33
 913 371 913 371 914.5 400 c 128,-1,34
 916 429 916 429 916 454 c 128,-1,35
 916 479 916 479 904.5 522 c 128,-1,36
 893 565 893 565 862 596 c 0,37,38
 795 665 795 665 628 665 c 0,39,40
 437 665 437 665 329.5 571.5 c 128,-1,41
 222 478 222 478 169 263 c 0,42,43
 148 178 148 178 148 111 c 0,44,45
 148 -145 148 -145 449 -145 c 1,46,-1
 585 -136 l 1,47,-1
 575 -190 l 1,48,49
 480 -200 480 -200 435 -200 c 0,50,51
 334 -200 334 -200 262 -172 c 128,-1,52
 190 -144 190 -144 153.5 -99 c 128,-1,53
 117 -54 117 -54 103 2.5 c 128,-1,54
 89 59 89 59 89 90 c 128,-1,55
 89 121 89 121 91 157.5 c 128,-1,56
 93 194 93 194 109 263 c 0,57,58
 167 511 167 511 291.5 615 c 128,-1,59
 416 719 416 719 639 719 c 0,0,1
448 46 m 0,60,61
 513 46 513 46 615 101 c 1,62,63
 620 158 620 158 688 442 c 1,64,65
 632 457 632 457 571 457 c 0,66,67
 494 457 494 457 450.5 394.5 c 128,-1,68
 407 332 407 332 381 208 c 0,69,70
 372 166 372 166 372 135 c 0,71,72
 372 46 372 46 446 46 c 0,73,74
 447 46 447 46 448 46 c 0,60,61
EndSplineSet
EndChar

StartChar: A
Encoding: 65 65 36
Width: 555
GlyphClass: 2
Flags: W
LayerCount: 2
Fore
SplineSet
27 0 m 1,0,-1
 382 695 l 1,1,-1
 508 695 l 1,2,-1
 531 0 l 1,3,-1
 470 0 l 1,4,-1
 462 191 l 1,5,-1
 188 191 l 1,6,-1
 89 0 l 1,7,-1
 27 0 l 1,0,-1
417 640 m 1,8,-1
 215 245 l 1,9,-1
 462 245 l 1,10,-1
 449 640 l 1,11,-1
 417 640 l 1,8,-1
EndSplineSet
Position2: "'cpsp' Capital Spacing in Latin lookup 0 subtable" dx=5 dy=0 dh=10 dv=0
EndChar

StartChar: B
Encoding: 66 66 37
Width: 578
GlyphClass: 2
Flags: W
LayerCount: 2
Fore
SplineSet
461 695 m 2,0,1
 543 695 543 695 583.5 664 c 128,-1,2
 624 633 624 633 624 560 c 128,-1,3
 624 487 624 487 586 435 c 128,-1,4
 548 383 548 383 490 360 c 1,5,6
 534 344 534 344 556 316 c 128,-1,7
 578 288 578 288 578 240 c 0,8,9
 578 129 578 129 509.5 64.5 c 128,-1,10
 441 0 441 0 315 0 c 2,11,-1
 81 0 l 1,12,-1
 241 695 l 1,13,-1
 461 695 l 2,0,1
386 328 m 2,14,-1
 218 328 l 1,15,-1
 155 54 l 1,16,-1
 328 54 l 2,17,18
 416 54 416 54 465 103.5 c 128,-1,19
 514 153 514 153 514 239 c 0,20,21
 514 289 514 289 480.5 308.5 c 128,-1,22
 447 328 447 328 386 328 c 2,14,-1
450 641 m 2,23,-1
 289 641 l 1,24,-1
 230 382 l 1,25,-1
 396 382 l 2,26,27
 469 382 469 382 515 431.5 c 128,-1,28
 561 481 561 481 561 554 c 0,29,30
 561 603 561 603 535 622 c 128,-1,31
 509 641 509 641 450 641 c 2,23,-1
EndSplineSet
Position2: "'cpsp' Capital Spacing in Latin lookup 0 subtable" dx=5 dy=0 dh=10 dv=0
EndChar

StartChar: C
Encoding: 67 67 38
Width: 506
GlyphClass: 2
Flags: W
LayerCount: 2
Fore
SplineSet
305 -10 m 0,0,1
 115 -10 115 -10 115 189 c 0,2,3
 115 331 115 331 168 462 c 0,4,5
 196 531 196 531 235.5 584.5 c 128,-1,6
 275 638 275 638 334.5 671.5 c 128,-1,7
 394 705 394 705 464 705 c 0,8,9
 533 705 533 705 605 688 c 1,10,-1
 629 683 l 1,11,-1
 615 633 l 1,12,13
 534 649 534 649 463.5 649 c 128,-1,14
 393 649 393 649 338 605.5 c 128,-1,15
 283 562 283 562 250 493 c 0,16,17
 179 348 179 348 179 191 c 0,18,19
 179 117 179 117 211.5 81.5 c 128,-1,20
 244 46 244 46 314 46 c 0,21,22
 389 46 389 46 453 58 c 1,23,-1
 476 63 l 1,24,-1
 473 12 l 1,25,26
 384 -10 384 -10 305 -10 c 0,0,1
EndSplineSet
Position2: "'cpsp' Capital Spacing in Latin lookup 0 subtable" dx=5 dy=0 dh=10 dv=0
EndChar

StartChar: D
Encoding: 68 68 39
Width: 607
GlyphClass: 2
Flags: W
LayerCount: 2
Fore
SplineSet
319 0 m 2,0,-1
 81 0 l 1,1,-1
 241 695 l 1,2,-1
 466 695 l 2,3,4
 559 695 559 695 604 645.5 c 128,-1,5
 649 596 649 596 649 489 c 0,6,7
 649 351 649 351 598 227 c 1,8,9
 542 87 542 87 440 31 c 0,10,11
 385 0 385 0 319 0 c 2,0,-1
568.5 348.5 m 128,-1,13
 585 422 585 422 585 495 c 128,-1,14
 585 568 585 568 554.5 604 c 128,-1,15
 524 640 524 640 454 640 c 2,16,-1
 290 640 l 1,17,-1
 156 55 l 1,18,-1
 329 55 l 2,19,20
 390 55 390 55 440.5 98.5 c 128,-1,21
 491 142 491 142 521.5 208.5 c 128,-1,12
 552 275 552 275 568.5 348.5 c 128,-1,13
EndSplineSet
Position2: "'cpsp' Capital Spacing in Latin lookup 0 subtable" dx=5 dy=0 dh=10 dv=0
EndChar

StartChar: E
Encoding: 69 69 40
Width: 507
GlyphClass: 2
Flags: W
LayerCount: 2
Fore
SplineSet
81 0 m 1,0,-1
 241 695 l 1,1,-1
 624 695 l 1,2,-1
 611 640 l 1,3,-1
 290 640 l 1,4,-1
 230 382 l 1,5,-1
 496 382 l 1,6,-1
 483 327 l 1,7,-1
 218 327 l 1,8,-1
 155 55 l 1,9,-1
 476 55 l 1,10,-1
 463 0 l 1,11,-1
 81 0 l 1,0,-1
EndSplineSet
Position2: "'cpsp' Capital Spacing in Latin lookup 0 subtable" dx=5 dy=0 dh=10 dv=0
EndChar

StartChar: F
Encoding: 70 70 41
Width: 483
GlyphClass: 2
Flags: W
LayerCount: 2
Fore
SplineSet
81 0 m 1,0,-1
 241 695 l 1,1,-1
 615 695 l 1,2,-1
 602 640 l 1,3,-1
 290 640 l 1,4,-1
 223 350 l 1,5,-1
 491 350 l 1,6,-1
 478 296 l 1,7,-1
 210 296 l 1,8,-1
 142 0 l 1,9,-1
 81 0 l 1,0,-1
EndSplineSet
Position2: "'cpsp' Capital Spacing in Latin lookup 0 subtable" dx=5 dy=0 dh=10 dv=0
EndChar

StartChar: G
Encoding: 71 71 42
Width: 573
GlyphClass: 2
Flags: W
LayerCount: 2
Fore
SplineSet
320 -10 m 0,0,1
 116 -10 116 -10 116 182 c 0,2,3
 116 377 116 377 200 534 c 0,4,5
 242 611 242 611 311.5 658 c 128,-1,6
 381 705 381 705 469 705 c 0,7,8
 553 705 553 705 640 683 c 2,9,-1
 667 676 l 1,10,-1
 651 628 l 1,11,12
 550 650 550 650 470.5 650 c 128,-1,13
 391 650 391 650 335 605 c 128,-1,14
 279 560 279 560 246 488 c 0,15,16
 180 342 180 342 180 181 c 0,17,18
 180 45 180 45 326 45 c 0,19,20
 382 45 382 45 442 58 c 1,21,-1
 462 63 l 1,22,-1
 518 301 l 1,23,-1
 403 301 l 1,24,-1
 415 354 l 1,25,-1
 592 354 l 1,26,-1
 513 18 l 1,27,28
 420 -10 420 -10 320 -10 c 0,0,1
EndSplineSet
Position2: "'cpsp' Capital Spacing in Latin lookup 0 subtable" dx=5 dy=0 dh=10 dv=0
EndChar

StartChar: H
Encoding: 72 72 43
Width: 624
GlyphClass: 2
Flags: W
LayerCount: 2
Fore
SplineSet
482 0 m 1,0,-1
 556 322 l 1,1,-1
 216 322 l 1,2,-1
 142 0 l 1,3,-1
 81 0 l 1,4,-1
 241 695 l 1,5,-1
 303 695 l 1,6,-1
 229 377 l 1,7,-1
 569 377 l 1,8,-1
 643 695 l 1,9,-1
 704 695 l 1,10,-1
 544 0 l 1,11,-1
 482 0 l 1,0,-1
EndSplineSet
Position2: "'cpsp' Capital Spacing in Latin lookup 0 subtable" dx=5 dy=0 dh=10 dv=0
EndChar

StartChar: I
Encoding: 73 73 44
Width: 223
GlyphClass: 2
Flags: W
LayerCount: 2
Fore
SplineSet
81 0 m 1,0,-1
 241 695 l 1,1,-1
 303 695 l 1,2,-1
 142 0 l 1,3,-1
 81 0 l 1,0,-1
EndSplineSet
Position2: "'cpsp' Capital Spacing in Latin lookup 0 subtable" dx=5 dy=0 dh=10 dv=0
EndChar

StartChar: J
Encoding: 74 74 45
Width: 260
GlyphClass: 2
Flags: W
LayerCount: 2
Fore
SplineSet
343 695 m 1,0,-1
 209 114 l 2,1,2
 187 22 187 22 169.5 -9.5 c 128,-1,3
 152 -41 152 -41 131 -51 c 0,4,5
 89 -71 89 -71 7 -71 c 1,6,-1
 17 -16 l 1,7,8
 84 -15 84 -15 106.5 8.5 c 128,-1,9
 129 32 129 32 149 121 c 2,10,-1
 282 695 l 1,11,-1
 343 695 l 1,0,-1
EndSplineSet
Position2: "'cpsp' Capital Spacing in Latin lookup 0 subtable" dx=5 dy=0 dh=10 dv=0
EndChar

StartChar: K
Encoding: 75 75 46
Width: 516
GlyphClass: 2
Flags: W
LayerCount: 2
Fore
SplineSet
432 0 m 1,0,-1
 320 315 l 1,1,-1
 214 313 l 1,2,-1
 142 0 l 1,3,-1
 81 0 l 1,4,-1
 241 695 l 1,5,-1
 303 695 l 1,6,-1
 227 368 l 1,7,-1
 325 370 l 1,8,-1
 587 695 l 1,9,-1
 657 695 l 1,10,-1
 374 344 l 1,11,-1
 497 0 l 1,12,-1
 432 0 l 1,0,-1
EndSplineSet
Position2: "'cpsp' Capital Spacing in Latin lookup 0 subtable" dx=5 dy=0 dh=10 dv=0
EndChar

StartChar: L
Encoding: 76 76 47
Width: 436
GlyphClass: 2
Flags: W
LayerCount: 2
Fore
SplineSet
429 0 m 1,0,-1
 81 0 l 1,1,-1
 241 695 l 1,2,-1
 303 695 l 1,3,-1
 155 55 l 1,4,-1
 441 55 l 1,5,-1
 429 0 l 1,0,-1
EndSplineSet
Position2: "'cpsp' Capital Spacing in Latin lookup 0 subtable" dx=5 dy=0 dh=10 dv=0
EndChar

StartChar: M
Encoding: 77 77 48
Width: 778
GlyphClass: 2
Flags: W
LayerCount: 2
Fore
SplineSet
81 0 m 1,0,-1
 241 695 l 1,1,-1
 350 695 l 1,2,-1
 404 87 l 1,3,-1
 748 695 l 1,4,-1
 858 695 l 1,5,-1
 697 0 l 1,6,-1
 635 0 l 1,7,-1
 784 640 l 1,8,-1
 773 640 l 1,9,-1
 426 23 l 1,10,-1
 359 23 l 1,11,-1
 301 640 l 1,12,-1
 290 640 l 1,13,-1
 142 0 l 1,14,-1
 81 0 l 1,0,-1
EndSplineSet
Position2: "'cpsp' Capital Spacing in Latin lookup 0 subtable" dx=5 dy=0 dh=10 dv=0
EndChar

StartChar: N
Encoding: 78 78 49
Width: 625
GlyphClass: 2
Flags: W
LayerCount: 2
Fore
SplineSet
81 0 m 1,0,-1
 241 695 l 1,1,-1
 357 695 l 1,2,-1
 478 61 l 1,3,-1
 499 61 l 1,4,-1
 645 695 l 1,5,-1
 705 695 l 1,6,-1
 545 0 l 1,7,-1
 433 0 l 1,8,-1
 309 636 l 1,9,-1
 287 636 l 1,10,-1
 140 0 l 1,11,-1
 81 0 l 1,0,-1
EndSplineSet
Position2: "'cpsp' Capital Spacing in Latin lookup 0 subtable" dx=5 dy=0 dh=10 dv=0
EndChar

StartChar: O
Encoding: 79 79 50
Width: 631
GlyphClass: 2
Flags: W
LayerCount: 2
Fore
SplineSet
215 80 m 128,-1,1
 250 45 250 45 327 45 c 128,-1,2
 404 45 404 45 457 87 c 0,3,4
 530 145 530 145 569.5 261 c 128,-1,5
 609 377 609 377 609 495 c 0,6,7
 609 575 609 575 572 612.5 c 128,-1,8
 535 650 535 650 463 650 c 128,-1,9
 391 650 391 650 340 610 c 0,10,11
 265 552 265 552 222.5 431.5 c 128,-1,12
 180 311 180 311 180 199 c 0,13,0
 180 115 180 115 215 80 c 128,-1,1
630 241.5 m 128,-1,15
 587 120 587 120 508.5 55 c 128,-1,16
 430 -10 430 -10 323.5 -10 c 128,-1,17
 217 -10 217 -10 167 38 c 128,-1,18
 117 86 117 86 117 205 c 128,-1,19
 117 324 117 324 158.5 443 c 128,-1,20
 200 562 200 562 278.5 633.5 c 128,-1,21
 357 705 357 705 459 705 c 0,22,23
 673 705 673 705 673 498 c 0,24,14
 673 363 673 363 630 241.5 c 128,-1,15
EndSplineSet
Position2: "'cpsp' Capital Spacing in Latin lookup 0 subtable" dx=5 dy=0 dh=10 dv=0
EndChar

StartChar: P
Encoding: 80 80 51
Width: 547
GlyphClass: 2
Flags: W
LayerCount: 2
Fore
SplineSet
366 241 m 2,0,-1
 198 241 l 1,1,-1
 142 0 l 1,2,-1
 81 0 l 1,3,-1
 241 695 l 1,4,-1
 465 695 l 2,5,6
 549 695 549 695 587.5 656 c 128,-1,7
 626 617 626 617 626 538 c 0,8,9
 626 407 626 407 558 324 c 128,-1,10
 490 241 490 241 366 241 c 2,0,-1
376 296 m 2,11,12
 467 296 467 296 514.5 365 c 128,-1,13
 562 434 562 434 562 538 c 0,14,15
 562 589 562 589 537.5 614 c 128,-1,16
 513 639 513 639 457 639 c 2,17,-1
 290 639 l 1,18,-1
 211 296 l 1,19,-1
 376 296 l 2,11,12
EndSplineSet
Position2: "'cpsp' Capital Spacing in Latin lookup 0 subtable" dx=5 dy=0 dh=10 dv=0
EndChar

StartChar: Q
Encoding: 81 81 52
Width: 631
GlyphClass: 2
Flags: W
LayerCount: 2
Fore
SplineSet
328 -10 m 0,0,1
 217 -10 217 -10 167 38 c 128,-1,2
 117 86 117 86 117 205 c 128,-1,3
 117 324 117 324 158.5 443 c 128,-1,4
 200 562 200 562 278.5 633.5 c 128,-1,5
 357 705 357 705 459 705 c 0,6,7
 673 705 673 705 673 498 c 0,8,9
 673 363 673 363 630 242 c 0,10,11
 574 83 574 83 458 21 c 1,12,-1
 505 -124 l 1,13,-1
 447 -143 l 1,14,-1
 402 0 l 1,15,16
 364 -10 364 -10 328 -10 c 0,0,1
215 80 m 128,-1,18
 250 45 250 45 327 45 c 128,-1,19
 404 45 404 45 457 87 c 0,20,21
 530 145 530 145 569.5 261 c 128,-1,22
 609 377 609 377 609 495 c 0,23,24
 609 575 609 575 572 612.5 c 128,-1,25
 535 650 535 650 463 650 c 128,-1,26
 391 650 391 650 340 610 c 0,27,28
 265 552 265 552 222.5 431.5 c 128,-1,29
 180 311 180 311 180 199 c 0,30,17
 180 115 180 115 215 80 c 128,-1,18
EndSplineSet
Position2: "'cpsp' Capital Spacing in Latin lookup 0 subtable" dx=5 dy=0 dh=10 dv=0
EndChar

StartChar: R
Encoding: 82 82 53
Width: 566
GlyphClass: 2
Flags: W
LayerCount: 2
Fore
SplineSet
457 695 m 2,0,1
 544 695 544 695 586.5 657.5 c 128,-1,2
 629 620 629 620 629 535 c 0,3,4
 629 423 629 423 573 358.5 c 128,-1,5
 517 294 517 294 445 278 c 1,6,-1
 526 0 l 1,7,-1
 464 0 l 1,8,-1
 387 270 l 1,9,-1
 205 270 l 1,10,-1
 142 0 l 1,11,-1
 81 0 l 1,12,-1
 241 695 l 1,13,-1
 457 695 l 2,0,1
565 533 m 0,14,15
 565 592 565 592 537.5 616.5 c 128,-1,16
 510 641 510 641 449 641 c 2,17,-1
 290 641 l 1,18,-1
 217 324 l 1,19,-1
 379 324 l 2,20,21
 463 324 463 324 514 382 c 128,-1,22
 565 440 565 440 565 533 c 0,14,15
EndSplineSet
Position2: "'cpsp' Capital Spacing in Latin lookup 0 subtable" dx=5 dy=0 dh=10 dv=0
EndChar

StartChar: S
Encoding: 83 83 54
Width: 500
GlyphClass: 2
Flags: W
LayerCount: 2
Fore
SplineSet
580 632 m 1,0,1
 476 650 476 650 399.5 650 c 128,-1,2
 323 650 323 650 275.5 609 c 128,-1,3
 228 568 228 568 228 490 c 0,4,5
 228 447 228 447 255 428 c 128,-1,6
 282 409 282 409 360.5 383 c 128,-1,7
 439 357 439 357 470.5 326 c 128,-1,8
 502 295 502 295 502 230 c 0,9,10
 502 119 502 119 435.5 54.5 c 128,-1,11
 369 -10 369 -10 256 -10 c 0,12,13
 180 -10 180 -10 86 8 c 1,14,-1
 57 13 l 1,15,-1
 68 63 l 1,16,17
 185 45 185 45 265 45 c 128,-1,18
 345 45 345 45 392 93 c 128,-1,19
 439 141 439 141 439 226 c 0,20,21
 439 271 439 271 416 290.5 c 128,-1,22
 393 310 393 310 315.5 335 c 128,-1,23
 238 360 238 360 201.5 391 c 128,-1,24
 165 422 165 422 165 486 c 0,25,26
 165 590 165 590 232 647.5 c 128,-1,27
 299 705 299 705 411 705 c 0,28,29
 489 705 489 705 566 686 c 1,30,-1
 591 679 l 1,31,-1
 580 632 l 1,0,1
EndSplineSet
Position2: "'cpsp' Capital Spacing in Latin lookup 0 subtable" dx=5 dy=0 dh=10 dv=0
EndChar

StartChar: T
Encoding: 84 84 55
Width: 472
GlyphClass: 2
Flags: W
LayerCount: 2
Fore
SplineSet
157 640 m 1,0,-1
 170 695 l 1,1,-1
 620 695 l 1,2,-1
 607 640 l 1,3,-1
 413 640 l 1,4,-1
 265 0 l 1,5,-1
 204 0 l 1,6,-1
 351 640 l 1,7,-1
 157 640 l 1,0,-1
EndSplineSet
Position2: "'cpsp' Capital Spacing in Latin lookup 0 subtable" dx=5 dy=0 dh=10 dv=0
EndChar

StartChar: U
Encoding: 85 85 56
Width: 593
GlyphClass: 2
Flags: W
LayerCount: 2
Fore
SplineSet
176 139 m 0,0,1
 176 46 176 46 315 46 c 0,2,3
 399 46 399 46 441.5 84.5 c 128,-1,4
 484 123 484 123 503 206 c 2,5,-1
 616 695 l 1,6,-1
 678 695 l 1,7,-1
 565 205 l 2,8,9
 539 95 539 95 480 42.5 c 128,-1,10
 421 -10 421 -10 320 -10 c 0,11,12
 115 -10 115 -10 115 132 c 0,13,14
 115 177 115 177 126 218 c 1,15,-1
 236 695 l 1,16,-1
 297 695 l 1,17,-1
 186 213 l 2,18,19
 176 173 176 173 176 139 c 0,0,1
EndSplineSet
Position2: "'cpsp' Capital Spacing in Latin lookup 0 subtable" dx=5 dy=0 dh=10 dv=0
EndChar

StartChar: V
Encoding: 86 86 57
Width: 542
GlyphClass: 2
Flags: W
LayerCount: 2
Fore
SplineSet
611 695 m 1,0,-1
 673 695 l 1,1,-1
 338 0 l 1,2,-1
 198 0 l 1,3,-1
 184 695 l 1,4,-1
 246 695 l 1,5,-1
 255 55 l 1,6,-1
 303 55 l 1,7,-1
 611 695 l 1,0,-1
EndSplineSet
Position2: "'cpsp' Capital Spacing in Latin lookup 0 subtable" dx=5 dy=0 dh=10 dv=0
EndChar

StartChar: W
Encoding: 87 87 58
Width: 820
GlyphClass: 2
Flags: W
LayerCount: 2
Fore
SplineSet
190 695 m 1,0,-1
 251 695 l 1,1,-1
 222 56 l 1,2,-1
 252 56 l 1,3,-1
 532 685 l 1,4,-1
 598 685 l 1,5,-1
 583 56 l 1,6,-1
 611 56 l 1,7,-1
 883 695 l 1,8,-1
 945 695 l 1,9,-1
 646 0 l 1,10,-1
 529 0 l 1,11,-1
 545 589 l 1,12,-1
 284 0 l 1,13,-1
 164 0 l 1,14,-1
 190 695 l 1,0,-1
EndSplineSet
Position2: "'cpsp' Capital Spacing in Latin lookup 0 subtable" dx=5 dy=0 dh=10 dv=0
EndChar

StartChar: X
Encoding: 88 88 59
Width: 512
GlyphClass: 2
Flags: W
LayerCount: 2
Fore
SplineSet
248 695 m 1,0,-1
 348 394 l 1,1,-1
 587 695 l 1,2,-1
 656 695 l 1,3,-1
 373 343 l 1,4,-1
 490 0 l 1,5,-1
 427 0 l 1,6,-1
 326 298 l 1,7,-1
 84 0 l 1,8,-1
 15 0 l 1,9,-1
 300 348 l 1,10,-1
 185 695 l 1,11,-1
 248 695 l 1,0,-1
EndSplineSet
Position2: "'cpsp' Capital Spacing in Latin lookup 0 subtable" dx=5 dy=0 dh=10 dv=0
EndChar

StartChar: Y
Encoding: 89 89 60
Width: 490
GlyphClass: 2
Flags: W
LayerCount: 2
Fore
SplineSet
635 695 m 1,0,-1
 340 298 l 1,1,-1
 270 0 l 1,2,-1
 211 0 l 1,3,-1
 281 304 l 1,4,-1
 173 695 l 1,5,-1
 235 695 l 1,6,-1
 324 358 l 1,7,-1
 569 695 l 1,8,-1
 635 695 l 1,0,-1
EndSplineSet
Position2: "'cpsp' Capital Spacing in Latin lookup 0 subtable" dx=5 dy=0 dh=10 dv=0
EndChar

StartChar: Z
Encoding: 90 90 61
Width: 496
GlyphClass: 2
Flags: W
LayerCount: 2
Fore
SplineSet
188 640 m 1,0,-1
 201 695 l 1,1,-1
 617 695 l 1,2,-1
 595 602 l 1,3,-1
 123 79 l 1,4,-1
 117 55 l 1,5,-1
 467 55 l 1,6,-1
 454 0 l 1,7,-1
 38 0 l 1,8,-1
 59 90 l 1,9,-1
 530 612 l 1,10,-1
 537 640 l 1,11,-1
 188 640 l 1,0,-1
EndSplineSet
Position2: "'cpsp' Capital Spacing in Latin lookup 0 subtable" dx=5 dy=0 dh=10 dv=0
EndChar

StartChar: bracketleft
Encoding: 91 91 62
Width: 283
GlyphClass: 2
Flags: W
LayerCount: 2
Fore
SplineSet
238 747 m 1,0,-1
 425 747 l 1,1,-1
 413 694 l 1,2,-1
 286 694 l 1,3,-1
 107 -69 l 1,4,-1
 234 -69 l 1,5,-1
 220 -122 l 1,6,-1
 34 -122 l 1,7,-1
 238 747 l 1,0,-1
EndSplineSet
Substitution2: "'case' Case-Sensitive Forms in Latin lookup 4 subtable" bracketleft.cap
EndChar

StartChar: backslash
Encoding: 92 92 63
Width: 411
GlyphClass: 2
Flags: W
LayerCount: 2
Fore
SplineSet
383 10 m 1,0,-1
 320 0 l 1,1,-1
 189 691 l 1,2,-1
 252 701 l 1,3,-1
 383 10 l 1,0,-1
EndSplineSet
EndChar

StartChar: bracketright
Encoding: 93 93 64
Width: 283
GlyphClass: 2
Flags: W
LayerCount: 2
Fore
SplineSet
190 -121 m 1,0,-1
 3 -121 l 1,1,-1
 15 -68 l 1,2,-1
 142 -68 l 1,3,-1
 321 695 l 1,4,-1
 194 695 l 1,5,-1
 208 748 l 1,6,-1
 394 748 l 1,7,-1
 190 -121 l 1,0,-1
EndSplineSet
Substitution2: "'case' Case-Sensitive Forms in Latin lookup 4 subtable" bracketright.cap
EndChar

StartChar: asciicircum
Encoding: 94 94 65
Width: 560
GlyphClass: 2
Flags: W
LayerCount: 2
Fore
SplineSet
496 320 m 1,0,-1
 343 600 l 1,1,-1
 196 320 l 1,2,-1
 131 320 l 1,3,-1
 315 660 l 1,4,-1
 370 660 l 1,5,-1
 561 320 l 1,6,-1
 496 320 l 1,0,-1
EndSplineSet
EndChar

StartChar: underscore
Encoding: 95 95 66
Width: 602
GlyphClass: 2
Flags: W
LayerCount: 2
Fore
SplineSet
58 -79 m 1,0,-1
 507 -79 l 1,1,-1
 492 -139 l 1,2,-1
 45 -139 l 1,3,-1
 58 -79 l 1,0,-1
EndSplineSet
EndChar

StartChar: grave
Encoding: 96 96 67
Width: 518
GlyphClass: 2
Flags: W
LayerCount: 2
Fore
SplineSet
318 734 m 1,0,-1
 494 640 l 1,1,-1
 466 599 l 1,2,-1
 289 687 l 1,3,-1
 318 734 l 1,0,-1
EndSplineSet
EndChar

StartChar: a
Encoding: 97 97 68
Width: 493
GlyphClass: 2
Flags: W
LayerCount: 2
Fore
SplineSet
216 -10 m 0,0,1
 91 -10 91 -10 91 131 c 0,2,3
 91 262 91 262 154 380 c 0,4,5
 184 437 184 437 233.5 473.5 c 128,-1,6
 283 510 283 510 342 510 c 0,7,8
 396 510 396 510 501 492 c 2,9,-1
 536 486 l 1,10,-1
 460 161 l 2,11,12
 446 105 446 105 436 27 c 1,13,-1
 432 1 l 1,14,-1
 374 -1 l 1,15,16
 389 92 389 92 393 113 c 1,17,18
 389 108 389 108 382.5 99.5 c 128,-1,19
 376 91 376 91 356.5 70 c 128,-1,20
 337 49 337 49 317 33 c 128,-1,21
 297 17 297 17 269 3.5 c 128,-1,22
 241 -10 241 -10 216 -10 c 0,0,1
467 442 m 1,23,24
 395 457 395 457 339.5 457 c 128,-1,25
 284 457 284 457 239 402 c 128,-1,26
 194 347 194 347 173.5 274.5 c 128,-1,27
 153 202 153 202 153 144.5 c 128,-1,28
 153 87 153 87 171.5 65 c 128,-1,29
 190 43 190 43 227 43 c 128,-1,30
 264 43 264 43 307 78 c 128,-1,31
 350 113 350 113 378 148 c 2,32,-1
 406 184 l 1,33,-1
 467 442 l 1,23,24
EndSplineSet
EndChar

StartChar: b
Encoding: 98 98 69
Width: 492
GlyphClass: 2
Flags: W
LayerCount: 2
Fore
SplineSet
386 510 m 0,0,1
 460 510 460 510 488 471 c 128,-1,2
 516 432 516 432 516 359 c 0,3,4
 516 271 516 271 480 176 c 0,5,6
 436 63 436 63 359 16 c 0,7,8
 315 -10 315 -10 272 -10 c 0,9,10
 195 -10 195 -10 102 8 c 2,11,-1
 71 14 l 1,12,-1
 235 722 l 1,13,-1
 295 722 l 1,14,-1
 226 427 l 1,15,16
 235 436 235 436 250.5 450 c 128,-1,17
 266 464 266 464 308 487 c 128,-1,18
 350 510 350 510 386 510 c 0,0,1
141 57 m 1,19,20
 216 43 216 43 264.5 43 c 128,-1,21
 313 43 313 43 353 80.5 c 128,-1,22
 393 118 393 118 414 172 c 0,23,24
 454 280 454 280 454 343 c 128,-1,25
 454 406 454 406 437.5 431 c 128,-1,26
 421 456 421 456 369 456 c 0,27,28
 339 456 339 456 299.5 432.5 c 128,-1,29
 260 409 260 409 236 386 c 2,30,-1
 211 362 l 1,31,-1
 141 57 l 1,19,20
EndSplineSet
EndChar

StartChar: c
Encoding: 99 99 70
Width: 404
GlyphClass: 2
Flags: W
LayerCount: 2
Fore
SplineSet
460 498 m 2,0,-1
 477 494 l 1,1,-1
 462 446 l 1,2,3
 400 457 400 457 356 457 c 0,4,5
 290 457 290 457 244 410 c 0,6,7
 156 322 156 322 156 147 c 0,8,9
 156 95 156 95 182 69 c 128,-1,10
 208 43 208 43 266 43 c 0,11,12
 301 43 301 43 360 55 c 2,13,-1
 379 59 l 1,14,-1
 376 11 l 1,15,16
 308 -10 308 -10 248 -10 c 0,17,18
 95 -10 95 -10 95 137 c 0,19,20
 95 288 95 288 158 395 c 0,21,22
 190 448 190 448 241.5 479 c 128,-1,23
 293 510 293 510 350 510 c 128,-1,24
 407 510 407 510 460 498 c 2,0,-1
EndSplineSet
EndChar

StartChar: d
Encoding: 100 100 71
Width: 493
GlyphClass: 2
Flags: W
LayerCount: 2
Fore
SplineSet
213 -10 m 0,0,1
 91 -10 91 -10 91 129 c 0,2,3
 91 217 91 217 119.5 302.5 c 128,-1,4
 148 388 148 388 206.5 448.5 c 128,-1,5
 265 509 265 509 340 509 c 0,6,7
 390 509 390 509 456 496 c 2,8,-1
 477 492 l 1,9,-1
 531 722 l 1,10,-1
 591 722 l 1,11,-1
 423 0 l 1,12,-1
 365 0 l 1,13,-1
 387 98 l 1,14,15
 336 30 336 30 267 2 c 0,16,17
 239 -10 239 -10 213 -10 c 0,0,1
466 442 m 1,18,19
 399 457 399 457 341 457 c 128,-1,20
 283 457 283 457 238.5 401.5 c 128,-1,21
 194 346 194 346 173.5 273 c 128,-1,22
 153 200 153 200 153 129 c 0,23,24
 153 43 153 43 231 43 c 0,25,26
 264 43 264 43 307 75 c 128,-1,27
 350 107 350 107 377 140 c 2,28,-1
 404 172 l 1,29,-1
 466 442 l 1,18,19
EndSplineSet
EndChar

StartChar: e
Encoding: 101 101 72
Width: 458
GlyphClass: 2
Flags: W
LayerCount: 2
Fore
SplineSet
181.5 70 m 128,-1,1
 209 44 209 44 249 44 c 0,2,3
 326 44 326 44 396 62 c 1,4,-1
 420 69 l 1,5,-1
 416 20 l 1,6,7
 329 -10 329 -10 250 -10 c 0,8,9
 93 -10 93 -10 93 138 c 0,10,11
 93 274 93 274 158 387 c 0,12,13
 189 442 189 442 242 475.5 c 128,-1,14
 295 509 295 509 362 509 c 0,15,16
 503 509 503 509 503 395 c 0,17,18
 503 307 503 307 435 271.5 c 128,-1,19
 367 236 367 236 222 236 c 2,20,-1
 166 236 l 1,21,22
 154 186 154 186 154 141 c 128,-1,0
 154 96 154 96 181.5 70 c 128,-1,1
234 285 m 2,23,24
 344 285 344 285 393.5 308.5 c 128,-1,25
 443 332 443 332 443 395 c 128,-1,26
 443 458 443 458 359 458 c 0,27,28
 228 458 228 458 175 285 c 1,29,-1
 234 285 l 2,23,24
EndSplineSet
EndChar

StartChar: f
Encoding: 102 102 73
Width: 305
GlyphClass: 2
Flags: W
LayerCount: 2
Fore
SplineSet
380 732 m 0,0,1
 412 732 412 732 450 723 c 2,2,-1
 462 720 l 1,3,-1
 450 673 l 1,4,5
 409 680 409 680 372 680 c 128,-1,6
 335 680 335 680 313 650 c 128,-1,7
 291 620 291 620 273 547 c 2,8,-1
 261 500 l 1,9,-1
 403 500 l 1,10,-1
 389 447 l 1,11,-1
 250 447 l 1,12,-1
 146 0 l 1,13,-1
 86 -225 l 1,14,-1
 34 -225 l 1,15,-1
 190 447 l 1,16,-1
 130 447 l 1,17,-1
 143 500 l 1,18,-1
 201 500 l 1,19,-1
 213 549 l 2,20,21
 237 650 237 650 274.5 691 c 128,-1,22
 312 732 312 732 380 732 c 0,0,1
EndSplineSet
EndChar

StartChar: g
Encoding: 103 103 74
Width: 464
GlyphClass: 2
Flags: W
LayerCount: 2
Fore
SplineSet
189 -237 m 0,0,1
 111 -237 111 -237 65.5 -201.5 c 128,-1,2
 20 -166 20 -166 20 -107 c 0,3,4
 20 -22 20 -22 155 50 c 1,5,6
 140 65 140 65 140 88 c 128,-1,7
 140 111 140 111 153 135.5 c 128,-1,8
 166 160 166 160 180 174 c 1,9,-1
 193 189 l 1,10,11
 124 220 124 220 124 301.5 c 128,-1,12
 124 383 124 383 178.5 446.5 c 128,-1,13
 233 510 233 510 324 510 c 0,14,15
 370 510 370 510 403 498 c 2,16,-1
 414 494 l 1,17,-1
 562 500 l 1,18,-1
 550 447 l 1,19,-1
 453 447 l 1,20,21
 472 418 472 418 472 374 c 0,22,23
 472 299 472 299 416.5 236 c 128,-1,24
 361 173 361 173 261 173 c 1,25,-1
 231 175 l 1,26,27
 196 131 196 131 196 107.5 c 128,-1,28
 196 84 196 84 214.5 76.5 c 128,-1,29
 233 69 233 69 302.5 60.5 c 128,-1,30
 372 52 372 52 406.5 26 c 128,-1,31
 441 0 441 0 441 -55 c 0,32,33
 441 -129 441 -129 372 -183 c 128,-1,34
 303 -237 303 -237 189 -237 c 0,0,1
111 -28 m 128,-1,36
 78 -60 78 -60 78 -97.5 c 128,-1,37
 78 -135 78 -135 108 -160 c 128,-1,38
 138 -185 138 -185 204.5 -185 c 128,-1,39
 271 -185 271 -185 326.5 -150 c 128,-1,40
 382 -115 382 -115 382 -59 c 0,41,42
 382 -25 382 -25 359 -10.5 c 128,-1,43
 336 4 336 4 273.5 11 c 128,-1,44
 211 18 211 18 189 27 c 1,45,35
 144 4 144 4 111 -28 c 128,-1,36
269 224 m 0,46,47
 339 224 339 224 377 271.5 c 128,-1,48
 415 319 415 319 415 366 c 128,-1,49
 415 413 415 413 393 435.5 c 128,-1,50
 371 458 371 458 314.5 458 c 128,-1,51
 258 458 258 458 220 410.5 c 128,-1,52
 182 363 182 363 182 310 c 0,53,54
 182 224 182 224 269 224 c 0,46,47
EndSplineSet
EndChar

StartChar: h
Encoding: 104 104 75
Width: 495
GlyphClass: 2
Flags: W
LayerCount: 2
Fore
SplineSet
393 510 m 0,0,1
 449 510 449 510 479 477 c 128,-1,2
 509 444 509 444 509 392.5 c 128,-1,3
 509 341 509 341 489 254 c 2,4,-1
 430 0 l 1,5,-1
 371 0 l 1,6,-1
 430 252 l 2,7,8
 448 329 448 329 448 377 c 0,9,10
 448 456 448 456 374 456 c 0,11,12
 341 456 341 456 299 424.5 c 128,-1,13
 257 393 257 393 231 362 c 2,14,-1
 205 330 l 1,15,-1
 129 0 l 1,16,-1
 69 0 l 1,17,-1
 236 722 l 1,18,-1
 296 722 l 1,19,-1
 222 402 l 1,20,21
 273 470 273 470 340 498 c 0,22,23
 368 510 368 510 393 510 c 0,0,1
EndSplineSet
EndChar

StartChar: i
Encoding: 105 105 76
Width: 197
GlyphClass: 2
Flags: W
LayerCount: 2
Fore
SplineSet
68 0 m 1,0,-1
 184 500 l 1,1,-1
 244 500 l 1,2,-1
 128 0 l 1,3,-1
 68 0 l 1,0,-1
210 616 m 1,4,-1
 229 696 l 1,5,-1
 289 696 l 1,6,-1
 271 616 l 1,7,-1
 210 616 l 1,4,-1
EndSplineSet
EndChar

StartChar: j
Encoding: 106 106 77
Width: 197
GlyphClass: 2
Flags: W
LayerCount: 2
Fore
SplineSet
68 0 m 2,0,-1
 184 500 l 1,1,-1
 244 500 l 1,2,-1
 128 0 l 2,3,4
 102 -113 102 -113 71.5 -149 c 128,-1,5
 41 -185 41 -185 -72 -237 c 1,6,-1
 -92 -188 l 1,7,8
 1 -141 1 -141 24.5 -113 c 128,-1,9
 48 -85 48 -85 68 0 c 2,0,-1
212 617 m 1,10,-1
 230 695 l 1,11,-1
 290 695 l 1,12,-1
 272 617 l 1,13,-1
 212 617 l 1,10,-1
EndSplineSet
EndChar

StartChar: k
Encoding: 107 107 78
Width: 440
GlyphClass: 2
Flags: W
LayerCount: 2
Fore
SplineSet
129 0 m 1,0,-1
 69 0 l 1,1,-1
 236 722 l 1,2,-1
 296 722 l 1,3,-1
 198 297 l 1,4,-1
 269 299 l 1,5,-1
 464 500 l 1,6,-1
 535 500 l 1,7,-1
 314 270 l 1,8,-1
 416 0 l 1,9,-1
 352 0 l 1,10,-1
 258 247 l 1,11,-1
 185 246 l 1,12,-1
 129 0 l 1,0,-1
EndSplineSet
EndChar

StartChar: l
Encoding: 108 108 79
Width: 207
GlyphClass: 2
Flags: W
LayerCount: 2
Fore
SplineSet
74 0 m 1,0,-1
 241 722 l 1,1,-1
 300 722 l 1,2,-1
 133 0 l 1,3,-1
 74 0 l 1,0,-1
EndSplineSet
EndChar

StartChar: m
Encoding: 109 109 80
Width: 774
GlyphClass: 2
Flags: W
LayerCount: 2
Fore
SplineSet
447 377 m 0,0,1
 447 456 447 456 373 456 c 0,2,3
 340 456 340 456 298 425 c 128,-1,4
 256 394 256 394 230 362 c 2,5,-1
 205 331 l 1,6,-1
 128 0 l 1,7,-1
 68 0 l 1,8,-1
 184 500 l 1,9,-1
 242 500 l 1,10,-1
 222 403 l 1,11,12
 273 471 273 471 340 498 c 1,13,14
 367 510 367 510 394.5 510 c 128,-1,15
 422 510 422 510 444 500.5 c 128,-1,16
 466 491 466 491 476 477 c 0,17,18
 498 449 498 449 503 416 c 1,19,20
 508 422 508 422 532.5 443.5 c 128,-1,21
 557 465 557 465 576 478 c 0,22,23
 625 510 625 510 677 510 c 128,-1,24
 729 510 729 510 759 477 c 128,-1,25
 789 444 789 444 789 395 c 128,-1,26
 789 346 789 346 769 254 c 1,27,-1
 710 0 l 1,28,-1
 650 0 l 1,29,-1
 709 252 l 2,30,31
 728 333 728 333 728 374 c 0,32,33
 728 456 728 456 654 456 c 0,34,35
 624 456 624 456 586.5 431.5 c 128,-1,36
 549 407 549 407 527 382 c 2,37,-1
 505 358 l 1,38,39
 503 315 503 315 488 254 c 2,40,-1
 429 0 l 1,41,-1
 369 0 l 1,42,-1
 428 252 l 2,43,44
 447 333 447 333 447 377 c 0,0,1
EndSplineSet
EndChar

StartChar: n
Encoding: 110 110 81
Width: 494
GlyphClass: 2
Flags: W
LayerCount: 2
Fore
SplineSet
392 510 m 0,0,1
 449 510 449 510 479 477 c 128,-1,2
 509 444 509 444 509 392 c 128,-1,3
 509 340 509 340 489 256 c 2,4,-1
 429 0 l 1,5,-1
 370 0 l 1,6,-1
 429 252 l 2,7,8
 448 333 448 333 448 377 c 0,9,10
 448 456 448 456 373 456 c 0,11,12
 340 456 340 456 298 425 c 128,-1,13
 256 394 256 394 230 362 c 2,14,-1
 205 331 l 1,15,-1
 128 0 l 1,16,-1
 68 0 l 1,17,-1
 184 500 l 1,18,-1
 242 500 l 1,19,-1
 221 403 l 1,20,21
 271 470 271 470 340 498 c 0,22,23
 367 510 367 510 392 510 c 0,0,1
EndSplineSet
EndChar

StartChar: o
Encoding: 111 111 82
Width: 494
GlyphClass: 2
Flags: W
LayerCount: 2
Fore
SplineSet
345 509 m 0,0,1
 513 509 513 509 513 344 c 0,2,3
 513 196 513 196 442.5 93 c 128,-1,4
 372 -10 372 -10 258 -10 c 0,5,6
 94 -10 94 -10 94 148 c 0,7,8
 94 297 94 297 165.5 403 c 128,-1,9
 237 509 237 509 345 509 c 0,0,1
258 43 m 0,10,11
 344 43 344 43 398 131.5 c 128,-1,12
 452 220 452 220 452 345 c 0,13,14
 452 396 452 396 425 426.5 c 128,-1,15
 398 457 398 457 345 457 c 0,16,17
 262 457 262 457 208 365 c 128,-1,18
 154 273 154 273 154 148 c 0,19,20
 154 43 154 43 258 43 c 0,10,11
EndSplineSet
EndChar

StartChar: p
Encoding: 112 112 83
Width: 492
GlyphClass: 2
Flags: W
LayerCount: 2
Fore
SplineSet
390 510 m 0,0,1
 516 510 516 510 516 368 c 0,2,3
 516 283 516 283 488.5 198.5 c 128,-1,4
 461 114 461 114 402 52 c 128,-1,5
 343 -10 343 -10 267 -10 c 0,6,7
 210 -10 210 -10 150 4 c 1,8,-1
 130 8 l 1,9,-1
 76 -225 l 1,10,-1
 17 -225 l 1,11,-1
 184 500 l 1,12,-1
 242 500 l 1,13,-1
 220 401 l 1,14,15
 229 413 229 413 251.5 435.5 c 128,-1,16
 274 458 274 458 293 472 c 0,17,18
 345 510 345 510 390 510 c 0,0,1
374 456 m 0,19,20
 343 456 343 456 300.5 424 c 128,-1,21
 258 392 258 392 231 360 c 2,22,-1
 204 327 l 1,23,-1
 141 58 l 1,24,25
 208 43 208 43 259.5 43 c 128,-1,26
 311 43 311 43 348 75.5 c 128,-1,27
 385 108 385 108 408 158 c 0,28,29
 455 264 455 264 455 366 c 0,30,31
 455 456 455 456 374 456 c 0,19,20
EndSplineSet
EndChar

StartChar: q
Encoding: 113 113 84
Width: 491
GlyphClass: 2
Flags: W
LayerCount: 2
Fore
SplineSet
216 -10 m 0,0,1
 153 -10 153 -10 121.5 26.5 c 128,-1,2
 90 63 90 63 90 139.5 c 128,-1,3
 90 216 90 216 118 301 c 128,-1,4
 146 386 146 386 205 447.5 c 128,-1,5
 264 509 264 509 339 509 c 0,6,7
 397 509 397 509 502 492 c 1,8,-1
 535 486 l 1,9,-1
 372 -218 l 1,10,-1
 313 -218 l 1,11,-1
 386 98 l 1,12,13
 334 29 334 29 268 2 c 0,14,15
 241 -10 241 -10 216 -10 c 0,0,1
465 442 m 1,16,17
 400 457 400 457 341.5 457 c 128,-1,18
 283 457 283 457 238.5 403 c 128,-1,19
 194 349 194 349 173 276 c 128,-1,20
 152 203 152 203 152 133 c 0,21,22
 152 43 152 43 233 43 c 0,23,24
 273 43 273 43 324 89 c 0,25,26
 373 133 373 133 392 158 c 2,27,-1
 403 172 l 1,28,-1
 465 442 l 1,16,17
EndSplineSet
EndChar

StartChar: r
Encoding: 114 114 85
Width: 311
GlyphClass: 2
Flags: W
LayerCount: 2
Fore
SplineSet
68 0 m 1,0,-1
 185 500 l 1,1,-1
 244 500 l 1,2,-1
 226 425 l 1,3,4
 322 491 322 491 413 510 c 1,5,-1
 398 449 l 1,6,7
 340 435 340 435 246 386 c 2,8,-1
 215 370 l 1,9,-1
 129 0 l 1,10,-1
 68 0 l 1,0,-1
EndSplineSet
EndChar

StartChar: s
Encoding: 115 115 86
Width: 428
GlyphClass: 2
Flags: W
LayerCount: 2
Fore
SplineSet
470 443 m 1,0,1
 377 457 377 457 317 457 c 128,-1,2
 257 457 257 457 222 425 c 128,-1,3
 187 393 187 393 187 348 c 0,4,5
 187 321 187 321 206.5 308 c 128,-1,6
 226 295 226 295 293.5 279 c 128,-1,7
 361 263 361 263 391.5 242 c 128,-1,8
 422 221 422 221 422 170 c 0,9,10
 422 83 422 83 361.5 36.5 c 128,-1,11
 301 -10 301 -10 207 -10 c 0,12,13
 138 -10 138 -10 74 6 c 1,14,-1
 52 11 l 1,15,-1
 63 59 l 1,16,17
 155 43 155 43 217 43 c 128,-1,18
 279 43 279 43 320 72 c 128,-1,19
 361 101 361 101 361 158 c 0,20,21
 361 190 361 190 340 202.5 c 128,-1,22
 319 215 319 215 253 230.5 c 128,-1,23
 187 246 187 246 157 267.5 c 128,-1,24
 127 289 127 289 127 335 c 0,25,26
 127 411 127 411 181.5 460 c 128,-1,27
 236 509 236 509 321 509 c 0,28,29
 387 509 387 509 459 496 c 1,30,-1
 483 491 l 1,31,-1
 470 443 l 1,0,1
EndSplineSet
EndChar

StartChar: t
Encoding: 116 116 87
Width: 315
GlyphClass: 2
Flags: W
LayerCount: 2
Fore
SplineSet
179 94 m 0,0,1
 179 43 179 43 234 43 c 1,2,-1
 314 49 l 1,3,-1
 310 2 l 1,4,5
 258 -10 258 -10 213.5 -10 c 128,-1,6
 169 -10 169 -10 142.5 14 c 128,-1,7
 116 38 116 38 116 78 c 128,-1,8
 116 118 116 118 133 186 c 1,9,-1
 194 447 l 1,10,-1
 126 447 l 1,11,-1
 139 500 l 1,12,-1
 207 500 l 1,13,-1
 244 653 l 1,14,-1
 304 653 l 1,15,-1
 266 500 l 1,16,-1
 415 500 l 1,17,-1
 402 447 l 1,18,-1
 254 447 l 1,19,-1
 192 183 l 2,20,21
 179 127 179 127 179 94 c 0,0,1
EndSplineSet
EndChar

StartChar: u
Encoding: 117 117 88
Width: 494
GlyphClass: 2
Flags: W
LayerCount: 2
Fore
SplineSet
217 -10 m 0,0,1
 161 -10 161 -10 130.5 23 c 128,-1,2
 100 56 100 56 100 108 c 128,-1,3
 100 160 100 160 120 244 c 2,4,-1
 180 500 l 1,5,-1
 239 500 l 1,6,-1
 180 248 l 2,7,8
 161 167 161 167 161 126 c 0,9,10
 161 44 161 44 236 44 c 0,11,12
 269 44 269 44 311 75 c 128,-1,13
 353 106 353 106 378 137 c 2,14,-1
 404 168 l 1,15,-1
 481 500 l 1,16,-1
 541 500 l 1,17,-1
 425 0 l 1,18,-1
 367 0 l 1,19,-1
 388 97 l 1,20,21
 338 30 338 30 270 2 c 0,22,23
 242 -10 242 -10 217 -10 c 0,0,1
EndSplineSet
EndChar

StartChar: v
Encoding: 118 118 89
Width: 452
GlyphClass: 2
Flags: W
LayerCount: 2
Fore
SplineSet
142 500 m 1,0,-1
 201 500 l 1,1,-1
 215 52 l 1,2,-1
 250 52 l 1,3,-1
 478 500 l 1,4,-1
 541 500 l 1,5,-1
 282 0 l 1,6,-1
 159 0 l 1,7,-1
 142 500 l 1,0,-1
EndSplineSet
EndChar

StartChar: w
Encoding: 119 119 90
Width: 723
GlyphClass: 2
Flags: W
LayerCount: 2
Fore
SplineSet
146 500 m 1,0,-1
 206 500 l 1,1,-1
 203 52 l 1,2,-1
 220 52 l 1,3,-1
 437 490 l 1,4,-1
 509 490 l 1,5,-1
 519 52 l 1,6,-1
 537 52 l 1,7,-1
 745 500 l 1,8,-1
 806 500 l 1,9,-1
 574 0 l 1,10,-1
 463 0 l 1,11,-1
 455 413 l 1,12,-1
 253 0 l 1,13,-1
 144 0 l 1,14,-1
 146 500 l 1,0,-1
EndSplineSet
EndChar

StartChar: x
Encoding: 120 120 91
Width: 416
GlyphClass: 2
Flags: W
LayerCount: 2
Fore
SplineSet
140 500 m 1,0,-1
 202 500 l 1,1,-1
 276 291 l 1,2,-1
 445 500 l 1,3,-1
 511 500 l 1,4,-1
 300 245 l 1,5,-1
 390 0 l 1,6,-1
 327 0 l 1,7,-1
 255 204 l 1,8,-1
 89 0 l 1,9,-1
 22 0 l 1,10,-1
 230 250 l 1,11,-1
 140 500 l 1,0,-1
EndSplineSet
EndChar

StartChar: y
Encoding: 121 121 92
Width: 452
GlyphClass: 2
Flags: W
LayerCount: 2
Fore
SplineSet
142 500 m 1,0,-1
 201 500 l 1,1,-1
 215 52 l 1,2,-1
 249 52 l 1,3,-1
 478 500 l 1,4,-1
 541 500 l 1,5,-1
 167 -224 l 1,6,-1
 106 -224 l 1,7,-1
 224 0 l 1,8,-1
 159 0 l 1,9,-1
 142 500 l 1,0,-1
EndSplineSet
EndChar

StartChar: z
Encoding: 122 122 93
Width: 418
GlyphClass: 2
Flags: W
LayerCount: 2
Fore
SplineSet
141 447 m 1,0,-1
 155 500 l 1,1,-1
 495 500 l 1,2,-1
 484 448 l 1,3,-1
 121 52 l 1,4,-1
 392 52 l 1,5,-1
 380 0 l 1,6,-1
 39 0 l 1,7,-1
 48 52 l 1,8,-1
 410 447 l 1,9,-1
 141 447 l 1,0,-1
EndSplineSet
EndChar

StartChar: braceleft
Encoding: 123 123 94
Width: 319
GlyphClass: 2
Flags: W
LayerCount: 2
Fore
SplineSet
221 223 m 0,0,1
 221 204 221 204 197 119.5 c 128,-1,2
 173 35 173 35 173 4 c 0,3,4
 173 -70 173 -70 269 -70 c 1,5,-1
 254 -126 l 1,6,7
 113 -122 113 -122 113 -13 c 0,8,9
 113 20 113 20 137 105.5 c 128,-1,10
 161 191 161 191 161 215 c 0,11,12
 161 264 161 264 88 288 c 1,13,-1
 100 338 l 1,14,15
 165 355 165 355 189 380.5 c 128,-1,16
 213 406 213 406 224 460 c 0,17,18
 227 473 227 473 232 504 c 0,19,20
 245 578 245 578 252 598 c 0,21,22
 277 677 277 677 324.5 712 c 128,-1,23
 372 747 372 747 461 751 c 1,24,-1
 451 696 l 1,25,26
 382 692 382 692 348 661.5 c 128,-1,27
 314 631 314 631 301 569 c 0,28,29
 301 567 301 567 292 516 c 128,-1,30
 283 465 283 465 279 451 c 0,31,32
 265 389 265 389 238.5 359 c 128,-1,33
 212 329 212 329 158 311 c 1,34,35
 221 286 221 286 221 223 c 0,0,1
EndSplineSet
Substitution2: "'case' Case-Sensitive Forms in Latin lookup 4 subtable" braceleft.cap
EndChar

StartChar: bar
Encoding: 124 124 95
Width: 306
GlyphClass: 2
Flags: W
LayerCount: 2
Fore
SplineSet
180 -225 m 1,0,-1
 180 722 l 1,1,-1
 240 722 l 1,2,-1
 240 -225 l 1,3,-1
 180 -225 l 1,0,-1
EndSplineSet
EndChar

StartChar: braceright
Encoding: 125 125 96
Width: 318
GlyphClass: 2
Flags: W
LayerCount: 2
Fore
SplineSet
241 400 m 0,0,1
 241 418 241 418 265 503 c 128,-1,2
 289 588 289 588 289 619 c 0,3,4
 289 693 289 693 193 693 c 1,5,-1
 208 749 l 1,6,7
 349 745 349 745 349 636 c 0,8,9
 349 603 349 603 325 517.5 c 128,-1,10
 301 432 301 432 301 408 c 0,11,12
 301 359 301 359 374 335 c 1,13,-1
 362 285 l 1,14,15
 297 268 297 268 273 242.5 c 128,-1,16
 249 217 249 217 238 163 c 0,17,18
 235 150 235 150 230 118 c 0,19,20
 217 45 217 45 210 25 c 0,21,22
 185 -54 185 -54 137.5 -89 c 128,-1,23
 90 -124 90 -124 1 -128 c 1,24,-1
 11 -73 l 1,25,26
 80 -69 80 -69 114 -38.5 c 128,-1,27
 148 -8 148 -8 161 54 c 0,28,29
 161 56 161 56 170 107 c 128,-1,30
 179 158 179 158 183 172 c 0,31,32
 197 234 197 234 223.5 264 c 128,-1,33
 250 294 250 294 304 312 c 1,34,35
 241 336 241 336 241 400 c 0,0,1
EndSplineSet
Substitution2: "'case' Case-Sensitive Forms in Latin lookup 4 subtable" braceright.cap
EndChar

StartChar: asciitilde
Encoding: 126 126 97
Width: 560
GlyphClass: 2
Flags: W
LayerCount: 2
Fore
SplineSet
441 201 m 0,0,1
 411 201 411 201 336.5 234 c 128,-1,2
 262 267 262 267 244 267 c 0,3,4
 210 267 210 267 156 230 c 2,5,-1
 139 218 l 1,6,-1
 128 269 l 1,7,8
 190 323 190 323 243 323 c 0,9,10
 272 323 272 323 346 290 c 128,-1,11
 420 257 420 257 438 257 c 0,12,13
 473 257 473 257 526 293 c 1,14,-1
 543 305 l 1,15,-1
 554 255 l 1,16,17
 494 201 494 201 441 201 c 0,0,1
EndSplineSet
EndChar

StartChar: exclamdown
Encoding: 161 161 99
Width: 182
GlyphClass: 2
Flags: W
LayerCount: 2
Fore
SplineSet
184 277 m 1,0,-1
 75 -200 l 1,1,-1
 15 -200 l 1,2,-1
 131 277 l 1,3,-1
 184 277 l 1,0,-1
234 500 m 1,4,-1
 211 400 l 1,5,-1
 150 400 l 1,6,-1
 173 500 l 1,7,-1
 234 500 l 1,4,-1
EndSplineSet
Substitution2: "'case' Case-Sensitive Forms in Latin lookup 4 subtable" exclamdown.cap
EndChar

StartChar: cent
Encoding: 162 162 100
Width: 560
GlyphClass: 2
Flags: W
LayerCount: 2
Fore
SplineSet
158 162 m 0,0,1
 158 199 158 199 170 248 c 0,2,3
 197 351 197 351 252.5 405 c 128,-1,4
 308 459 308 459 386 461 c 1,5,-1
 415 585 l 1,6,-1
 467 585 l 1,7,-1
 437 461 l 1,8,-1
 535 451 l 1,9,-1
 519 397 l 1,10,11
 435 405 435 405 399 405 c 0,12,13
 269 405 269 405 230 248 c 1,14,15
 219 196 219 196 219 165.5 c 128,-1,16
 219 135 219 135 244.5 115 c 128,-1,17
 270 95 270 95 326 95 c 1,18,-1
 454 102 l 1,19,-1
 442 49 l 1,20,21
 379 41 379 41 339 41 c 1,22,-1
 310 -82 l 1,23,-1
 258 -82 l 1,24,-1
 287 38 l 1,25,26
 158 40 158 40 158 162 c 0,0,1
EndSplineSet
EndChar

StartChar: sterling
Encoding: 163 163 101
Width: 560
GlyphClass: 2
Flags: W
LayerCount: 2
Fore
SplineSet
590 617 m 1,0,1
 519 625 519 625 482.5 625 c 128,-1,2
 446 625 446 625 430.5 620.5 c 128,-1,3
 415 616 415 616 403 603.5 c 128,-1,4
 391 591 391 591 383.5 581 c 128,-1,5
 376 571 376 571 368 547 c 0,6,7
 359 520 359 520 345 464 c 2,8,-1
 333 415 l 1,9,-1
 536 415 l 1,10,-1
 524 362 l 1,11,-1
 320 362 l 1,12,-1
 251 53 l 1,13,-1
 401 53 l 1,14,-1
 478 70 l 1,15,-1
 478 18 l 1,16,-1
 398 0 l 1,17,-1
 81 0 l 1,18,-1
 93 53 l 1,19,-1
 189 53 l 1,20,-1
 259 362 l 1,21,-1
 185 362 l 1,22,-1
 198 415 l 1,23,-1
 272 415 l 1,24,-1
 284 471 l 1,25,26
 310 581 310 581 348 630 c 128,-1,27
 386 679 386 679 471 679 c 0,28,29
 524 679 524 679 582 668 c 2,30,-1
 603 664 l 1,31,-1
 590 617 l 1,0,1
EndSplineSet
EndChar

StartChar: currency
Encoding: 164 164 102
Width: 560
GlyphClass: 2
Flags: W
LayerCount: 2
Fore
SplineSet
337 75 m 128,-1,1
 281 75 281 75 235 108 c 1,2,-1
 165 37 l 1,3,-1
 123 80 l 1,4,-1
 193 149 l 1,5,6
 160 195 160 195 160 251.5 c 128,-1,7
 160 308 160 308 193 354 c 1,8,-1
 123 424 l 1,9,-1
 165 467 l 1,10,-1
 235 396 l 1,11,12
 281 428 281 428 337 428 c 128,-1,13
 393 428 393 428 439 396 c 1,14,-1
 510 467 l 1,15,-1
 552 424 l 1,16,-1
 481 353 l 1,17,18
 513 307 513 307 513 251 c 128,-1,19
 513 195 513 195 481 150 c 1,20,-1
 552 80 l 1,21,-1
 510 37 l 1,22,-1
 439 108 l 1,23,0
 393 75 393 75 337 75 c 128,-1,1
338 133 m 128,-1,25
 388 133 388 133 422 167.5 c 128,-1,26
 456 202 456 202 456 251.5 c 128,-1,27
 456 301 456 301 422 335.5 c 128,-1,28
 388 370 388 370 338 370 c 128,-1,29
 288 370 288 370 253 336 c 128,-1,30
 218 302 218 302 218 252 c 128,-1,31
 218 202 218 202 253 167.5 c 128,-1,24
 288 133 288 133 338 133 c 128,-1,25
EndSplineSet
EndChar

StartChar: yen
Encoding: 165 165 103
Width: 560
GlyphClass: 2
Flags: W
LayerCount: 2
Fore
SplineSet
142 318 m 1,0,-1
 154 372 l 1,1,-1
 293 372 l 1,2,-1
 178 661 l 1,3,-1
 244 661 l 1,4,-1
 360 370 l 1,5,-1
 604 661 l 1,6,-1
 683 661 l 1,7,-1
 438 372 l 1,8,-1
 573 372 l 1,9,-1
 561 318 l 1,10,-1
 395 318 l 1,11,-1
 380 300 l 1,12,-1
 362 223 l 1,13,-1
 539 223 l 1,14,-1
 526 168 l 1,15,-1
 349 168 l 1,16,-1
 309 0 l 1,17,-1
 249 0 l 1,18,-1
 288 168 l 1,19,-1
 107 168 l 1,20,-1
 120 223 l 1,21,-1
 300 223 l 1,22,-1
 318 302 l 1,23,-1
 314 318 l 1,24,-1
 142 318 l 1,0,-1
EndSplineSet
EndChar

StartChar: brokenbar
Encoding: 166 166 104
Width: 313
GlyphClass: 2
Flags: W
LayerCount: 2
Fore
SplineSet
184 722 m 1,0,-1
 244 722 l 1,1,-1
 244 347 l 1,2,-1
 184 347 l 1,3,-1
 184 722 l 1,0,-1
184 152 m 1,4,-1
 244 152 l 1,5,-1
 244 -225 l 1,6,-1
 184 -225 l 1,7,-1
 184 152 l 1,4,-1
EndSplineSet
EndChar

StartChar: section
Encoding: 167 167 105
Width: 466
GlyphClass: 2
Flags: W
LayerCount: 2
Fore
SplineSet
382 597 m 0,0,1
 312 597 312 597 274.5 562.5 c 128,-1,2
 237 528 237 528 237 471 c 0,3,4
 237 434 237 434 261 420 c 128,-1,5
 285 406 285 406 348 395 c 0,6,7
 475 372 475 372 475 288 c 0,8,9
 475 217 475 217 399 122 c 1,10,11
 416 99 416 99 416 72.5 c 128,-1,12
 416 46 416 46 410.5 22.5 c 128,-1,13
 405 -1 405 -1 389.5 -30 c 128,-1,14
 374 -59 374 -59 351 -83 c 128,-1,15
 328 -107 328 -107 288 -123 c 128,-1,16
 248 -139 248 -139 210 -139 c 0,17,18
 144 -139 144 -139 64 -127 c 2,19,-1
 38 -123 l 1,20,-1
 55 -69 l 1,21,22
 157 -83 157 -83 215.5 -83 c 128,-1,23
 274 -83 274 -83 314 -41.5 c 128,-1,24
 354 0 354 0 354 47 c 0,25,26
 354 78 354 78 332.5 91.5 c 128,-1,27
 311 105 311 105 240 117.5 c 128,-1,28
 169 130 169 130 139 157.5 c 128,-1,29
 109 185 109 185 109 226 c 128,-1,30
 109 267 109 267 130 306 c 0,31,32
 160 362 160 362 194 389 c 1,33,34
 174 413 174 413 174 462 c 0,35,36
 174 537 174 537 232.5 595 c 128,-1,37
 291 653 291 653 393 653 c 0,38,39
 453 653 453 653 518 642 c 2,40,-1
 541 638 l 1,41,-1
 526 583 l 1,42,43
 427 597 427 597 382 597 c 0,0,1
171 244 m 128,-1,45
 171 217 171 217 192 201 c 128,-1,46
 213 185 213 185 272.5 174 c 128,-1,47
 332 163 332 163 359 148 c 1,48,49
 362 151 362 151 374.5 170 c 128,-1,50
 387 189 387 189 400.5 220.5 c 128,-1,51
 414 252 414 252 414 276 c 128,-1,52
 414 300 414 300 391.5 315.5 c 128,-1,53
 369 331 369 331 316 341 c 1,54,55
 246 352 246 352 231 365 c 1,56,57
 209 343 209 343 190 307 c 128,-1,44
 171 271 171 271 171 244 c 128,-1,45
EndSplineSet
EndChar

StartChar: dieresis
Encoding: 168 168 106
Width: 722
GlyphClass: 2
Flags: W
LayerCount: 2
Fore
SplineSet
249 625 m 1,0,-1
 268 707 l 1,1,-1
 317 707 l 1,2,-1
 298 625 l 1,3,-1
 249 625 l 1,0,-1
428 625 m 1,4,-1
 446 707 l 1,5,-1
 495 707 l 1,6,-1
 476 625 l 1,7,-1
 428 625 l 1,4,-1
EndSplineSet
EndChar

StartChar: copyright
Encoding: 169 169 107
Width: 645
GlyphClass: 2
Flags: W
LayerCount: 2
Fore
SplineSet
162 434 m 128,-1,1
 162 548 162 548 236 626 c 128,-1,2
 310 704 310 704 422.5 704 c 128,-1,3
 535 704 535 704 609 625.5 c 128,-1,4
 683 547 683 547 683 433 c 128,-1,5
 683 319 683 319 609.5 241.5 c 128,-1,6
 536 164 536 164 423 164 c 128,-1,7
 310 164 310 164 236 242 c 128,-1,0
 162 320 162 320 162 434 c 128,-1,1
202 434 m 128,-1,9
 202 338 202 338 265 270.5 c 128,-1,10
 328 203 328 203 422.5 203 c 128,-1,11
 517 203 517 203 580.5 270 c 128,-1,12
 644 337 644 337 644 433.5 c 128,-1,13
 644 530 644 530 580 597.5 c 128,-1,14
 516 665 516 665 422 665 c 128,-1,15
 328 665 328 665 265 597.5 c 128,-1,8
 202 530 202 530 202 434 c 128,-1,9
424 278 m 0,16,17
 361 278 361 278 336 316 c 128,-1,18
 311 354 311 354 311 433.5 c 128,-1,19
 311 513 311 513 336 551.5 c 128,-1,20
 361 590 361 590 425 590 c 0,21,22
 465 590 465 590 491 584 c 1,23,-1
 501 581 l 1,24,-1
 498 535 l 1,25,26
 459 542 459 542 422.5 542 c 128,-1,27
 386 542 386 542 373 517 c 128,-1,28
 360 492 360 492 360 435 c 128,-1,29
 360 378 360 378 374 352 c 128,-1,30
 388 326 388 326 427 326 c 1,31,-1
 498 333 l 1,32,-1
 501 288 l 1,33,34
 462 278 462 278 424 278 c 0,16,17
EndSplineSet
EndChar

StartChar: ordfeminine
Encoding: 170 170 108
Width: 348
GlyphClass: 2
Flags: W
LayerCount: 2
Fore
SplineSet
355 584 m 0,0,1
 355 613 355 613 316 613 c 1,2,-1
 204 606 l 1,3,-1
 210 646 l 1,4,5
 283 659 283 659 331 659 c 128,-1,6
 379 659 379 659 398 638 c 0,7,8
 411 624 411 624 411 604 c 128,-1,9
 411 584 411 584 406 564 c 2,10,-1
 374 426 l 1,11,12
 380 414 380 414 401 408 c 1,13,-1
 390 368 l 1,14,15
 360 368 360 368 347 373.5 c 128,-1,16
 334 379 334 379 324 392 c 1,17,18
 260 368 260 368 215 368 c 0,19,20
 144 368 144 368 144 427 c 0,21,22
 144 440 144 440 148 455 c 0,23,24
 158 496 158 496 182.5 515.5 c 128,-1,25
 207 535 207 535 255 538 c 2,26,-1
 347 544 l 1,27,-1
 353 566 l 2,28,29
 355 576 355 576 355 584 c 0,0,1
200 439 m 0,30,31
 200 413 200 413 229 413 c 0,32,33
 263 413 263 413 306 426 c 1,34,-1
 321 431 l 1,35,-1
 338 504 l 1,36,-1
 256 499 l 2,37,38
 212 496 212 496 202 455 c 0,39,40
 200 446 200 446 200 439 c 0,30,31
EndSplineSet
EndChar

StartChar: guillemotleft
Encoding: 171 171 109
Width: 437
GlyphClass: 2
Flags: W
LayerCount: 2
Fore
SplineSet
478 402 m 1,0,-1
 459 339 l 1,1,-1
 323 247 l 1,2,-1
 414 145 l 1,3,-1
 397 89 l 1,4,-1
 262 234 l 1,5,-1
 273 265 l 1,6,-1
 478 402 l 1,0,-1
303 402 m 1,7,-1
 284 339 l 1,8,-1
 148 247 l 1,9,-1
 239 145 l 1,10,-1
 222 89 l 1,11,-1
 87 234 l 1,12,-1
 98 265 l 1,13,-1
 303 402 l 1,7,-1
EndSplineSet
EndChar

StartChar: logicalnot
Encoding: 172 172 110
Width: 560
GlyphClass: 2
Flags: W
LayerCount: 2
Fore
SplineSet
126 338 m 1,0,-1
 551 338 l 1,1,-1
 551 120 l 1,2,-1
 494 120 l 1,3,-1
 494 283 l 1,4,-1
 126 283 l 1,5,-1
 126 338 l 1,0,-1
EndSplineSet
EndChar

StartChar: registered
Encoding: 174 174 111
Width: 645
GlyphClass: 2
Flags: W
LayerCount: 2
Fore
SplineSet
162 434 m 128,-1,1
 162 548 162 548 236 626 c 128,-1,2
 310 704 310 704 422.5 704 c 128,-1,3
 535 704 535 704 609 625.5 c 128,-1,4
 683 547 683 547 683 433 c 128,-1,5
 683 319 683 319 609.5 241.5 c 128,-1,6
 536 164 536 164 423 164 c 128,-1,7
 310 164 310 164 236 242 c 128,-1,0
 162 320 162 320 162 434 c 128,-1,1
202 434 m 128,-1,9
 202 338 202 338 265 270.5 c 128,-1,10
 328 203 328 203 422.5 203 c 128,-1,11
 517 203 517 203 580.5 270 c 128,-1,12
 644 337 644 337 644 433.5 c 128,-1,13
 644 530 644 530 580 597.5 c 128,-1,14
 516 665 516 665 422 665 c 128,-1,15
 328 665 328 665 265 597.5 c 128,-1,8
 202 530 202 530 202 434 c 128,-1,9
364 394 m 1,16,-1
 364 283 l 1,17,-1
 316 283 l 1,18,-1
 316 583 l 1,19,-1
 419 583 l 2,20,21
 477 583 477 583 505 562 c 128,-1,22
 533 541 533 541 533 490 c 0,23,24
 533 419 533 419 479 400 c 1,25,-1
 538 283 l 1,26,-1
 486 283 l 1,27,-1
 432 394 l 1,28,-1
 364 394 l 1,16,-1
363 542 m 1,29,-1
 363 435 l 1,30,-1
 430 435 l 2,31,32
 460 435 460 435 472.5 447 c 128,-1,33
 485 459 485 459 485 488.5 c 128,-1,34
 485 518 485 518 468.5 530 c 128,-1,35
 452 542 452 542 417 542 c 2,36,-1
 363 542 l 1,29,-1
EndSplineSet
EndChar

StartChar: macron
Encoding: 175 175 112
Width: 433
GlyphClass: 2
Flags: W
LayerCount: 2
Fore
SplineSet
232 642 m 1,0,-1
 243 689 l 1,1,-1
 510 689 l 1,2,-1
 498 642 l 1,3,-1
 232 642 l 1,0,-1
EndSplineSet
EndChar

StartChar: degree
Encoding: 176 176 113
Width: 560
GlyphClass: 2
Flags: W
LayerCount: 2
Fore
SplineSet
270 565 m 128,-1,1
 270 627 270 627 308.5 666 c 128,-1,2
 347 705 347 705 409 705 c 128,-1,3
 471 705 471 705 510 666 c 128,-1,4
 549 627 549 627 549 565 c 128,-1,5
 549 503 549 503 510 465 c 128,-1,6
 471 427 471 427 409 427 c 128,-1,7
 347 427 347 427 308.5 465 c 128,-1,0
 270 503 270 503 270 565 c 128,-1,1
340 635.5 m 128,-1,9
 314 609 314 609 314 565.5 c 128,-1,10
 314 522 314 522 340 495.5 c 128,-1,11
 366 469 366 469 409.5 469 c 128,-1,12
 453 469 453 469 480 495.5 c 128,-1,13
 507 522 507 522 507 565 c 128,-1,14
 507 608 507 608 480 635 c 128,-1,15
 453 662 453 662 409.5 662 c 128,-1,8
 366 662 366 662 340 635.5 c 128,-1,9
EndSplineSet
EndChar

StartChar: plusminus
Encoding: 177 177 114
Width: 560
GlyphClass: 2
Flags: W
LayerCount: 2
Fore
SplineSet
103 298 m 1,0,-1
 103 354 l 1,1,-1
 297 354 l 1,2,-1
 297 484 l 1,3,-1
 354 484 l 1,4,-1
 354 354 l 1,5,-1
 550 354 l 1,6,-1
 550 298 l 1,7,-1
 354 298 l 1,8,-1
 354 165 l 1,9,-1
 297 165 l 1,10,-1
 297 298 l 1,11,-1
 103 298 l 1,0,-1
103 98 m 1,12,-1
 550 98 l 1,13,-1
 550 42 l 1,14,-1
 103 42 l 1,15,-1
 103 98 l 1,12,-1
EndSplineSet
EndChar

StartChar: twosuperior
Encoding: 178 178 115
Width: 280
GlyphClass: 2
Flags: W
LayerCount: 2
Fore
SplineSet
346 720 m 0,0,1
 346 748 346 748 302 748 c 0,2,3
 275 748 275 748 228 740 c 1,4,-1
 213 738 l 1,5,-1
 223 787 l 1,6,7
 283 799 283 799 325 799 c 0,8,9
 404 799 404 799 404 741 c 0,10,11
 404 669 404 669 308 595 c 1,12,-1
 225 527 l 1,13,-1
 359 527 l 1,14,-1
 347 478 l 1,15,-1
 143 478 l 1,16,-1
 155 526 l 1,17,-1
 270 619 l 2,18,19
 304 646 304 646 321.5 665 c 128,-1,20
 339 684 339 684 342.5 699 c 128,-1,21
 346 714 346 714 346 720 c 0,0,1
EndSplineSet
Substitution2: "Single Substitution lookup 5 subtable" twoinferior
EndChar

StartChar: threesuperior
Encoding: 179 179 116
Width: 280
GlyphClass: 2
Flags: W
LayerCount: 2
Fore
SplineSet
345 641 m 1,0,1
 382 629 382 629 382 598 c 0,2,3
 382 584 382 584 377 564 c 0,4,5
 354 468 354 468 248 468 c 0,6,7
 211 468 211 468 157 476 c 1,8,-1
 141 479 l 1,9,-1
 156 526 l 1,10,11
 210 518 210 518 260 518 c 128,-1,12
 310 518 310 518 322 565 c 0,13,14
 325 575 325 575 325 583 c 0,15,16
 325 614 325 614 283 614 c 2,17,-1
 218 614 l 1,18,-1
 229 661 l 1,19,-1
 294 661 l 2,20,21
 310 661 310 661 327.5 676 c 128,-1,22
 345 691 345 691 350 711 c 128,-1,23
 355 731 355 731 345.5 740.5 c 128,-1,24
 336 750 336 750 312 750 c 0,25,26
 270 750 270 750 228 744 c 2,27,-1
 214 742 l 1,28,-1
 222 789 l 1,29,30
 282 799 282 799 325 799 c 0,31,32
 410 799 410 799 410 743 c 0,33,34
 410 708 410 708 386 674 c 0,35,36
 371 654 371 654 345 641 c 1,0,1
EndSplineSet
Substitution2: "Single Substitution lookup 5 subtable" threeinferior
EndChar

StartChar: acute
Encoding: 180 180 117
Width: 542
GlyphClass: 2
Flags: W
LayerCount: 2
Fore
SplineSet
285 601 m 1,0,-1
 279 647 l 1,1,-1
 497 741 l 1,2,-1
 504 688 l 1,3,-1
 285 601 l 1,0,-1
EndSplineSet
EndChar

StartChar: mu
Encoding: 181 181 118
Width: 560
GlyphClass: 2
Flags: W
LayerCount: 2
Fore
SplineSet
204 200 m 1,0,1
 196 158 196 158 196 121.5 c 128,-1,2
 196 85 196 85 215.5 64.5 c 128,-1,3
 235 44 235 44 269.5 44 c 128,-1,4
 304 44 304 44 346 75 c 128,-1,5
 388 106 388 106 414 137 c 2,6,-1
 439 168 l 1,7,-1
 516 500 l 1,8,-1
 576 500 l 1,9,-1
 460 0 l 1,10,-1
 402 0 l 1,11,-1
 423 97 l 1,12,13
 373 30 373 30 304 2 c 0,14,15
 277 -10 277 -10 252 -10 c 0,16,17
 195 -10 195 -10 164 24 c 1,18,-1
 106 -225 l 1,19,-1
 46 -225 l 1,20,-1
 215 500 l 1,21,-1
 274 500 l 1,22,-1
 221 275 l 1,23,-1
 222 275 l 1,24,-1
 204 200 l 1,0,1
EndSplineSet
EndChar

StartChar: paragraph
Encoding: 182 182 119
Width: 554
GlyphClass: 2
Flags: W
LayerCount: 2
Fore
SplineSet
147 476 m 0,0,1
 147 559 147 559 211 629.5 c 128,-1,2
 275 700 275 700 369 700 c 2,3,-1
 679 700 l 1,4,-1
 668 646 l 1,5,-1
 590 646 l 1,6,-1
 436 0 l 1,7,-1
 384 0 l 1,8,-1
 538 646 l 1,9,-1
 416 646 l 1,10,-1
 261 0 l 1,11,-1
 209 0 l 1,12,-1
 291 338 l 1,13,14
 218 339 218 339 182.5 378 c 128,-1,15
 147 417 147 417 147 476 c 0,0,1
EndSplineSet
EndChar

StartChar: periodcentered
Encoding: 183 183 120
Width: 174
GlyphClass: 2
Flags: W
LayerCount: 2
Fore
SplineSet
114 254 m 1,0,-1
 137 359 l 1,1,-1
 200 359 l 1,2,-1
 177 254 l 1,3,-1
 114 254 l 1,0,-1
EndSplineSet
Substitution2: "'case' Case-Sensitive Forms in Latin lookup 4 subtable" periodcentered.cap
EndChar

StartChar: cedilla
Encoding: 184 184 121
Width: 791
GlyphClass: 2
Flags: W
LayerCount: 2
Fore
SplineSet
419 -48 m 2,0,1
 502 -48 502 -48 502 -102 c 0,2,3
 502 -112 502 -112 499 -124 c 0,4,5
 480 -207 480 -207 395 -207 c 1,6,-1
 317 -201 l 1,7,-1
 328 -157 l 1,8,9
 367 -161 367 -161 395 -161 c 0,10,11
 437 -161 437 -161 447 -122 c 0,12,13
 448 -116 448 -116 448 -111 c 0,14,15
 448 -86 448 -86 413 -86 c 2,16,-1
 369 -86 l 1,17,-1
 391 5 l 1,18,-1
 428 5 l 1,19,-1
 414 -48 l 1,20,-1
 419 -48 l 2,0,1
EndSplineSet
EndChar

StartChar: onesuperior
Encoding: 185 185 122
Width: 280
GlyphClass: 2
Flags: W
LayerCount: 2
Fore
SplineSet
205 721 m 1,0,-1
 323 790 l 1,1,-1
 374 790 l 1,2,-1
 297 478 l 1,3,-1
 243 478 l 1,4,-1
 306 731 l 1,5,-1
 220 681 l 1,6,-1
 205 721 l 1,0,-1
EndSplineSet
Substitution2: "Single Substitution lookup 5 subtable" oneinferior
EndChar

StartChar: ordmasculine
Encoding: 186 186 123
Width: 340
GlyphClass: 2
Flags: W
LayerCount: 2
Fore
SplineSet
321 658 m 0,0,1
 415 658 415 658 419 583 c 0,2,3
 419 578 419 578 419 562 c 128,-1,4
 419 546 419 546 412 510 c 1,5,6
 395 435 395 435 357 400.5 c 128,-1,7
 319 366 319 366 262 366 c 0,8,9
 155 366 155 366 155 456 c 0,10,11
 155 481 155 481 163 515 c 0,12,13
 182 592 182 592 219 625 c 128,-1,14
 256 658 256 658 321 658 c 0,0,1
264 417 m 0,15,16
 302 417 302 417 323.5 438.5 c 128,-1,17
 345 460 345 460 354 499 c 128,-1,18
 363 538 363 538 363 562.5 c 128,-1,19
 363 587 363 587 350.5 597.5 c 128,-1,20
 338 608 338 608 305.5 608 c 128,-1,21
 273 608 273 608 251.5 587 c 128,-1,22
 230 566 230 566 220 525 c 128,-1,23
 210 484 210 484 210 466 c 0,24,25
 210 417 210 417 264 417 c 0,15,16
EndSplineSet
EndChar

StartChar: guillemotright
Encoding: 187 187 124
Width: 481
GlyphClass: 2
Flags: W
LayerCount: 2
Fore
SplineSet
292 89 m 1,0,-1
 311 152 l 1,1,-1
 447 244 l 1,2,-1
 356 346 l 1,3,-1
 373 402 l 1,4,-1
 508 257 l 1,5,-1
 497 226 l 1,6,-1
 292 89 l 1,0,-1
73 89 m 1,7,-1
 92 152 l 1,8,-1
 228 244 l 1,9,-1
 137 346 l 1,10,-1
 154 402 l 1,11,-1
 289 257 l 1,12,-1
 278 226 l 1,13,-1
 73 89 l 1,7,-1
EndSplineSet
EndChar

StartChar: onequarter
Encoding: 188 188 125
Width: 584
GlyphClass: 2
Flags: W
LayerCount: 2
Fore
SplineSet
182 721 m 1,0,-1
 300 790 l 1,1,-1
 351 790 l 1,2,-1
 274 478 l 1,3,-1
 220 478 l 1,4,-1
 283 731 l 1,5,-1
 197 681 l 1,6,-1
 182 721 l 1,0,-1
165 -7 m 1,7,-1
 109 14 l 1,8,-1
 535 704 l 1,9,-1
 592 683 l 1,10,-1
 165 -7 l 1,7,-1
476 0 m 1,11,-1
 488 51 l 1,12,-1
 345 51 l 1,13,-1
 357 97 l 1,14,-1
 487 312 l 1,15,-1
 546 312 l 1,16,-1
 416 101 l 1,17,-1
 500 101 l 1,18,-1
 526 188 l 1,19,-1
 576 188 l 1,20,-1
 554 101 l 1,21,-1
 584 101 l 1,22,-1
 572 51 l 1,23,-1
 542 51 l 1,24,-1
 529 0 l 1,25,-1
 476 0 l 1,11,-1
EndSplineSet
EndChar

StartChar: onehalf
Encoding: 189 189 126
Width: 609
GlyphClass: 2
Flags: W
LayerCount: 2
Fore
SplineSet
182 721 m 1,0,-1
 300 790 l 1,1,-1
 351 790 l 1,2,-1
 274 478 l 1,3,-1
 220 478 l 1,4,-1
 283 731 l 1,5,-1
 197 681 l 1,6,-1
 182 721 l 1,0,-1
165 -7 m 1,7,-1
 109 14 l 1,8,-1
 535 704 l 1,9,-1
 592 683 l 1,10,-1
 165 -7 l 1,7,-1
575 242 m 0,11,12
 575 270 575 270 531 270 c 0,13,14
 504 270 504 270 458 262 c 1,15,-1
 442 260 l 1,16,-1
 452 309 l 1,17,18
 512 321 512 321 554 321 c 0,19,20
 633 321 633 321 633 263 c 0,21,22
 633 191 633 191 537 117 c 1,23,-1
 454 49 l 1,24,-1
 588 49 l 1,25,-1
 576 0 l 1,26,-1
 372 0 l 1,27,-1
 384 48 l 1,28,-1
 499 141 l 2,29,30
 533 168 533 168 550.5 187 c 128,-1,31
 568 206 568 206 571.5 221 c 128,-1,32
 575 236 575 236 575 242 c 0,11,12
EndSplineSet
EndChar

StartChar: threequarters
Encoding: 190 190 127
Width: 603
GlyphClass: 2
Flags: W
LayerCount: 2
Fore
SplineSet
345 641 m 1,0,1
 382 629 382 629 382 598 c 0,2,3
 382 584 382 584 377 564 c 0,4,5
 354 468 354 468 248 468 c 0,6,7
 211 468 211 468 157 476 c 1,8,-1
 141 479 l 1,9,-1
 156 526 l 1,10,11
 210 518 210 518 260 518 c 128,-1,12
 310 518 310 518 322 565 c 0,13,14
 325 575 325 575 325 583 c 0,15,16
 325 614 325 614 283 614 c 2,17,-1
 218 614 l 1,18,-1
 229 661 l 1,19,-1
 294 661 l 2,20,21
 310 661 310 661 327.5 676 c 128,-1,22
 345 691 345 691 350 711 c 128,-1,23
 355 731 355 731 345.5 740.5 c 128,-1,24
 336 750 336 750 312 750 c 0,25,26
 270 750 270 750 228 744 c 2,27,-1
 214 742 l 1,28,-1
 222 789 l 1,29,30
 282 799 282 799 325 799 c 0,31,32
 410 799 410 799 410 743 c 0,33,34
 410 708 410 708 386 674 c 0,35,36
 371 654 371 654 345 641 c 1,0,1
186 -7 m 1,37,-1
 130 14 l 1,38,-1
 556 704 l 1,39,-1
 613 683 l 1,40,-1
 186 -7 l 1,37,-1
497 0 m 1,41,-1
 509 51 l 1,42,-1
 366 51 l 1,43,-1
 378 97 l 1,44,-1
 508 312 l 1,45,-1
 567 312 l 1,46,-1
 437 101 l 1,47,-1
 521 101 l 1,48,-1
 547 188 l 1,49,-1
 597 188 l 1,50,-1
 575 101 l 1,51,-1
 605 101 l 1,52,-1
 593 51 l 1,53,-1
 563 51 l 1,54,-1
 550 0 l 1,55,-1
 497 0 l 1,41,-1
EndSplineSet
EndChar

StartChar: questiondown
Encoding: 191 191 128
Width: 401
GlyphClass: 2
Flags: W
LayerCount: 2
Fore
SplineSet
66 -173.5 m 128,-1,1
 23 -143 23 -143 23 -86 c 128,-1,2
 23 -29 23 -29 39.5 7.5 c 128,-1,3
 56 44 56 44 87 74 c 128,-1,4
 118 104 118 104 190 161 c 0,5,6
 261 218 261 218 272 269 c 2,7,-1
 280 308 l 1,8,-1
 337 308 l 1,9,10
 335 279 335 279 330 253 c 0,11,12
 317 187 317 187 227 118 c 1,13,14
 142 50 142 50 114.5 14 c 128,-1,15
 87 -22 87 -22 87 -76 c 0,16,17
 87 -148 87 -148 195 -148 c 0,18,19
 242 -148 242 -148 316 -134 c 1,20,-1
 339 -129 l 1,21,-1
 336 -179 l 1,22,23
 248 -204 248 -204 178.5 -204 c 128,-1,0
 109 -204 109 -204 66 -173.5 c 128,-1,1
376 500 m 1,24,-1
 354 397 l 1,25,-1
 292 397 l 1,26,-1
 315 500 l 1,27,-1
 376 500 l 1,24,-1
EndSplineSet
Substitution2: "'case' Case-Sensitive Forms in Latin lookup 4 subtable" questiondown.cap
EndChar

StartChar: Agrave
Encoding: 192 192 129
Width: 555
GlyphClass: 2
Flags: W
LayerCount: 2
Fore
SplineSet
358 925 m 1,0,-1
 533 830 l 1,1,-1
 507 787 l 1,2,-1
 329 875 l 1,3,-1
 358 925 l 1,0,-1
27 0 m 1,4,-1
 382 695 l 1,5,-1
 508 695 l 1,6,-1
 531 0 l 1,7,-1
 470 0 l 1,8,-1
 462 191 l 1,9,-1
 188 191 l 1,10,-1
 89 0 l 1,11,-1
 27 0 l 1,4,-1
417 640 m 1,12,-1
 215 245 l 1,13,-1
 462 245 l 1,14,-1
 449 640 l 1,15,-1
 417 640 l 1,12,-1
EndSplineSet
Position2: "'cpsp' Capital Spacing in Latin lookup 0 subtable" dx=5 dy=0 dh=10 dv=0
EndChar

StartChar: Aacute
Encoding: 193 193 130
Width: 555
GlyphClass: 2
Flags: W
LayerCount: 2
Fore
SplineSet
396 790 m 1,0,-1
 388 835 l 1,1,-1
 607 930 l 1,2,-1
 616 878 l 1,3,-1
 396 790 l 1,0,-1
27 0 m 1,4,-1
 382 695 l 1,5,-1
 508 695 l 1,6,-1
 531 0 l 1,7,-1
 470 0 l 1,8,-1
 462 191 l 1,9,-1
 188 191 l 1,10,-1
 89 0 l 1,11,-1
 27 0 l 1,4,-1
417 640 m 1,12,-1
 215 245 l 1,13,-1
 462 245 l 1,14,-1
 449 640 l 1,15,-1
 417 640 l 1,12,-1
EndSplineSet
Position2: "'cpsp' Capital Spacing in Latin lookup 0 subtable" dx=5 dy=0 dh=10 dv=0
EndChar

StartChar: Acircumflex
Encoding: 194 194 131
Width: 555
GlyphClass: 2
Flags: W
LayerCount: 2
Fore
SplineSet
311 797 m 1,0,-1
 472 931 l 1,1,-1
 502 931 l 1,2,-1
 599 797 l 1,3,-1
 543 797 l 1,4,-1
 482 883 l 1,5,-1
 377 797 l 1,6,-1
 311 797 l 1,0,-1
27 0 m 1,7,-1
 382 695 l 1,8,-1
 508 695 l 1,9,-1
 531 0 l 1,10,-1
 470 0 l 1,11,-1
 462 191 l 1,12,-1
 188 191 l 1,13,-1
 89 0 l 1,14,-1
 27 0 l 1,7,-1
417 640 m 1,15,-1
 215 245 l 1,16,-1
 462 245 l 1,17,-1
 449 640 l 1,18,-1
 417 640 l 1,15,-1
EndSplineSet
Position2: "'cpsp' Capital Spacing in Latin lookup 0 subtable" dx=5 dy=0 dh=10 dv=0
EndChar

StartChar: Atilde
Encoding: 195 195 132
Width: 555
GlyphClass: 2
Flags: W
LayerCount: 2
Fore
SplineSet
533 809 m 0,0,1
 510 809 510 809 459 838.5 c 128,-1,2
 408 868 408 868 396 868 c 0,3,4
 377 868 377 868 324 830 c 2,5,-1
 306 817 l 1,6,-1
 304 861 l 1,7,8
 371 920 371 920 401.5 920 c 128,-1,9
 432 920 432 920 482 891 c 128,-1,10
 532 862 532 862 542 862 c 0,11,12
 562 862 562 862 610 898 c 2,13,-1
 626 910 l 1,14,-1
 629 868 l 1,15,16
 566 809 566 809 533 809 c 0,0,1
27 0 m 1,17,-1
 382 695 l 1,18,-1
 508 695 l 1,19,-1
 531 0 l 1,20,-1
 470 0 l 1,21,-1
 462 191 l 1,22,-1
 188 191 l 1,23,-1
 89 0 l 1,24,-1
 27 0 l 1,17,-1
417 640 m 1,25,-1
 215 245 l 1,26,-1
 462 245 l 1,27,-1
 449 640 l 1,28,-1
 417 640 l 1,25,-1
EndSplineSet
Position2: "'cpsp' Capital Spacing in Latin lookup 0 subtable" dx=5 dy=0 dh=10 dv=0
EndChar

StartChar: Adieresis
Encoding: 196 196 133
Width: 555
GlyphClass: 2
Flags: W
LayerCount: 2
Fore
SplineSet
349 820 m 1,0,-1
 367 903 l 1,1,-1
 417 903 l 1,2,-1
 397 820 l 1,3,-1
 349 820 l 1,0,-1
533 820 m 1,4,-1
 553 903 l 1,5,-1
 602 903 l 1,6,-1
 582 820 l 1,7,-1
 533 820 l 1,4,-1
27 0 m 1,8,-1
 382 695 l 1,9,-1
 508 695 l 1,10,-1
 531 0 l 1,11,-1
 470 0 l 1,12,-1
 462 191 l 1,13,-1
 188 191 l 1,14,-1
 89 0 l 1,15,-1
 27 0 l 1,8,-1
417 640 m 1,16,-1
 215 245 l 1,17,-1
 462 245 l 1,18,-1
 449 640 l 1,19,-1
 417 640 l 1,16,-1
EndSplineSet
Position2: "'cpsp' Capital Spacing in Latin lookup 0 subtable" dx=5 dy=0 dh=10 dv=0
EndChar

StartChar: Aring
Encoding: 197 197 134
Width: 555
GlyphClass: 2
Flags: W
LayerCount: 2
Fore
SplineSet
370 671 m 1,0,1
 354 688 354 688 354 708 c 128,-1,2
 354 728 354 728 359 745 c 0,3,4
 372 792 372 792 403.5 816.5 c 128,-1,5
 435 841 435 841 479.5 841 c 128,-1,6
 524 841 524 841 545 817 c 0,7,8
 558 802 558 802 558 782 c 0,9,10
 558 710 558 710 508 673 c 1,11,-1
 531 0 l 1,12,-1
 470 0 l 1,13,-1
 462 191 l 1,14,-1
 188 191 l 1,15,-1
 89 0 l 1,16,-1
 27 0 l 1,17,-1
 370 671 l 1,0,1
417 640 m 1,18,-1
 215 245 l 1,19,-1
 462 245 l 1,20,-1
 449 640 l 1,21,-1
 417 640 l 1,18,-1
398 728 m 0,22,23
 398 702 398 702 425 695 c 1,24,-1
 463 695 l 1,25,26
 502 704 502 704 513 745 c 0,27,28
 514 752 514 752 514 763 c 128,-1,29
 514 774 514 774 504 786 c 128,-1,30
 494 798 494 798 469 798 c 0,31,32
 412 798 412 798 400 745 c 0,33,34
 398 736 398 736 398 728 c 0,22,23
EndSplineSet
Position2: "'cpsp' Capital Spacing in Latin lookup 0 subtable" dx=5 dy=0 dh=10 dv=0
EndChar

StartChar: AE
Encoding: 198 198 135
Width: 786
GlyphClass: 2
Flags: W
LayerCount: 2
Fore
SplineSet
357 0 m 1,0,-1
 401 191 l 1,1,-1
 185 191 l 1,2,-1
 86 0 l 1,3,-1
 27 0 l 1,4,-1
 382 697 l 1,5,-1
 905 697 l 1,6,-1
 893 640 l 1,7,-1
 567 642 l 1,8,-1
 504 382 l 1,9,-1
 774 382 l 1,10,-1
 762 326 l 1,11,-1
 492 326 l 1,12,-1
 428 57 l 1,13,-1
 753 57 l 1,14,-1
 741 0 l 1,15,-1
 357 0 l 1,0,-1
412 640 m 1,16,-1
 212 247 l 1,17,-1
 414 247 l 1,18,-1
 509 640 l 1,19,-1
 412 640 l 1,16,-1
EndSplineSet
Position2: "'cpsp' Capital Spacing in Latin lookup 0 subtable" dx=5 dy=0 dh=10 dv=0
EndChar

StartChar: Ccedilla
Encoding: 199 199 136
Width: 506
GlyphClass: 2
Flags: W
LayerCount: 2
Fore
SplineSet
297 -48 m 2,0,1
 380 -48 380 -48 380 -102 c 0,2,3
 380 -112 380 -112 377 -124 c 0,4,5
 358 -207 358 -207 273 -207 c 1,6,-1
 195 -201 l 1,7,-1
 206 -157 l 1,8,9
 245 -161 245 -161 273 -161 c 0,10,11
 315 -161 315 -161 325 -122 c 0,12,13
 326 -116 326 -116 326 -111 c 0,14,15
 326 -86 326 -86 291 -86 c 2,16,-1
 247 -86 l 1,17,-1
 266 -7 l 1,18,19
 115 12 115 12 115 189 c 0,20,21
 115 331 115 331 168 462 c 0,22,23
 196 531 196 531 235.5 584.5 c 128,-1,24
 275 638 275 638 334.5 671.5 c 128,-1,25
 394 705 394 705 464 705 c 0,26,27
 533 705 533 705 605 688 c 1,28,-1
 629 683 l 1,29,-1
 615 633 l 1,30,31
 534 649 534 649 463.5 649 c 128,-1,32
 393 649 393 649 338 605.5 c 128,-1,33
 283 562 283 562 250 493 c 0,34,35
 179 348 179 348 179 191 c 0,36,37
 179 117 179 117 211.5 81.5 c 128,-1,38
 244 46 244 46 314 46 c 0,39,40
 389 46 389 46 453 58 c 1,41,-1
 476 63 l 1,42,-1
 473 12 l 1,43,44
 384 -10 384 -10 305 -10 c 2,45,-1
 302 -10 l 1,46,-1
 292 -48 l 1,47,-1
 297 -48 l 2,0,1
EndSplineSet
Position2: "'cpsp' Capital Spacing in Latin lookup 0 subtable" dx=5 dy=0 dh=10 dv=0
EndChar

StartChar: Egrave
Encoding: 200 200 137
Width: 507
GlyphClass: 2
Flags: W
LayerCount: 2
Fore
SplineSet
377 925 m 1,0,-1
 552 830 l 1,1,-1
 526 787 l 1,2,-1
 348 875 l 1,3,-1
 377 925 l 1,0,-1
81 0 m 1,4,-1
 241 695 l 1,5,-1
 624 695 l 1,6,-1
 611 640 l 1,7,-1
 290 640 l 1,8,-1
 230 382 l 1,9,-1
 496 382 l 1,10,-1
 483 327 l 1,11,-1
 218 327 l 1,12,-1
 155 55 l 1,13,-1
 476 55 l 1,14,-1
 463 0 l 1,15,-1
 81 0 l 1,4,-1
EndSplineSet
Position2: "'cpsp' Capital Spacing in Latin lookup 0 subtable" dx=5 dy=0 dh=10 dv=0
EndChar

StartChar: Eacute
Encoding: 201 201 138
Width: 507
GlyphClass: 2
Flags: W
LayerCount: 2
Fore
SplineSet
383 790 m 1,0,-1
 375 835 l 1,1,-1
 594 930 l 1,2,-1
 603 878 l 1,3,-1
 383 790 l 1,0,-1
81 0 m 1,4,-1
 241 695 l 1,5,-1
 624 695 l 1,6,-1
 611 640 l 1,7,-1
 290 640 l 1,8,-1
 230 382 l 1,9,-1
 496 382 l 1,10,-1
 483 327 l 1,11,-1
 218 327 l 1,12,-1
 155 55 l 1,13,-1
 476 55 l 1,14,-1
 463 0 l 1,15,-1
 81 0 l 1,4,-1
EndSplineSet
Position2: "'cpsp' Capital Spacing in Latin lookup 0 subtable" dx=5 dy=0 dh=10 dv=0
EndChar

StartChar: Ecircumflex
Encoding: 202 202 139
Width: 507
GlyphClass: 2
Flags: W
LayerCount: 2
Fore
SplineSet
363 794 m 1,0,-1
 524 928 l 1,1,-1
 554 928 l 1,2,-1
 651 794 l 1,3,-1
 595 794 l 1,4,-1
 534 880 l 1,5,-1
 429 794 l 1,6,-1
 363 794 l 1,0,-1
81 0 m 1,7,-1
 241 695 l 1,8,-1
 624 695 l 1,9,-1
 611 640 l 1,10,-1
 290 640 l 1,11,-1
 230 382 l 1,12,-1
 496 382 l 1,13,-1
 483 327 l 1,14,-1
 218 327 l 1,15,-1
 155 55 l 1,16,-1
 476 55 l 1,17,-1
 463 0 l 1,18,-1
 81 0 l 1,7,-1
EndSplineSet
Position2: "'cpsp' Capital Spacing in Latin lookup 0 subtable" dx=5 dy=0 dh=10 dv=0
EndChar

StartChar: Edieresis
Encoding: 203 203 140
Width: 507
GlyphClass: 2
Flags: W
LayerCount: 2
Fore
SplineSet
343 820 m 1,0,-1
 361 903 l 1,1,-1
 411 903 l 1,2,-1
 391 820 l 1,3,-1
 343 820 l 1,0,-1
527 820 m 1,4,-1
 547 903 l 1,5,-1
 596 903 l 1,6,-1
 576 820 l 1,7,-1
 527 820 l 1,4,-1
81 0 m 1,8,-1
 241 695 l 1,9,-1
 624 695 l 1,10,-1
 611 640 l 1,11,-1
 290 640 l 1,12,-1
 230 382 l 1,13,-1
 496 382 l 1,14,-1
 483 327 l 1,15,-1
 218 327 l 1,16,-1
 155 55 l 1,17,-1
 476 55 l 1,18,-1
 463 0 l 1,19,-1
 81 0 l 1,8,-1
EndSplineSet
Position2: "'cpsp' Capital Spacing in Latin lookup 0 subtable" dx=5 dy=0 dh=10 dv=0
EndChar

StartChar: Igrave
Encoding: 204 204 141
Width: 223
GlyphClass: 2
Flags: W
LayerCount: 2
Fore
SplineSet
180 925 m 1,0,-1
 355 830 l 1,1,-1
 329 787 l 1,2,-1
 151 875 l 1,3,-1
 180 925 l 1,0,-1
81 0 m 1,4,-1
 241 695 l 1,5,-1
 303 695 l 1,6,-1
 142 0 l 1,7,-1
 81 0 l 1,4,-1
EndSplineSet
Position2: "'cpsp' Capital Spacing in Latin lookup 0 subtable" dx=5 dy=0 dh=10 dv=0
EndChar

StartChar: Iacute
Encoding: 205 205 142
Width: 223
GlyphClass: 2
Flags: W
LayerCount: 2
Fore
SplineSet
241 790 m 1,0,-1
 233 835 l 1,1,-1
 452 930 l 1,2,-1
 461 878 l 1,3,-1
 241 790 l 1,0,-1
81 0 m 1,4,-1
 241 695 l 1,5,-1
 303 695 l 1,6,-1
 142 0 l 1,7,-1
 81 0 l 1,4,-1
EndSplineSet
Position2: "'cpsp' Capital Spacing in Latin lookup 0 subtable" dx=5 dy=0 dh=10 dv=0
EndChar

StartChar: Icircumflex
Encoding: 206 206 143
Width: 223
GlyphClass: 2
Flags: W
LayerCount: 2
Fore
SplineSet
146 794 m 1,0,-1
 307 928 l 1,1,-1
 337 928 l 1,2,-1
 434 794 l 1,3,-1
 378 794 l 1,4,-1
 317 880 l 1,5,-1
 212 794 l 1,6,-1
 146 794 l 1,0,-1
81 0 m 1,7,-1
 241 695 l 1,8,-1
 303 695 l 1,9,-1
 142 0 l 1,10,-1
 81 0 l 1,7,-1
EndSplineSet
Position2: "'cpsp' Capital Spacing in Latin lookup 0 subtable" dx=5 dy=0 dh=10 dv=0
EndChar

StartChar: Idieresis
Encoding: 207 207 144
Width: 223
GlyphClass: 2
Flags: W
LayerCount: 2
Fore
SplineSet
177 823 m 1,0,-1
 195 906 l 1,1,-1
 245 906 l 1,2,-1
 225 823 l 1,3,-1
 177 823 l 1,0,-1
361 823 m 1,4,-1
 381 906 l 1,5,-1
 430 906 l 1,6,-1
 410 823 l 1,7,-1
 361 823 l 1,4,-1
81 0 m 1,8,-1
 241 695 l 1,9,-1
 303 695 l 1,10,-1
 142 0 l 1,11,-1
 81 0 l 1,8,-1
EndSplineSet
Position2: "'cpsp' Capital Spacing in Latin lookup 0 subtable" dx=5 dy=0 dh=10 dv=0
EndChar

StartChar: Eth
Encoding: 208 208 145
Width: 611
GlyphClass: 2
Flags: W
LayerCount: 2
Fore
SplineSet
322 0 m 2,0,-1
 84 0 l 1,1,-1
 157 318 l 1,2,-1
 87 318 l 1,3,-1
 100 380 l 1,4,-1
 171 380 l 1,5,-1
 244 695 l 1,6,-1
 469 695 l 2,7,8
 562 695 562 695 607 645.5 c 128,-1,9
 652 596 652 596 652 489 c 0,10,11
 652 351 652 351 602 227 c 0,12,13
 545 87 545 87 444 31 c 0,14,15
 388 0 388 0 322 0 c 2,0,-1
571.5 348.5 m 128,-1,17
 588 422 588 422 588 495 c 128,-1,18
 588 568 588 568 557.5 604 c 128,-1,19
 527 640 527 640 457 640 c 2,20,-1
 293 640 l 1,21,-1
 233 380 l 1,22,-1
 383 380 l 1,23,-1
 368 318 l 1,24,-1
 219 318 l 1,25,-1
 159 55 l 1,26,-1
 332 55 l 2,27,28
 393 55 393 55 443.5 98.5 c 128,-1,29
 494 142 494 142 524.5 208.5 c 128,-1,16
 555 275 555 275 571.5 348.5 c 128,-1,17
EndSplineSet
Position2: "'cpsp' Capital Spacing in Latin lookup 0 subtable" dx=5 dy=0 dh=10 dv=0
EndChar

StartChar: Ntilde
Encoding: 209 209 146
Width: 625
GlyphClass: 2
Flags: W
LayerCount: 2
Fore
SplineSet
571 807 m 0,0,1
 548 807 548 807 497 836.5 c 128,-1,2
 446 866 446 866 434 866 c 0,3,4
 415 866 415 866 362 828 c 2,5,-1
 344 815 l 1,6,-1
 342 859 l 1,7,8
 409 918 409 918 439.5 918 c 128,-1,9
 470 918 470 918 520 889 c 128,-1,10
 570 860 570 860 580 860 c 0,11,12
 600 860 600 860 648 896 c 2,13,-1
 664 908 l 1,14,-1
 667 866 l 1,15,16
 604 807 604 807 571 807 c 0,0,1
81 0 m 1,17,-1
 241 695 l 1,18,-1
 357 695 l 1,19,-1
 478 61 l 1,20,-1
 499 61 l 1,21,-1
 645 695 l 1,22,-1
 705 695 l 1,23,-1
 545 0 l 1,24,-1
 433 0 l 1,25,-1
 309 636 l 1,26,-1
 287 636 l 1,27,-1
 140 0 l 1,28,-1
 81 0 l 1,17,-1
EndSplineSet
Position2: "'cpsp' Capital Spacing in Latin lookup 0 subtable" dx=5 dy=0 dh=10 dv=0
EndChar

StartChar: Ograve
Encoding: 210 210 147
Width: 631
GlyphClass: 2
Flags: W
LayerCount: 2
Fore
SplineSet
417 925 m 1,0,-1
 592 830 l 1,1,-1
 566 787 l 1,2,-1
 388 875 l 1,3,-1
 417 925 l 1,0,-1
215 80 m 128,-1,5
 250 45 250 45 327 45 c 128,-1,6
 404 45 404 45 457 87 c 0,7,8
 530 145 530 145 569.5 261 c 128,-1,9
 609 377 609 377 609 495 c 0,10,11
 609 575 609 575 572 612.5 c 128,-1,12
 535 650 535 650 463 650 c 128,-1,13
 391 650 391 650 340 610 c 0,14,15
 265 552 265 552 222.5 431.5 c 128,-1,16
 180 311 180 311 180 199 c 0,17,4
 180 115 180 115 215 80 c 128,-1,5
630 241.5 m 128,-1,19
 587 120 587 120 508.5 55 c 128,-1,20
 430 -10 430 -10 323.5 -10 c 128,-1,21
 217 -10 217 -10 167 38 c 128,-1,22
 117 86 117 86 117 205 c 128,-1,23
 117 324 117 324 158.5 443 c 128,-1,24
 200 562 200 562 278.5 633.5 c 128,-1,25
 357 705 357 705 459 705 c 0,26,27
 673 705 673 705 673 498 c 0,28,18
 673 363 673 363 630 241.5 c 128,-1,19
EndSplineSet
Position2: "'cpsp' Capital Spacing in Latin lookup 0 subtable" dx=5 dy=0 dh=10 dv=0
EndChar

StartChar: Oacute
Encoding: 211 211 148
Width: 631
GlyphClass: 2
Flags: W
LayerCount: 2
Fore
SplineSet
215 80 m 128,-1,1
 250 45 250 45 327 45 c 128,-1,2
 404 45 404 45 457 87 c 0,3,4
 530 145 530 145 569.5 261 c 128,-1,5
 609 377 609 377 609 495 c 0,6,7
 609 575 609 575 572 612.5 c 128,-1,8
 535 650 535 650 463 650 c 128,-1,9
 391 650 391 650 340 610 c 0,10,11
 265 552 265 552 222.5 431.5 c 128,-1,12
 180 311 180 311 180 199 c 0,13,0
 180 115 180 115 215 80 c 128,-1,1
630 241.5 m 128,-1,15
 587 120 587 120 508.5 55 c 128,-1,16
 430 -10 430 -10 323.5 -10 c 128,-1,17
 217 -10 217 -10 167 38 c 128,-1,18
 117 86 117 86 117 205 c 128,-1,19
 117 324 117 324 158.5 443 c 128,-1,20
 200 562 200 562 278.5 633.5 c 128,-1,21
 357 705 357 705 459 705 c 0,22,23
 673 705 673 705 673 498 c 0,24,14
 673 363 673 363 630 241.5 c 128,-1,15
433 790 m 1,25,-1
 425 835 l 1,26,-1
 644 930 l 1,27,-1
 653 878 l 1,28,-1
 433 790 l 1,25,-1
EndSplineSet
Position2: "'cpsp' Capital Spacing in Latin lookup 0 subtable" dx=5 dy=0 dh=10 dv=0
EndChar

StartChar: Ocircumflex
Encoding: 212 212 149
Width: 631
GlyphClass: 2
Flags: W
LayerCount: 2
Fore
SplineSet
215 80 m 128,-1,1
 250 45 250 45 327 45 c 128,-1,2
 404 45 404 45 457 87 c 0,3,4
 530 145 530 145 569.5 261 c 128,-1,5
 609 377 609 377 609 495 c 0,6,7
 609 575 609 575 572 612.5 c 128,-1,8
 535 650 535 650 463 650 c 128,-1,9
 391 650 391 650 340 610 c 0,10,11
 265 552 265 552 222.5 431.5 c 128,-1,12
 180 311 180 311 180 199 c 0,13,0
 180 115 180 115 215 80 c 128,-1,1
630 241.5 m 128,-1,15
 587 120 587 120 508.5 55 c 128,-1,16
 430 -10 430 -10 323.5 -10 c 128,-1,17
 217 -10 217 -10 167 38 c 128,-1,18
 117 86 117 86 117 205 c 128,-1,19
 117 324 117 324 158.5 443 c 128,-1,20
 200 562 200 562 278.5 633.5 c 128,-1,21
 357 705 357 705 459 705 c 0,22,23
 673 705 673 705 673 498 c 0,24,14
 673 363 673 363 630 241.5 c 128,-1,15
356 797 m 1,25,-1
 517 931 l 1,26,-1
 547 931 l 1,27,-1
 644 797 l 1,28,-1
 588 797 l 1,29,-1
 527 883 l 1,30,-1
 422 797 l 1,31,-1
 356 797 l 1,25,-1
EndSplineSet
Position2: "'cpsp' Capital Spacing in Latin lookup 0 subtable" dx=5 dy=0 dh=10 dv=0
EndChar

StartChar: Otilde
Encoding: 213 213 150
Width: 631
GlyphClass: 2
Flags: W
LayerCount: 2
Fore
SplineSet
585 807 m 0,0,1
 562 807 562 807 511 836.5 c 128,-1,2
 460 866 460 866 448 866 c 0,3,4
 429 866 429 866 376 828 c 2,5,-1
 358 815 l 1,6,-1
 356 859 l 1,7,8
 423 918 423 918 453.5 918 c 128,-1,9
 484 918 484 918 534 889 c 128,-1,10
 584 860 584 860 594 860 c 0,11,12
 614 860 614 860 662 896 c 2,13,-1
 678 908 l 1,14,-1
 681 866 l 1,15,16
 618 807 618 807 585 807 c 0,0,1
215 80 m 128,-1,18
 250 45 250 45 327 45 c 128,-1,19
 404 45 404 45 457 87 c 0,20,21
 530 145 530 145 569.5 261 c 128,-1,22
 609 377 609 377 609 495 c 0,23,24
 609 575 609 575 572 612.5 c 128,-1,25
 535 650 535 650 463 650 c 128,-1,26
 391 650 391 650 340 610 c 0,27,28
 265 552 265 552 222.5 431.5 c 128,-1,29
 180 311 180 311 180 199 c 0,30,17
 180 115 180 115 215 80 c 128,-1,18
630 241.5 m 128,-1,32
 587 120 587 120 508.5 55 c 128,-1,33
 430 -10 430 -10 323.5 -10 c 128,-1,34
 217 -10 217 -10 167 38 c 128,-1,35
 117 86 117 86 117 205 c 128,-1,36
 117 324 117 324 158.5 443 c 128,-1,37
 200 562 200 562 278.5 633.5 c 128,-1,38
 357 705 357 705 459 705 c 0,39,40
 673 705 673 705 673 498 c 0,41,31
 673 363 673 363 630 241.5 c 128,-1,32
EndSplineSet
Position2: "'cpsp' Capital Spacing in Latin lookup 0 subtable" dx=5 dy=0 dh=10 dv=0
EndChar

StartChar: Odieresis
Encoding: 214 214 151
Width: 631
GlyphClass: 2
Flags: W
LayerCount: 2
Fore
SplineSet
383 820 m 1,0,-1
 402 902 l 1,1,-1
 458 902 l 1,2,-1
 439 820 l 1,3,-1
 383 820 l 1,0,-1
569 820 m 1,4,-1
 587 902 l 1,5,-1
 642 902 l 1,6,-1
 623 820 l 1,7,-1
 569 820 l 1,4,-1
215 80 m 128,-1,9
 250 45 250 45 327 45 c 128,-1,10
 404 45 404 45 457 87 c 0,11,12
 530 145 530 145 569.5 261 c 128,-1,13
 609 377 609 377 609 495 c 0,14,15
 609 575 609 575 572 612.5 c 128,-1,16
 535 650 535 650 463 650 c 128,-1,17
 391 650 391 650 340 610 c 0,18,19
 265 552 265 552 222.5 431.5 c 128,-1,20
 180 311 180 311 180 199 c 0,21,8
 180 115 180 115 215 80 c 128,-1,9
630 241.5 m 128,-1,23
 587 120 587 120 508.5 55 c 128,-1,24
 430 -10 430 -10 323.5 -10 c 128,-1,25
 217 -10 217 -10 167 38 c 128,-1,26
 117 86 117 86 117 205 c 128,-1,27
 117 324 117 324 158.5 443 c 128,-1,28
 200 562 200 562 278.5 633.5 c 128,-1,29
 357 705 357 705 459 705 c 0,30,31
 673 705 673 705 673 498 c 0,32,22
 673 363 673 363 630 241.5 c 128,-1,23
EndSplineSet
Position2: "'cpsp' Capital Spacing in Latin lookup 0 subtable" dx=5 dy=0 dh=10 dv=0
EndChar

StartChar: multiply
Encoding: 215 215 152
Width: 560
GlyphClass: 2
Flags: W
LayerCount: 2
Fore
SplineSet
171 456 m 1,0,-1
 337 288 l 1,1,-1
 503 456 l 1,2,-1
 542 417 l 1,3,-1
 375 251 l 1,4,-1
 542 85 l 1,5,-1
 503 45 l 1,6,-1
 337 213 l 1,7,-1
 171 46 l 1,8,-1
 132 85 l 1,9,-1
 299 251 l 1,10,-1
 132 416 l 1,11,-1
 171 456 l 1,0,-1
EndSplineSet
EndChar

StartChar: Oslash
Encoding: 216 216 153
Width: 631
GlyphClass: 2
Flags: W
LayerCount: 2
Fore
SplineSet
162 42 m 1,0,1
 117 90 117 90 117 207 c 128,-1,2
 117 324 117 324 158.5 443 c 128,-1,3
 200 562 200 562 278.5 633.5 c 128,-1,4
 357 705 357 705 459 705 c 0,5,6
 543 705 543 705 593 674 c 1,7,-1
 675 794 l 1,8,-1
 716 776 l 1,9,-1
 627 646 l 1,10,11
 673 596 673 596 673 498 c 0,12,13
 673 363 673 363 630 241.5 c 128,-1,14
 587 120 587 120 508.5 55 c 128,-1,15
 430 -10 430 -10 337 -10 c 128,-1,16
 244 -10 244 -10 197 15 c 1,17,-1
 109 -113 l 1,18,-1
 72 -91 l 1,19,-1
 162 42 l 1,0,1
559 624 m 1,20,21
 523 650 523 650 457 650 c 128,-1,22
 391 650 391 650 340 610 c 0,23,24
 265 552 265 552 222.5 431.5 c 128,-1,25
 180 311 180 311 180 199 c 0,26,27
 180 132 180 132 200 98 c 1,28,-1
 559 624 l 1,20,21
232 66 m 1,29,30
 266 45 266 45 335 45 c 128,-1,31
 404 45 404 45 457 87 c 0,32,33
 530 145 530 145 569.5 261 c 128,-1,34
 609 377 609 377 609 495 c 0,35,36
 609 553 609 553 589 590 c 1,37,-1
 232 66 l 1,29,30
EndSplineSet
Position2: "'cpsp' Capital Spacing in Latin lookup 0 subtable" dx=5 dy=0 dh=10 dv=0
EndChar

StartChar: Ugrave
Encoding: 217 217 154
Width: 593
GlyphClass: 2
Flags: W
LayerCount: 2
Fore
SplineSet
393 925 m 1,0,-1
 568 830 l 1,1,-1
 542 787 l 1,2,-1
 364 875 l 1,3,-1
 393 925 l 1,0,-1
176 139 m 0,4,5
 176 46 176 46 315 46 c 0,6,7
 399 46 399 46 441.5 84.5 c 128,-1,8
 484 123 484 123 503 206 c 2,9,-1
 616 695 l 1,10,-1
 678 695 l 1,11,-1
 565 205 l 2,12,13
 539 95 539 95 480 42.5 c 128,-1,14
 421 -10 421 -10 320 -10 c 0,15,16
 115 -10 115 -10 115 132 c 0,17,18
 115 177 115 177 126 218 c 1,19,-1
 236 695 l 1,20,-1
 297 695 l 1,21,-1
 186 213 l 2,22,23
 176 173 176 173 176 139 c 0,4,5
EndSplineSet
Position2: "'cpsp' Capital Spacing in Latin lookup 0 subtable" dx=5 dy=0 dh=10 dv=0
EndChar

StartChar: Uacute
Encoding: 218 218 155
Width: 593
GlyphClass: 2
Flags: W
LayerCount: 2
Fore
SplineSet
176 139 m 0,0,1
 176 46 176 46 315 46 c 0,2,3
 399 46 399 46 441.5 84.5 c 128,-1,4
 484 123 484 123 503 206 c 2,5,-1
 616 695 l 1,6,-1
 678 695 l 1,7,-1
 565 205 l 2,8,9
 539 95 539 95 480 42.5 c 128,-1,10
 421 -10 421 -10 320 -10 c 0,11,12
 115 -10 115 -10 115 132 c 0,13,14
 115 177 115 177 126 218 c 1,15,-1
 236 695 l 1,16,-1
 297 695 l 1,17,-1
 186 213 l 2,18,19
 176 173 176 173 176 139 c 0,0,1
391 790 m 1,20,-1
 383 835 l 1,21,-1
 602 930 l 1,22,-1
 611 878 l 1,23,-1
 391 790 l 1,20,-1
EndSplineSet
Position2: "'cpsp' Capital Spacing in Latin lookup 0 subtable" dx=5 dy=0 dh=10 dv=0
EndChar

StartChar: Ucircumflex
Encoding: 219 219 156
Width: 593
GlyphClass: 2
Flags: W
LayerCount: 2
Fore
SplineSet
176 139 m 0,0,1
 176 46 176 46 315 46 c 0,2,3
 399 46 399 46 441.5 84.5 c 128,-1,4
 484 123 484 123 503 206 c 2,5,-1
 616 695 l 1,6,-1
 678 695 l 1,7,-1
 565 205 l 2,8,9
 539 95 539 95 480 42.5 c 128,-1,10
 421 -10 421 -10 320 -10 c 0,11,12
 115 -10 115 -10 115 132 c 0,13,14
 115 177 115 177 126 218 c 1,15,-1
 236 695 l 1,16,-1
 297 695 l 1,17,-1
 186 213 l 2,18,19
 176 173 176 173 176 139 c 0,0,1
329 797 m 1,20,-1
 490 931 l 1,21,-1
 520 931 l 1,22,-1
 617 797 l 1,23,-1
 561 797 l 1,24,-1
 500 883 l 1,25,-1
 395 797 l 1,26,-1
 329 797 l 1,20,-1
EndSplineSet
Position2: "'cpsp' Capital Spacing in Latin lookup 0 subtable" dx=5 dy=0 dh=10 dv=0
EndChar

StartChar: Udieresis
Encoding: 220 220 157
Width: 593
GlyphClass: 2
Flags: W
LayerCount: 2
Fore
SplineSet
354 820 m 1,0,-1
 373 902 l 1,1,-1
 429 902 l 1,2,-1
 410 820 l 1,3,-1
 354 820 l 1,0,-1
540 820 m 1,4,-1
 558 902 l 1,5,-1
 614 902 l 1,6,-1
 594 820 l 1,7,-1
 540 820 l 1,4,-1
176 139 m 0,8,9
 176 46 176 46 315 46 c 0,10,11
 399 46 399 46 441.5 84.5 c 128,-1,12
 484 123 484 123 503 206 c 2,13,-1
 616 695 l 1,14,-1
 678 695 l 1,15,-1
 565 205 l 2,16,17
 539 95 539 95 480 42.5 c 128,-1,18
 421 -10 421 -10 320 -10 c 0,19,20
 115 -10 115 -10 115 132 c 0,21,22
 115 177 115 177 126 218 c 1,23,-1
 236 695 l 1,24,-1
 297 695 l 1,25,-1
 186 213 l 2,26,27
 176 173 176 173 176 139 c 0,8,9
EndSplineSet
Position2: "'cpsp' Capital Spacing in Latin lookup 0 subtable" dx=5 dy=0 dh=10 dv=0
EndChar

StartChar: Yacute
Encoding: 221 221 158
Width: 490
GlyphClass: 2
Flags: W
LayerCount: 2
Fore
SplineSet
344 790 m 1,0,-1
 336 835 l 1,1,-1
 555 930 l 1,2,-1
 564 878 l 1,3,-1
 344 790 l 1,0,-1
635 695 m 1,4,-1
 340 298 l 1,5,-1
 270 0 l 1,6,-1
 211 0 l 1,7,-1
 281 304 l 1,8,-1
 173 695 l 1,9,-1
 235 695 l 1,10,-1
 324 358 l 1,11,-1
 569 695 l 1,12,-1
 635 695 l 1,4,-1
EndSplineSet
Position2: "'cpsp' Capital Spacing in Latin lookup 0 subtable" dx=5 dy=0 dh=10 dv=0
EndChar

StartChar: Thorn
Encoding: 222 222 159
Width: 551
GlyphClass: 2
Flags: W
LayerCount: 2
Fore
SplineSet
356 183 m 2,0,1
 490 183 490 183 537 362 c 0,2,3
 546 397 546 397 546 424 c 0,4,5
 546 524 546 524 432 524 c 2,6,-1
 263 525 l 1,7,-1
 182 183 l 1,8,-1
 356 183 l 2,0,1
343 125 m 2,9,-1
 168 125 l 1,10,-1
 139 0 l 1,11,-1
 79 0 l 1,12,-1
 243 697 l 1,13,-1
 303 697 l 1,14,-1
 276 582 l 1,15,-1
 446 582 l 2,16,17
 548 582 548 582 583 521 c 0,18,19
 605 483 605 483 605 441 c 128,-1,20
 605 399 605 399 597 362 c 0,21,22
 573 254 573 254 508.5 189.5 c 128,-1,23
 444 125 444 125 343 125 c 2,9,-1
EndSplineSet
Position2: "'cpsp' Capital Spacing in Latin lookup 0 subtable" dx=5 dy=0 dh=10 dv=0
EndChar

StartChar: germandbls
Encoding: 223 223 160
Width: 532
GlyphClass: 2
Flags: W
LayerCount: 2
Fore
SplineSet
408 732 m 0,0,1
 563 732 563 732 563 618 c 0,2,3
 563 511 563 511 466 464 c 0,4,5
 419 441 419 441 402 427 c 128,-1,6
 385 413 385 413 385 394 c 128,-1,7
 385 375 385 375 396.5 362 c 128,-1,8
 408 349 408 349 455.5 319.5 c 128,-1,9
 503 290 503 290 521 267.5 c 128,-1,10
 539 245 539 245 539 197 c 0,11,12
 539 102 539 102 480.5 46 c 128,-1,13
 422 -10 422 -10 317 -10 c 0,14,15
 271 -10 271 -10 217 4 c 1,16,-1
 199 8 l 1,17,-1
 210 56 l 1,18,19
 275 43 275 43 316 43 c 0,20,21
 392 43 392 43 435 83.5 c 128,-1,22
 478 124 478 124 478 192 c 0,23,24
 478 223 478 223 463 241 c 128,-1,25
 448 259 448 259 402 287 c 128,-1,26
 356 315 356 315 340 335.5 c 128,-1,27
 324 356 324 356 324 389.5 c 128,-1,28
 324 423 324 423 345 446.5 c 128,-1,29
 366 470 366 470 416 495.5 c 128,-1,30
 466 521 466 521 484 546 c 128,-1,31
 502 571 502 571 502 611 c 0,32,33
 502 680 502 680 404 680 c 0,34,35
 336 680 336 680 301.5 644.5 c 128,-1,36
 267 609 267 609 248 524 c 2,37,-1
 125 0 l 1,38,-1
 68 0 l 1,39,-1
 193 531 l 2,40,41
 219 642 219 642 268 687 c 128,-1,42
 317 732 317 732 408 732 c 0,0,1
EndSplineSet
EndChar

StartChar: agrave
Encoding: 224 224 161
Width: 493
GlyphClass: 2
Flags: W
LayerCount: 2
Fore
SplineSet
216 -10 m 0,0,1
 91 -10 91 -10 91 131 c 0,2,3
 91 262 91 262 154 380 c 0,4,5
 184 437 184 437 233.5 473.5 c 128,-1,6
 283 510 283 510 342 510 c 0,7,8
 396 510 396 510 501 492 c 2,9,-1
 536 486 l 1,10,-1
 460 161 l 2,11,12
 446 105 446 105 436 27 c 1,13,-1
 432 1 l 1,14,-1
 374 -1 l 1,15,16
 389 92 389 92 393 113 c 1,17,18
 389 108 389 108 382.5 99.5 c 128,-1,19
 376 91 376 91 356.5 70 c 128,-1,20
 337 49 337 49 317 33 c 128,-1,21
 297 17 297 17 269 3.5 c 128,-1,22
 241 -10 241 -10 216 -10 c 0,0,1
467 442 m 1,23,24
 395 457 395 457 339.5 457 c 128,-1,25
 284 457 284 457 239 402 c 128,-1,26
 194 347 194 347 173.5 274.5 c 128,-1,27
 153 202 153 202 153 144.5 c 128,-1,28
 153 87 153 87 171.5 65 c 128,-1,29
 190 43 190 43 227 43 c 128,-1,30
 264 43 264 43 307 78 c 128,-1,31
 350 113 350 113 378 148 c 2,32,-1
 406 184 l 1,33,-1
 467 442 l 1,23,24
335 734 m 1,34,-1
 511 640 l 1,35,-1
 483 599 l 1,36,-1
 306 687 l 1,37,-1
 335 734 l 1,34,-1
EndSplineSet
EndChar

StartChar: aacute
Encoding: 225 225 162
Width: 493
GlyphClass: 2
Flags: W
LayerCount: 2
Fore
SplineSet
216 -10 m 0,0,1
 91 -10 91 -10 91 131 c 0,2,3
 91 262 91 262 154 380 c 0,4,5
 184 437 184 437 233.5 473.5 c 128,-1,6
 283 510 283 510 342 510 c 0,7,8
 396 510 396 510 501 492 c 2,9,-1
 536 486 l 1,10,-1
 460 161 l 2,11,12
 446 105 446 105 436 27 c 1,13,-1
 432 1 l 1,14,-1
 374 -1 l 1,15,16
 389 92 389 92 393 113 c 1,17,18
 389 108 389 108 382.5 99.5 c 128,-1,19
 376 91 376 91 356.5 70 c 128,-1,20
 337 49 337 49 317 33 c 128,-1,21
 297 17 297 17 269 3.5 c 128,-1,22
 241 -10 241 -10 216 -10 c 0,0,1
467 442 m 1,23,24
 395 457 395 457 339.5 457 c 128,-1,25
 284 457 284 457 239 402 c 128,-1,26
 194 347 194 347 173.5 274.5 c 128,-1,27
 153 202 153 202 153 144.5 c 128,-1,28
 153 87 153 87 171.5 65 c 128,-1,29
 190 43 190 43 227 43 c 128,-1,30
 264 43 264 43 307 78 c 128,-1,31
 350 113 350 113 378 148 c 2,32,-1
 406 184 l 1,33,-1
 467 442 l 1,23,24
341 601 m 1,34,-1
 335 647 l 1,35,-1
 553 741 l 1,36,-1
 560 688 l 1,37,-1
 341 601 l 1,34,-1
EndSplineSet
EndChar

StartChar: acircumflex
Encoding: 226 226 163
Width: 493
GlyphClass: 2
Flags: W
LayerCount: 2
Fore
SplineSet
248 590 m 1,0,-1
 399 735 l 1,1,-1
 441 735 l 1,2,-1
 528 590 l 1,3,-1
 466 590 l 1,4,-1
 412 682 l 1,5,-1
 315 590 l 1,6,-1
 248 590 l 1,0,-1
216 -10 m 0,7,8
 91 -10 91 -10 91 131 c 0,9,10
 91 262 91 262 154 380 c 0,11,12
 184 437 184 437 233.5 473.5 c 128,-1,13
 283 510 283 510 342 510 c 0,14,15
 396 510 396 510 501 492 c 2,16,-1
 536 486 l 1,17,-1
 460 161 l 2,18,19
 446 105 446 105 436 27 c 1,20,-1
 432 1 l 1,21,-1
 374 -1 l 1,22,23
 389 92 389 92 393 113 c 1,24,25
 389 108 389 108 382.5 99.5 c 128,-1,26
 376 91 376 91 356.5 70 c 128,-1,27
 337 49 337 49 317 33 c 128,-1,28
 297 17 297 17 269 3.5 c 128,-1,29
 241 -10 241 -10 216 -10 c 0,7,8
467 442 m 1,30,31
 395 457 395 457 339.5 457 c 128,-1,32
 284 457 284 457 239 402 c 128,-1,33
 194 347 194 347 173.5 274.5 c 128,-1,34
 153 202 153 202 153 144.5 c 128,-1,35
 153 87 153 87 171.5 65 c 128,-1,36
 190 43 190 43 227 43 c 128,-1,37
 264 43 264 43 307 78 c 128,-1,38
 350 113 350 113 378 148 c 2,39,-1
 406 184 l 1,40,-1
 467 442 l 1,30,31
EndSplineSet
EndChar

StartChar: atilde
Encoding: 227 227 164
Width: 493
GlyphClass: 2
Flags: W
LayerCount: 2
Fore
SplineSet
216 -10 m 0,0,1
 91 -10 91 -10 91 131 c 0,2,3
 91 262 91 262 154 380 c 0,4,5
 184 437 184 437 233.5 473.5 c 128,-1,6
 283 510 283 510 342 510 c 0,7,8
 396 510 396 510 501 492 c 2,9,-1
 536 486 l 1,10,-1
 460 161 l 2,11,12
 446 105 446 105 436 27 c 1,13,-1
 432 1 l 1,14,-1
 374 -1 l 1,15,16
 389 92 389 92 393 113 c 1,17,18
 389 108 389 108 382.5 99.5 c 128,-1,19
 376 91 376 91 356.5 70 c 128,-1,20
 337 49 337 49 317 33 c 128,-1,21
 297 17 297 17 269 3.5 c 128,-1,22
 241 -10 241 -10 216 -10 c 0,0,1
467 442 m 1,23,24
 395 457 395 457 339.5 457 c 128,-1,25
 284 457 284 457 239 402 c 128,-1,26
 194 347 194 347 173.5 274.5 c 128,-1,27
 153 202 153 202 153 144.5 c 128,-1,28
 153 87 153 87 171.5 65 c 128,-1,29
 190 43 190 43 227 43 c 128,-1,30
 264 43 264 43 307 78 c 128,-1,31
 350 113 350 113 378 148 c 2,32,-1
 406 184 l 1,33,-1
 467 442 l 1,23,24
483 620 m 0,34,35
 464 620 464 620 416 644.5 c 128,-1,36
 368 669 368 669 357 669 c 0,37,38
 337 669 337 669 292 636 c 2,39,-1
 277 625 l 1,40,-1
 275 672 l 1,41,42
 335 722 335 722 369 722 c 0,43,44
 391 722 391 722 437 697.5 c 128,-1,45
 483 673 483 673 492 673 c 0,46,47
 510 673 510 673 553 704 c 2,48,-1
 567 714 l 1,49,-1
 571 668 l 1,50,51
 517 620 517 620 483 620 c 0,34,35
EndSplineSet
EndChar

StartChar: adieresis
Encoding: 228 228 165
Width: 493
GlyphClass: 2
Flags: W
LayerCount: 2
Fore
SplineSet
272 625 m 1,0,-1
 291 707 l 1,1,-1
 347 707 l 1,2,-1
 327 625 l 1,3,-1
 272 625 l 1,0,-1
458 625 m 1,4,-1
 475 707 l 1,5,-1
 531 707 l 1,6,-1
 512 625 l 1,7,-1
 458 625 l 1,4,-1
216 -10 m 0,8,9
 91 -10 91 -10 91 131 c 0,10,11
 91 262 91 262 154 380 c 0,12,13
 184 437 184 437 233.5 473.5 c 128,-1,14
 283 510 283 510 342 510 c 0,15,16
 396 510 396 510 501 492 c 2,17,-1
 536 486 l 1,18,-1
 460 161 l 2,19,20
 446 105 446 105 436 27 c 1,21,-1
 432 1 l 1,22,-1
 374 -1 l 1,23,24
 389 92 389 92 393 113 c 1,25,26
 389 108 389 108 382.5 99.5 c 128,-1,27
 376 91 376 91 356.5 70 c 128,-1,28
 337 49 337 49 317 33 c 128,-1,29
 297 17 297 17 269 3.5 c 128,-1,30
 241 -10 241 -10 216 -10 c 0,8,9
467 442 m 1,31,32
 395 457 395 457 339.5 457 c 128,-1,33
 284 457 284 457 239 402 c 128,-1,34
 194 347 194 347 173.5 274.5 c 128,-1,35
 153 202 153 202 153 144.5 c 128,-1,36
 153 87 153 87 171.5 65 c 128,-1,37
 190 43 190 43 227 43 c 128,-1,38
 264 43 264 43 307 78 c 128,-1,39
 350 113 350 113 378 148 c 2,40,-1
 406 184 l 1,41,-1
 467 442 l 1,31,32
EndSplineSet
EndChar

StartChar: aring
Encoding: 229 229 166
Width: 493
GlyphClass: 2
Flags: W
LayerCount: 2
Fore
SplineSet
216 -10 m 0,0,1
 91 -10 91 -10 91 131 c 0,2,3
 91 262 91 262 154 380 c 0,4,5
 184 437 184 437 233.5 473.5 c 128,-1,6
 283 510 283 510 342 510 c 0,7,8
 396 510 396 510 501 492 c 2,9,-1
 536 486 l 1,10,-1
 460 161 l 2,11,12
 446 105 446 105 436 27 c 1,13,-1
 432 1 l 1,14,-1
 374 -1 l 1,15,16
 389 92 389 92 393 113 c 1,17,18
 389 108 389 108 382.5 99.5 c 128,-1,19
 376 91 376 91 356.5 70 c 128,-1,20
 337 49 337 49 317 33 c 128,-1,21
 297 17 297 17 269 3.5 c 128,-1,22
 241 -10 241 -10 216 -10 c 0,0,1
467 442 m 1,23,24
 395 457 395 457 339.5 457 c 128,-1,25
 284 457 284 457 239 402 c 128,-1,26
 194 347 194 347 173.5 274.5 c 128,-1,27
 153 202 153 202 153 144.5 c 128,-1,28
 153 87 153 87 171.5 65 c 128,-1,29
 190 43 190 43 227 43 c 128,-1,30
 264 43 264 43 307 78 c 128,-1,31
 350 113 350 113 378 148 c 2,32,-1
 406 184 l 1,33,-1
 467 442 l 1,23,24
376 731 m 0,34,35
 407 759 407 759 446 759 c 128,-1,36
 485 759 485 759 501 739.5 c 128,-1,37
 517 720 517 720 517 690 c 0,38,39
 517 635 517 635 482.5 602 c 128,-1,40
 448 569 448 569 404.5 569 c 128,-1,41
 361 569 361 569 345 595 c 0,42,43
 334 612 334 612 334 631 c 0,44,45
 334 693 334 693 376 731 c 0,34,35
414 610 m 128,-1,47
 436 610 436 610 457.5 628.5 c 128,-1,48
 479 647 479 647 479 680 c 0,49,50
 479 689 479 689 470 702.5 c 128,-1,51
 461 716 461 716 439.5 716 c 128,-1,52
 418 716 418 716 396 698.5 c 128,-1,53
 374 681 374 681 374 647 c 0,54,55
 374 638 374 638 383 624 c 128,-1,46
 392 610 392 610 414 610 c 128,-1,47
EndSplineSet
EndChar

StartChar: ae
Encoding: 230 230 167
Width: 757
GlyphClass: 2
Flags: W
LayerCount: 2
Fore
SplineSet
438 142 m 0,0,1
 438 47 438 47 522 47 c 0,2,3
 579 47 579 47 678 54 c 2,4,-1
 707 56 l 1,5,-1
 696 4 l 1,6,7
 592 -10 592 -10 517 -10 c 0,8,9
 423 -10 423 -10 392 46 c 1,10,11
 343 25 343 25 276 7.5 c 128,-1,12
 209 -10 209 -10 165 -10 c 0,13,14
 103 -10 103 -10 80 34 c 1,15,16
 64 62 64 62 64 91 c 0,17,18
 64 198 64 198 127 244 c 0,19,20
 172 276 172 276 247 287.5 c 128,-1,21
 322 299 322 299 403 304 c 1,22,23
 419 352 419 352 419 384 c 0,24,25
 419 450 419 450 352 450 c 0,26,27
 303 450 303 450 202 442 c 1,28,-1
 173 439 l 1,29,-1
 182 496 l 1,30,31
 294 509 294 509 353 509 c 0,32,33
 466 509 466 509 476 428 c 1,34,35
 538 509 538 509 649 509 c 0,36,37
 788 509 788 509 791 374 c 1,38,39
 791 321 791 321 777 271 c 2,40,-1
 764 223 l 1,41,-1
 450 225 l 1,42,43
 438 174 438 174 438 142 c 0,0,1
127 110 m 0,44,45
 127 46 127 46 183 46 c 0,46,47
 253 46 253 46 378 90 c 1,48,49
 374 110 374 110 374 143 c 128,-1,50
 374 176 374 176 393 252 c 1,51,52
 283 241 283 241 241 235 c 0,53,54
 151 221 151 221 132 143 c 0,55,56
 127 126 127 126 127 110 c 0,44,45
732 360 m 0,57,58
 732 454 732 454 636 454 c 0,59,60
 569 454 569 454 526 411.5 c 128,-1,61
 483 369 483 369 461 276 c 1,62,-1
 719 274 l 1,63,64
 732 327 732 327 732 360 c 0,57,58
EndSplineSet
EndChar

StartChar: ccedilla
Encoding: 231 231 168
Width: 405
GlyphClass: 2
Flags: W
LayerCount: 2
Fore
SplineSet
240 -48 m 2,0,1
 323 -48 323 -48 323 -102 c 0,2,3
 323 -112 323 -112 320 -124 c 0,4,5
 301 -207 301 -207 216 -207 c 1,6,-1
 138 -201 l 1,7,-1
 149 -157 l 1,8,9
 188 -161 188 -161 216 -161 c 0,10,11
 258 -161 258 -161 268 -122 c 0,12,13
 269 -116 269 -116 269 -111 c 0,14,15
 269 -86 269 -86 234 -86 c 2,16,-1
 190 -86 l 1,17,-1
 209 -7 l 1,18,19
 95 11 95 11 95 137 c 0,20,21
 95 288 95 288 158 395 c 0,22,23
 190 448 190 448 241.5 479 c 128,-1,24
 293 510 293 510 358 510 c 0,25,26
 407 510 407 510 460 498 c 2,27,-1
 477 494 l 1,28,-1
 462 446 l 1,29,30
 400 457 400 457 356 457 c 0,31,32
 290 457 290 457 244 410 c 0,33,34
 156 322 156 322 156 147 c 0,35,36
 156 95 156 95 182 69 c 128,-1,37
 208 43 208 43 266 43 c 0,38,39
 301 43 301 43 360 55 c 2,40,-1
 379 59 l 1,41,-1
 376 11 l 1,42,43
 308 -10 308 -10 248 -10 c 2,44,-1
 245 -10 l 1,45,-1
 235 -48 l 1,46,-1
 240 -48 l 2,0,1
EndSplineSet
EndChar

StartChar: egrave
Encoding: 232 232 169
Width: 458
GlyphClass: 2
Flags: W
LayerCount: 2
Fore
SplineSet
181.5 70 m 128,-1,1
 209 44 209 44 249 44 c 0,2,3
 326 44 326 44 396 62 c 1,4,-1
 420 69 l 1,5,-1
 416 20 l 1,6,7
 329 -10 329 -10 250 -10 c 0,8,9
 93 -10 93 -10 93 138 c 0,10,11
 93 274 93 274 158 387 c 0,12,13
 189 442 189 442 242 475.5 c 128,-1,14
 295 509 295 509 362 509 c 0,15,16
 503 509 503 509 503 395 c 0,17,18
 503 307 503 307 435 271.5 c 128,-1,19
 367 236 367 236 222 236 c 2,20,-1
 166 236 l 1,21,22
 154 186 154 186 154 141 c 128,-1,0
 154 96 154 96 181.5 70 c 128,-1,1
234 285 m 2,23,24
 344 285 344 285 393.5 308.5 c 128,-1,25
 443 332 443 332 443 395 c 128,-1,26
 443 458 443 458 359 458 c 0,27,28
 228 458 228 458 175 285 c 1,29,-1
 234 285 l 2,23,24
257 734 m 1,30,-1
 433 640 l 1,31,-1
 405 599 l 1,32,-1
 228 687 l 1,33,-1
 257 734 l 1,30,-1
EndSplineSet
EndChar

StartChar: eacute
Encoding: 233 233 170
Width: 458
GlyphClass: 2
Flags: W
LayerCount: 2
Fore
SplineSet
181.5 70 m 128,-1,1
 209 44 209 44 249 44 c 0,2,3
 326 44 326 44 396 62 c 1,4,-1
 420 69 l 1,5,-1
 416 20 l 1,6,7
 329 -10 329 -10 250 -10 c 0,8,9
 93 -10 93 -10 93 138 c 0,10,11
 93 274 93 274 158 387 c 0,12,13
 189 442 189 442 242 475.5 c 128,-1,14
 295 509 295 509 362 509 c 0,15,16
 503 509 503 509 503 395 c 0,17,18
 503 307 503 307 435 271.5 c 128,-1,19
 367 236 367 236 222 236 c 2,20,-1
 166 236 l 1,21,22
 154 186 154 186 154 141 c 128,-1,0
 154 96 154 96 181.5 70 c 128,-1,1
234 285 m 2,23,24
 344 285 344 285 393.5 308.5 c 128,-1,25
 443 332 443 332 443 395 c 128,-1,26
 443 458 443 458 359 458 c 0,27,28
 228 458 228 458 175 285 c 1,29,-1
 234 285 l 2,23,24
305 601 m 1,30,-1
 299 647 l 1,31,-1
 517 741 l 1,32,-1
 524 688 l 1,33,-1
 305 601 l 1,30,-1
EndSplineSet
EndChar

StartChar: ecircumflex
Encoding: 234 234 171
Width: 458
GlyphClass: 2
Flags: W
LayerCount: 2
Fore
SplineSet
228 590 m 1,0,-1
 380 735 l 1,1,-1
 421 735 l 1,2,-1
 508 590 l 1,3,-1
 447 590 l 1,4,-1
 393 682 l 1,5,-1
 296 590 l 1,6,-1
 228 590 l 1,0,-1
181.5 70 m 128,-1,8
 209 44 209 44 249 44 c 0,9,10
 326 44 326 44 396 62 c 1,11,-1
 420 69 l 1,12,-1
 416 20 l 1,13,14
 329 -10 329 -10 250 -10 c 0,15,16
 93 -10 93 -10 93 138 c 0,17,18
 93 274 93 274 158 387 c 0,19,20
 189 442 189 442 242 475.5 c 128,-1,21
 295 509 295 509 362 509 c 0,22,23
 503 509 503 509 503 395 c 0,24,25
 503 307 503 307 435 271.5 c 128,-1,26
 367 236 367 236 222 236 c 2,27,-1
 166 236 l 1,28,29
 154 186 154 186 154 141 c 128,-1,7
 154 96 154 96 181.5 70 c 128,-1,8
234 285 m 2,30,31
 344 285 344 285 393.5 308.5 c 128,-1,32
 443 332 443 332 443 395 c 128,-1,33
 443 458 443 458 359 458 c 0,34,35
 228 458 228 458 175 285 c 1,36,-1
 234 285 l 2,30,31
EndSplineSet
EndChar

StartChar: edieresis
Encoding: 235 235 172
Width: 458
GlyphClass: 2
Flags: W
LayerCount: 2
Fore
SplineSet
263 625 m 1,0,-1
 282 707 l 1,1,-1
 338 707 l 1,2,-1
 319 625 l 1,3,-1
 263 625 l 1,0,-1
449 625 m 1,4,-1
 467 707 l 1,5,-1
 523 707 l 1,6,-1
 503 625 l 1,7,-1
 449 625 l 1,4,-1
181.5 70 m 128,-1,9
 209 44 209 44 249 44 c 0,10,11
 326 44 326 44 396 62 c 1,12,-1
 420 69 l 1,13,-1
 416 20 l 1,14,15
 329 -10 329 -10 250 -10 c 0,16,17
 93 -10 93 -10 93 138 c 0,18,19
 93 274 93 274 158 387 c 0,20,21
 189 442 189 442 242 475.5 c 128,-1,22
 295 509 295 509 362 509 c 0,23,24
 503 509 503 509 503 395 c 0,25,26
 503 307 503 307 435 271.5 c 128,-1,27
 367 236 367 236 222 236 c 2,28,-1
 166 236 l 1,29,30
 154 186 154 186 154 141 c 128,-1,8
 154 96 154 96 181.5 70 c 128,-1,9
234 285 m 2,31,32
 344 285 344 285 393.5 308.5 c 128,-1,33
 443 332 443 332 443 395 c 128,-1,34
 443 458 443 458 359 458 c 0,35,36
 228 458 228 458 175 285 c 1,37,-1
 234 285 l 2,31,32
EndSplineSet
EndChar

StartChar: igrave
Encoding: 236 236 173
Width: 197
GlyphClass: 2
Flags: W
LayerCount: 2
Fore
SplineSet
68 0 m 1,0,-1
 184 500 l 1,1,-1
 244 500 l 1,2,-1
 128 0 l 1,3,-1
 68 0 l 1,0,-1
107 734 m 1,4,-1
 283 640 l 1,5,-1
 255 599 l 1,6,-1
 78 687 l 1,7,-1
 107 734 l 1,4,-1
EndSplineSet
EndChar

StartChar: iacute
Encoding: 237 237 174
Width: 197
GlyphClass: 2
Flags: W
LayerCount: 2
Fore
SplineSet
68 0 m 1,0,-1
 184 500 l 1,1,-1
 244 500 l 1,2,-1
 128 0 l 1,3,-1
 68 0 l 1,0,-1
196 601 m 1,4,-1
 190 647 l 1,5,-1
 408 741 l 1,6,-1
 415 688 l 1,7,-1
 196 601 l 1,4,-1
EndSplineSet
EndChar

StartChar: icircumflex
Encoding: 238 238 175
Width: 197
GlyphClass: 2
Flags: W
LayerCount: 2
Fore
SplineSet
88 590 m 1,0,-1
 239 735 l 1,1,-1
 281 735 l 1,2,-1
 367 590 l 1,3,-1
 306 590 l 1,4,-1
 252 682 l 1,5,-1
 155 590 l 1,6,-1
 88 590 l 1,0,-1
68 0 m 1,7,-1
 184 500 l 1,8,-1
 244 500 l 1,9,-1
 128 0 l 1,10,-1
 68 0 l 1,7,-1
EndSplineSet
EndChar

StartChar: idieresis
Encoding: 239 239 176
Width: 197
GlyphClass: 2
Flags: W
LayerCount: 2
Fore
SplineSet
107 625 m 1,0,-1
 126 707 l 1,1,-1
 182 707 l 1,2,-1
 162 625 l 1,3,-1
 107 625 l 1,0,-1
293 625 m 1,4,-1
 310 707 l 1,5,-1
 366 707 l 1,6,-1
 347 625 l 1,7,-1
 293 625 l 1,4,-1
68 0 m 1,8,-1
 184 500 l 1,9,-1
 244 500 l 1,10,-1
 128 0 l 1,11,-1
 68 0 l 1,8,-1
EndSplineSet
EndChar

StartChar: eth
Encoding: 240 240 177
Width: 514
GlyphClass: 2
Flags: W
LayerCount: 2
Fore
SplineSet
558 445 m 0,0,1
 558 404 558 404 547 358 c 0,2,3
 501 165 501 165 428.5 78 c 128,-1,4
 356 -9 356 -9 247 -9 c 0,5,6
 157 -9 157 -9 119 35 c 128,-1,7
 81 79 81 79 81 136 c 0,8,9
 81 146 81 146 82 156 c 0,10,11
 89 278 89 278 162.5 353.5 c 128,-1,12
 236 429 236 429 338 429 c 0,13,14
 370 429 370 429 408.5 419.5 c 128,-1,15
 447 410 447 410 470 400 c 2,16,-1
 493 390 l 1,17,18
 497 413 497 413 497 434 c 0,19,20
 497 541 497 541 399 607 c 1,21,-1
 280 533 l 1,22,-1
 256 572 l 1,23,-1
 354 633 l 1,24,25
 318 652 318 652 255 672 c 1,26,-1
 280 726 l 1,27,28
 359 707 359 707 417 673 c 1,29,-1
 525 741 l 1,30,-1
 548 701 l 1,31,-1
 459 645 l 1,32,33
 558 568 558 568 558 445 c 0,0,1
329 370 m 0,34,35
 254 370 254 370 201.5 309.5 c 128,-1,36
 149 249 149 249 147 160 c 0,37,38
 146 154 146 154 146 148 c 0,39,40
 146 106 146 106 172.5 78.5 c 128,-1,41
 199 51 199 51 261 51 c 0,42,43
 409 51 409 51 480 331 c 1,44,45
 464 343 464 343 411.5 356.5 c 128,-1,46
 359 370 359 370 329 370 c 0,34,35
EndSplineSet
EndChar

StartChar: ntilde
Encoding: 241 241 178
Width: 494
GlyphClass: 2
Flags: W
LayerCount: 2
Fore
SplineSet
373 456 m 0,0,1
 333 456 333 456 282 412 c 0,2,3
 262 396 262 396 242 374.5 c 128,-1,4
 222 353 222 353 215.5 344.5 c 128,-1,5
 209 336 209 336 205 331 c 1,6,-1
 128 0 l 1,7,-1
 68 0 l 1,8,-1
 184 500 l 1,9,-1
 242 500 l 1,10,-1
 221 403 l 1,11,-1
 244 430 l 2,12,13
 266 456 266 456 309 483 c 128,-1,14
 352 510 352 510 400.5 510 c 128,-1,15
 449 510 449 510 479 477 c 128,-1,16
 509 444 509 444 509 392 c 128,-1,17
 509 340 509 340 489 256 c 2,18,-1
 429 0 l 1,19,-1
 370 0 l 1,20,-1
 429 252 l 2,21,22
 448 333 448 333 448 377 c 0,23,24
 448 456 448 456 373 456 c 0,0,1
463 620 m 0,25,26
 444 620 444 620 396 644.5 c 128,-1,27
 348 669 348 669 337 669 c 0,28,29
 317 669 317 669 272 636 c 2,30,-1
 257 625 l 1,31,-1
 255 672 l 1,32,33
 315 722 315 722 349 722 c 0,34,35
 371 722 371 722 417 697.5 c 128,-1,36
 463 673 463 673 472 673 c 0,37,38
 490 673 490 673 533 704 c 2,39,-1
 547 714 l 1,40,-1
 551 668 l 1,41,42
 497 620 497 620 463 620 c 0,25,26
EndSplineSet
EndChar

StartChar: ograve
Encoding: 242 242 179
Width: 494
GlyphClass: 2
Flags: W
LayerCount: 2
Fore
SplineSet
345 509 m 0,0,1
 513 509 513 509 513 344 c 0,2,3
 513 196 513 196 442.5 93 c 128,-1,4
 372 -10 372 -10 258 -10 c 0,5,6
 94 -10 94 -10 94 148 c 0,7,8
 94 297 94 297 165.5 403 c 128,-1,9
 237 509 237 509 345 509 c 0,0,1
258 43 m 0,10,11
 344 43 344 43 398 131.5 c 128,-1,12
 452 220 452 220 452 345 c 0,13,14
 452 396 452 396 425 426.5 c 128,-1,15
 398 457 398 457 345 457 c 0,16,17
 262 457 262 457 208 365 c 128,-1,18
 154 273 154 273 154 148 c 0,19,20
 154 43 154 43 258 43 c 0,10,11
284 734 m 1,21,-1
 460 640 l 1,22,-1
 432 599 l 1,23,-1
 255 687 l 1,24,-1
 284 734 l 1,21,-1
EndSplineSet
EndChar

StartChar: oacute
Encoding: 243 243 180
Width: 494
GlyphClass: 2
Flags: W
LayerCount: 2
Fore
SplineSet
345 509 m 0,0,1
 513 509 513 509 513 344 c 0,2,3
 513 196 513 196 442.5 93 c 128,-1,4
 372 -10 372 -10 258 -10 c 0,5,6
 94 -10 94 -10 94 148 c 0,7,8
 94 297 94 297 165.5 403 c 128,-1,9
 237 509 237 509 345 509 c 0,0,1
258 43 m 0,10,11
 344 43 344 43 398 131.5 c 128,-1,12
 452 220 452 220 452 345 c 0,13,14
 452 396 452 396 425 426.5 c 128,-1,15
 398 457 398 457 345 457 c 0,16,17
 262 457 262 457 208 365 c 128,-1,18
 154 273 154 273 154 148 c 0,19,20
 154 43 154 43 258 43 c 0,10,11
306 601 m 1,21,-1
 300 647 l 1,22,-1
 518 741 l 1,23,-1
 525 688 l 1,24,-1
 306 601 l 1,21,-1
EndSplineSet
EndChar

StartChar: ocircumflex
Encoding: 244 244 181
Width: 494
GlyphClass: 2
Flags: W
LayerCount: 2
Fore
SplineSet
244 590 m 1,0,-1
 396 735 l 1,1,-1
 437 735 l 1,2,-1
 524 590 l 1,3,-1
 462 590 l 1,4,-1
 408 682 l 1,5,-1
 311 590 l 1,6,-1
 244 590 l 1,0,-1
345 509 m 0,7,8
 513 509 513 509 513 344 c 0,9,10
 513 196 513 196 442.5 93 c 128,-1,11
 372 -10 372 -10 258 -10 c 0,12,13
 94 -10 94 -10 94 148 c 0,14,15
 94 297 94 297 165.5 403 c 128,-1,16
 237 509 237 509 345 509 c 0,7,8
258 43 m 0,17,18
 344 43 344 43 398 131.5 c 128,-1,19
 452 220 452 220 452 345 c 0,20,21
 452 396 452 396 425 426.5 c 128,-1,22
 398 457 398 457 345 457 c 0,23,24
 262 457 262 457 208 365 c 128,-1,25
 154 273 154 273 154 148 c 0,26,27
 154 43 154 43 258 43 c 0,17,18
EndSplineSet
EndChar

StartChar: otilde
Encoding: 245 245 182
Width: 494
GlyphClass: 2
Flags: W
LayerCount: 2
Fore
SplineSet
345 509 m 0,0,1
 513 509 513 509 513 344 c 0,2,3
 513 196 513 196 442.5 93 c 128,-1,4
 372 -10 372 -10 258 -10 c 0,5,6
 94 -10 94 -10 94 148 c 0,7,8
 94 297 94 297 165.5 403 c 128,-1,9
 237 509 237 509 345 509 c 0,0,1
258 43 m 0,10,11
 344 43 344 43 398 131.5 c 128,-1,12
 452 220 452 220 452 345 c 0,13,14
 452 396 452 396 425 426.5 c 128,-1,15
 398 457 398 457 345 457 c 0,16,17
 262 457 262 457 208 365 c 128,-1,18
 154 273 154 273 154 148 c 0,19,20
 154 43 154 43 258 43 c 0,10,11
450 620 m 0,21,22
 430 620 430 620 383 644.5 c 128,-1,23
 336 669 336 669 324 669 c 0,24,25
 304 669 304 669 259 636 c 2,26,-1
 244 625 l 1,27,-1
 242 672 l 1,28,29
 302 722 302 722 336 722 c 0,30,31
 358 722 358 722 404 697.5 c 128,-1,32
 450 673 450 673 460 673 c 0,33,34
 477 673 477 673 520 704 c 2,35,-1
 534 714 l 1,36,-1
 538 668 l 1,37,38
 484 620 484 620 450 620 c 0,21,22
EndSplineSet
EndChar

StartChar: odieresis
Encoding: 246 246 183
Width: 494
GlyphClass: 2
Flags: W
LayerCount: 2
Fore
SplineSet
345 509 m 0,0,1
 513 509 513 509 513 344 c 0,2,3
 513 196 513 196 442.5 93 c 128,-1,4
 372 -10 372 -10 258 -10 c 0,5,6
 94 -10 94 -10 94 148 c 0,7,8
 94 297 94 297 165.5 403 c 128,-1,9
 237 509 237 509 345 509 c 0,0,1
258 43 m 0,10,11
 344 43 344 43 398 131.5 c 128,-1,12
 452 220 452 220 452 345 c 0,13,14
 452 396 452 396 425 426.5 c 128,-1,15
 398 457 398 457 345 457 c 0,16,17
 262 457 262 457 208 365 c 128,-1,18
 154 273 154 273 154 148 c 0,19,20
 154 43 154 43 258 43 c 0,10,11
271 625 m 1,21,-1
 290 707 l 1,22,-1
 339 707 l 1,23,-1
 320 625 l 1,24,-1
 271 625 l 1,21,-1
450 625 m 1,25,-1
 468 707 l 1,26,-1
 517 707 l 1,27,-1
 498 625 l 1,28,-1
 450 625 l 1,25,-1
EndSplineSet
EndChar

StartChar: divide
Encoding: 247 247 184
Width: 560
GlyphClass: 2
Flags: W
LayerCount: 2
Fore
SplineSet
155 263 m 1,0,-1
 155 322 l 1,1,-1
 521 322 l 1,2,-1
 521 263 l 1,3,-1
 155 263 l 1,0,-1
266 335 m 1,4,-1
 266 425 l 1,5,-1
 410 425 l 1,6,-1
 410 335 l 1,7,-1
 266 335 l 1,4,-1
307 33 m 1,8,-1
 307 126 l 1,9,-1
 368 126 l 1,10,-1
 368 33 l 1,11,-1
 307 33 l 1,8,-1
EndSplineSet
EndChar

StartChar: oslash
Encoding: 248 248 185
Width: 493
GlyphClass: 2
Flags: W
LayerCount: 2
Fore
SplineSet
346 511 m 0,0,1
 394 511 394 511 432 495 c 1,2,-1
 499 604 l 1,3,-1
 537 588 l 1,4,-1
 465 475 l 1,5,6
 514 432 514 432 514 346 c 0,7,8
 514 198 514 198 443.5 95 c 128,-1,9
 373 -8 373 -8 259 -8 c 0,10,11
 208 -8 208 -8 172 7 c 1,12,-1
 99 -112 l 1,13,-1
 61 -96 l 1,14,-1
 139 27 l 1,15,16
 95 66 95 66 95 150 c 0,17,18
 95 299 95 299 166.5 405 c 128,-1,19
 238 511 238 511 346 511 c 0,0,1
259 45 m 0,20,21
 345 45 345 45 399 133.5 c 128,-1,22
 453 222 453 222 453 347 c 0,23,24
 453 393 453 393 432 421 c 1,25,-1
 317 240 l 1,26,-1
 203 56 l 1,27,28
 224 45 224 45 259 45 c 0,20,21
346 459 m 0,29,30
 263 459 263 459 209 367 c 128,-1,31
 155 275 155 275 155 150 c 0,32,33
 155 106 155 106 173 81 c 1,34,-1
 285 258 l 1,35,-1
 402 447 l 1,36,37
 379 459 379 459 346 459 c 0,29,30
EndSplineSet
EndChar

StartChar: ugrave
Encoding: 249 249 186
Width: 494
GlyphClass: 2
Flags: W
LayerCount: 2
Fore
SplineSet
286 734 m 1,0,-1
 462 640 l 1,1,-1
 434 599 l 1,2,-1
 257 687 l 1,3,-1
 286 734 l 1,0,-1
217 -10 m 0,4,5
 161 -10 161 -10 130.5 23 c 128,-1,6
 100 56 100 56 100 108 c 128,-1,7
 100 160 100 160 120 244 c 2,8,-1
 180 500 l 1,9,-1
 239 500 l 1,10,-1
 180 248 l 2,11,12
 161 167 161 167 161 126 c 0,13,14
 161 44 161 44 236 44 c 0,15,16
 269 44 269 44 311 75 c 128,-1,17
 353 106 353 106 378 137 c 2,18,-1
 404 168 l 1,19,-1
 481 500 l 1,20,-1
 541 500 l 1,21,-1
 425 0 l 1,22,-1
 367 0 l 1,23,-1
 388 97 l 1,24,25
 338 30 338 30 270 2 c 0,26,27
 242 -10 242 -10 217 -10 c 0,4,5
EndSplineSet
EndChar

StartChar: uacute
Encoding: 250 250 187
Width: 494
GlyphClass: 2
Flags: W
LayerCount: 2
Fore
SplineSet
217 -10 m 0,0,1
 161 -10 161 -10 130.5 23 c 128,-1,2
 100 56 100 56 100 108 c 128,-1,3
 100 160 100 160 120 244 c 2,4,-1
 180 500 l 1,5,-1
 239 500 l 1,6,-1
 180 248 l 2,7,8
 161 167 161 167 161 126 c 0,9,10
 161 44 161 44 236 44 c 0,11,12
 269 44 269 44 311 75 c 128,-1,13
 353 106 353 106 378 137 c 2,14,-1
 404 168 l 1,15,-1
 481 500 l 1,16,-1
 541 500 l 1,17,-1
 425 0 l 1,18,-1
 367 0 l 1,19,-1
 388 97 l 1,20,21
 338 30 338 30 270 2 c 0,22,23
 242 -10 242 -10 217 -10 c 0,0,1
319 601 m 1,24,-1
 313 647 l 1,25,-1
 531 741 l 1,26,-1
 538 688 l 1,27,-1
 319 601 l 1,24,-1
EndSplineSet
EndChar

StartChar: ucircumflex
Encoding: 251 251 188
Width: 494
GlyphClass: 2
Flags: W
LayerCount: 2
Fore
SplineSet
225 590 m 1,0,-1
 377 735 l 1,1,-1
 418 735 l 1,2,-1
 505 590 l 1,3,-1
 444 590 l 1,4,-1
 390 682 l 1,5,-1
 293 590 l 1,6,-1
 225 590 l 1,0,-1
217 -10 m 0,7,8
 161 -10 161 -10 130.5 23 c 128,-1,9
 100 56 100 56 100 108 c 128,-1,10
 100 160 100 160 120 244 c 2,11,-1
 180 500 l 1,12,-1
 239 500 l 1,13,-1
 180 248 l 2,14,15
 161 167 161 167 161 126 c 0,16,17
 161 44 161 44 236 44 c 0,18,19
 269 44 269 44 311 75 c 128,-1,20
 353 106 353 106 378 137 c 2,21,-1
 404 168 l 1,22,-1
 481 500 l 1,23,-1
 541 500 l 1,24,-1
 425 0 l 1,25,-1
 367 0 l 1,26,-1
 388 97 l 1,27,28
 338 30 338 30 270 2 c 0,29,30
 242 -10 242 -10 217 -10 c 0,7,8
EndSplineSet
EndChar

StartChar: udieresis
Encoding: 252 252 189
Width: 494
GlyphClass: 2
Flags: W
LayerCount: 2
Fore
SplineSet
256 625 m 1,0,-1
 275 707 l 1,1,-1
 331 707 l 1,2,-1
 312 625 l 1,3,-1
 256 625 l 1,0,-1
442 625 m 1,4,-1
 460 707 l 1,5,-1
 516 707 l 1,6,-1
 496 625 l 1,7,-1
 442 625 l 1,4,-1
217 -10 m 0,8,9
 161 -10 161 -10 130.5 23 c 128,-1,10
 100 56 100 56 100 108 c 128,-1,11
 100 160 100 160 120 244 c 2,12,-1
 180 500 l 1,13,-1
 239 500 l 1,14,-1
 180 248 l 2,15,16
 161 167 161 167 161 126 c 0,17,18
 161 44 161 44 236 44 c 0,19,20
 269 44 269 44 311 75 c 128,-1,21
 353 106 353 106 378 137 c 2,22,-1
 404 168 l 1,23,-1
 481 500 l 1,24,-1
 541 500 l 1,25,-1
 425 0 l 1,26,-1
 367 0 l 1,27,-1
 388 97 l 1,28,29
 338 30 338 30 270 2 c 0,30,31
 242 -10 242 -10 217 -10 c 0,8,9
EndSplineSet
EndChar

StartChar: yacute
Encoding: 253 253 190
Width: 452
GlyphClass: 2
Flags: W
LayerCount: 2
Fore
SplineSet
142 500 m 1,0,-1
 201 500 l 1,1,-1
 215 52 l 1,2,-1
 249 52 l 1,3,-1
 478 500 l 1,4,-1
 541 500 l 1,5,-1
 167 -224 l 1,6,-1
 106 -224 l 1,7,-1
 224 0 l 1,8,-1
 159 0 l 1,9,-1
 142 500 l 1,0,-1
293 601 m 1,10,-1
 287 647 l 1,11,-1
 505 741 l 1,12,-1
 512 688 l 1,13,-1
 293 601 l 1,10,-1
EndSplineSet
EndChar

StartChar: thorn
Encoding: 254 254 191
Width: 480
GlyphClass: 2
Flags: W
LayerCount: 2
Fore
SplineSet
382 509 m 0,0,1
 431 509 431 509 461 484.5 c 128,-1,2
 491 460 491 460 498.5 425.5 c 128,-1,3
 506 391 506 391 506 371 c 0,4,5
 506 311 506 311 492 259 c 0,6,7
 454 119 454 119 393 54.5 c 128,-1,8
 332 -10 332 -10 228 -10 c 0,9,10
 178 -10 178 -10 151 -5.5 c 128,-1,11
 124 -1 124 -1 124 0 c 2,12,-1
 71 -223 l 1,13,-1
 15 -223 l 1,14,-1
 238 720 l 1,15,-1
 295 720 l 1,16,-1
 229 446 l 1,17,18
 316 509 316 509 382 509 c 0,0,1
434 259 m 0,19,20
 445 300 445 300 445 330.5 c 128,-1,21
 445 361 445 361 441 386.5 c 128,-1,22
 437 412 437 412 417.5 432 c 128,-1,23
 398 452 398 452 366 452 c 128,-1,24
 334 452 334 452 296 434 c 128,-1,25
 258 416 258 416 236 400 c 2,26,-1
 214 384 l 1,27,-1
 137 57 l 1,28,-1
 238 47 l 1,29,30
 315 47 315 47 359 97.5 c 128,-1,31
 403 148 403 148 434 259 c 0,19,20
EndSplineSet
EndChar

StartChar: ydieresis
Encoding: 255 255 192
Width: 452
GlyphClass: 2
Flags: W
LayerCount: 2
Fore
SplineSet
235 625 m 1,0,-1
 254 707 l 1,1,-1
 310 707 l 1,2,-1
 291 625 l 1,3,-1
 235 625 l 1,0,-1
421 625 m 1,4,-1
 439 707 l 1,5,-1
 495 707 l 1,6,-1
 475 625 l 1,7,-1
 421 625 l 1,4,-1
142 500 m 1,8,-1
 201 500 l 1,9,-1
 215 52 l 1,10,-1
 249 52 l 1,11,-1
 478 500 l 1,12,-1
 541 500 l 1,13,-1
 167 -224 l 1,14,-1
 106 -224 l 1,15,-1
 224 0 l 1,16,-1
 159 0 l 1,17,-1
 142 500 l 1,8,-1
EndSplineSet
EndChar

StartChar: Amacron
Encoding: 256 256 193
Width: 555
GlyphClass: 2
Flags: W
LayerCount: 2
Fore
SplineSet
322 835 m 1,0,-1
 332 881 l 1,1,-1
 618 881 l 1,2,-1
 606 835 l 1,3,-1
 322 835 l 1,0,-1
27 0 m 1,4,-1
 382 695 l 1,5,-1
 508 695 l 1,6,-1
 531 0 l 1,7,-1
 470 0 l 1,8,-1
 462 191 l 1,9,-1
 188 191 l 1,10,-1
 89 0 l 1,11,-1
 27 0 l 1,4,-1
417 640 m 1,12,-1
 215 245 l 1,13,-1
 462 245 l 1,14,-1
 449 640 l 1,15,-1
 417 640 l 1,12,-1
EndSplineSet
Position2: "'cpsp' Capital Spacing in Latin lookup 0 subtable" dx=5 dy=0 dh=10 dv=0
EndChar

StartChar: amacron
Encoding: 257 257 194
Width: 493
GlyphClass: 2
Flags: W
LayerCount: 2
Fore
SplineSet
216 -10 m 0,0,1
 91 -10 91 -10 91 131 c 0,2,3
 91 262 91 262 154 380 c 0,4,5
 184 437 184 437 233.5 473.5 c 128,-1,6
 283 510 283 510 342 510 c 0,7,8
 396 510 396 510 501 492 c 2,9,-1
 536 486 l 1,10,-1
 460 161 l 2,11,12
 446 105 446 105 436 27 c 1,13,-1
 432 1 l 1,14,-1
 374 -1 l 1,15,16
 389 92 389 92 393 113 c 1,17,18
 389 108 389 108 382.5 99.5 c 128,-1,19
 376 91 376 91 356.5 70 c 128,-1,20
 337 49 337 49 317 33 c 128,-1,21
 297 17 297 17 269 3.5 c 128,-1,22
 241 -10 241 -10 216 -10 c 0,0,1
467 442 m 1,23,24
 395 457 395 457 339.5 457 c 128,-1,25
 284 457 284 457 239 402 c 128,-1,26
 194 347 194 347 173.5 274.5 c 128,-1,27
 153 202 153 202 153 144.5 c 128,-1,28
 153 87 153 87 171.5 65 c 128,-1,29
 190 43 190 43 227 43 c 128,-1,30
 264 43 264 43 307 78 c 128,-1,31
 350 113 350 113 378 148 c 2,32,-1
 406 184 l 1,33,-1
 467 442 l 1,23,24
287 642 m 1,34,-1
 298 689 l 1,35,-1
 565 689 l 1,36,-1
 553 642 l 1,37,-1
 287 642 l 1,34,-1
EndSplineSet
EndChar

StartChar: Abreve
Encoding: 258 258 195
Width: 555
GlyphClass: 2
Flags: W
LayerCount: 2
Fore
SplineSet
406 921 m 1,0,1
 404 909 404 909 404 892 c 128,-1,2
 404 875 404 875 418 860.5 c 128,-1,3
 432 846 432 846 468 846 c 128,-1,4
 504 846 504 846 532.5 867 c 128,-1,5
 561 888 561 888 570 921 c 1,6,-1
 623 921 l 1,7,8
 606 862 606 862 563.5 830 c 128,-1,9
 521 798 521 798 459.5 798 c 128,-1,10
 398 798 398 798 370 829 c 0,11,12
 350 851 350 851 350 889 c 0,13,14
 350 904 350 904 353 921 c 1,15,-1
 406 921 l 1,0,1
27 0 m 1,16,-1
 382 695 l 1,17,-1
 508 695 l 1,18,-1
 531 0 l 1,19,-1
 470 0 l 1,20,-1
 462 191 l 1,21,-1
 188 191 l 1,22,-1
 89 0 l 1,23,-1
 27 0 l 1,16,-1
417 640 m 1,24,-1
 215 245 l 1,25,-1
 462 245 l 1,26,-1
 449 640 l 1,27,-1
 417 640 l 1,24,-1
EndSplineSet
Position2: "'cpsp' Capital Spacing in Latin lookup 0 subtable" dx=5 dy=0 dh=10 dv=0
EndChar

StartChar: abreve
Encoding: 259 259 196
Width: 493
GlyphClass: 2
Flags: W
LayerCount: 2
Fore
SplineSet
216 -10 m 0,0,1
 91 -10 91 -10 91 131 c 0,2,3
 91 262 91 262 154 380 c 0,4,5
 184 437 184 437 233.5 473.5 c 128,-1,6
 283 510 283 510 342 510 c 0,7,8
 396 510 396 510 501 492 c 2,9,-1
 536 486 l 1,10,-1
 460 161 l 2,11,12
 446 105 446 105 436 27 c 1,13,-1
 432 1 l 1,14,-1
 374 -1 l 1,15,16
 389 92 389 92 393 113 c 1,17,18
 389 108 389 108 382.5 99.5 c 128,-1,19
 376 91 376 91 356.5 70 c 128,-1,20
 337 49 337 49 317 33 c 128,-1,21
 297 17 297 17 269 3.5 c 128,-1,22
 241 -10 241 -10 216 -10 c 0,0,1
467 442 m 1,23,24
 395 457 395 457 339.5 457 c 128,-1,25
 284 457 284 457 239 402 c 128,-1,26
 194 347 194 347 173.5 274.5 c 128,-1,27
 153 202 153 202 153 144.5 c 128,-1,28
 153 87 153 87 171.5 65 c 128,-1,29
 190 43 190 43 227 43 c 128,-1,30
 264 43 264 43 307 78 c 128,-1,31
 350 113 350 113 378 148 c 2,32,-1
 406 184 l 1,33,-1
 467 442 l 1,23,24
358 727 m 1,34,35
 355 714 355 714 355 698 c 128,-1,36
 355 682 355 682 366 666 c 0,37,38
 382 643 382 643 424 643 c 0,39,40
 507 643 507 643 530 727 c 1,41,-1
 582 727 l 1,42,43
 544 594 544 594 409 594 c 0,44,45
 347 594 347 594 320 631 c 1,46,47
 303 656 303 656 303 682 c 128,-1,48
 303 708 303 708 307 727 c 1,49,-1
 358 727 l 1,34,35
EndSplineSet
EndChar

StartChar: Aogonek
Encoding: 260 260 197
Width: 555
GlyphClass: 2
Flags: W
LayerCount: 2
Fore
SplineSet
531 0 m 1,0,-1
 528 0 l 1,1,2
 497 -24 497 -24 465.5 -62.5 c 128,-1,3
 434 -101 434 -101 434 -126 c 0,4,5
 434 -148 434 -148 462 -148 c 1,6,-1
 513 -142 l 1,7,-1
 507 -193 l 1,8,9
 465 -202 465 -202 436 -202 c 0,10,11
 368 -202 368 -202 368 -142 c 0,12,13
 368 -109 368 -109 400 -69 c 128,-1,14
 432 -29 432 -29 470 3 c 1,15,-1
 462 191 l 1,16,-1
 188 191 l 1,17,-1
 89 0 l 1,18,-1
 27 0 l 1,19,-1
 382 695 l 1,20,-1
 508 695 l 1,21,-1
 531 3 l 1,22,-1
 532 3 l 1,23,-1
 531 2 l 1,24,-1
 531 0 l 1,0,-1
417 640 m 1,25,-1
 215 245 l 1,26,-1
 462 245 l 1,27,-1
 449 640 l 1,28,-1
 417 640 l 1,25,-1
EndSplineSet
Position2: "'cpsp' Capital Spacing in Latin lookup 0 subtable" dx=5 dy=0 dh=10 dv=0
EndChar

StartChar: aogonek
Encoding: 261 261 198
Width: 493
GlyphClass: 2
Flags: W
LayerCount: 2
Fore
SplineSet
334 -202 m 0,0,1
 266 -202 266 -202 266 -142 c 0,2,3
 266 -107 266 -107 302 -63 c 128,-1,4
 338 -19 338 -19 375 9 c 1,5,6
 376 14 376 14 383.5 58 c 128,-1,7
 391 102 391 102 393 113 c 1,8,9
 389 108 389 108 382.5 99.5 c 128,-1,10
 376 91 376 91 356.5 70 c 128,-1,11
 337 49 337 49 317 33 c 128,-1,12
 297 17 297 17 269 3.5 c 128,-1,13
 241 -10 241 -10 216 -10 c 0,14,15
 91 -10 91 -10 91 131 c 0,16,17
 91 262 91 262 154 380 c 0,18,19
 184 437 184 437 233.5 473.5 c 128,-1,20
 283 510 283 510 342 510 c 0,21,22
 396 510 396 510 501 492 c 2,23,-1
 536 486 l 1,24,-1
 460 161 l 2,25,26
 446 105 446 105 436 27 c 1,27,-1
 432 1 l 1,28,-1
 427 1 l 1,29,30
 397 -22 397 -22 364.5 -61.5 c 128,-1,31
 332 -101 332 -101 332 -126 c 0,32,33
 332 -148 332 -148 360 -148 c 1,34,-1
 411 -142 l 1,35,-1
 405 -193 l 1,36,37
 363 -202 363 -202 334 -202 c 0,0,1
467 442 m 1,38,39
 395 457 395 457 339.5 457 c 128,-1,40
 284 457 284 457 239 402 c 128,-1,41
 194 347 194 347 173.5 274.5 c 128,-1,42
 153 202 153 202 153 144.5 c 128,-1,43
 153 87 153 87 171.5 65 c 128,-1,44
 190 43 190 43 227 43 c 128,-1,45
 264 43 264 43 307 78 c 128,-1,46
 350 113 350 113 378 148 c 2,47,-1
 406 184 l 1,48,-1
 467 442 l 1,38,39
EndSplineSet
EndChar

StartChar: Cacute
Encoding: 262 262 199
Width: 506
GlyphClass: 2
Flags: W
LayerCount: 2
Fore
SplineSet
305 -10 m 0,0,1
 115 -10 115 -10 115 189 c 0,2,3
 115 331 115 331 168 462 c 0,4,5
 196 531 196 531 235.5 584.5 c 128,-1,6
 275 638 275 638 334.5 671.5 c 128,-1,7
 394 705 394 705 464 705 c 0,8,9
 533 705 533 705 605 688 c 1,10,-1
 629 683 l 1,11,-1
 615 633 l 1,12,13
 534 649 534 649 463.5 649 c 128,-1,14
 393 649 393 649 338 605.5 c 128,-1,15
 283 562 283 562 250 493 c 0,16,17
 179 348 179 348 179 191 c 0,18,19
 179 117 179 117 211.5 81.5 c 128,-1,20
 244 46 244 46 314 46 c 0,21,22
 389 46 389 46 453 58 c 1,23,-1
 476 63 l 1,24,-1
 473 12 l 1,25,26
 384 -10 384 -10 305 -10 c 0,0,1
417 790 m 1,27,-1
 409 835 l 1,28,-1
 628 930 l 1,29,-1
 637 878 l 1,30,-1
 417 790 l 1,27,-1
EndSplineSet
Position2: "'cpsp' Capital Spacing in Latin lookup 0 subtable" dx=5 dy=0 dh=10 dv=0
EndChar

StartChar: cacute
Encoding: 263 263 200
Width: 404
GlyphClass: 2
Flags: W
LayerCount: 2
Fore
SplineSet
460 498 m 2,0,-1
 477 494 l 1,1,-1
 462 446 l 1,2,3
 400 457 400 457 356 457 c 0,4,5
 290 457 290 457 244 410 c 0,6,7
 156 322 156 322 156 147 c 0,8,9
 156 95 156 95 182 69 c 128,-1,10
 208 43 208 43 266 43 c 0,11,12
 301 43 301 43 360 55 c 2,13,-1
 379 59 l 1,14,-1
 376 11 l 1,15,16
 308 -10 308 -10 248 -10 c 0,17,18
 95 -10 95 -10 95 137 c 0,19,20
 95 288 95 288 158 395 c 0,21,22
 190 448 190 448 241.5 479 c 128,-1,23
 293 510 293 510 350 510 c 128,-1,24
 407 510 407 510 460 498 c 2,0,-1
300 601 m 1,25,-1
 294 647 l 1,26,-1
 512 741 l 1,27,-1
 519 688 l 1,28,-1
 300 601 l 1,25,-1
EndSplineSet
EndChar

StartChar: Ccircumflex
Encoding: 264 264 201
Width: 506
GlyphClass: 2
Flags: W
LayerCount: 2
Fore
SplineSet
305 -10 m 0,0,1
 115 -10 115 -10 115 189 c 0,2,3
 115 331 115 331 168 462 c 0,4,5
 196 531 196 531 235.5 584.5 c 128,-1,6
 275 638 275 638 334.5 671.5 c 128,-1,7
 394 705 394 705 464 705 c 0,8,9
 533 705 533 705 605 688 c 1,10,-1
 629 683 l 1,11,-1
 615 633 l 1,12,13
 534 649 534 649 463.5 649 c 128,-1,14
 393 649 393 649 338 605.5 c 128,-1,15
 283 562 283 562 250 493 c 0,16,17
 179 348 179 348 179 191 c 0,18,19
 179 117 179 117 211.5 81.5 c 128,-1,20
 244 46 244 46 314 46 c 0,21,22
 389 46 389 46 453 58 c 1,23,-1
 476 63 l 1,24,-1
 473 12 l 1,25,26
 384 -10 384 -10 305 -10 c 0,0,1
346 797 m 1,27,-1
 507 931 l 1,28,-1
 537 931 l 1,29,-1
 634 797 l 1,30,-1
 578 797 l 1,31,-1
 517 883 l 1,32,-1
 412 797 l 1,33,-1
 346 797 l 1,27,-1
EndSplineSet
Position2: "'cpsp' Capital Spacing in Latin lookup 0 subtable" dx=5 dy=0 dh=10 dv=0
EndChar

StartChar: ccircumflex
Encoding: 265 265 202
Width: 404
GlyphClass: 2
Flags: W
LayerCount: 2
Fore
SplineSet
460 498 m 2,0,-1
 477 494 l 1,1,-1
 462 446 l 1,2,3
 400 457 400 457 356 457 c 0,4,5
 290 457 290 457 244 410 c 0,6,7
 156 322 156 322 156 147 c 0,8,9
 156 95 156 95 182 69 c 128,-1,10
 208 43 208 43 266 43 c 0,11,12
 301 43 301 43 360 55 c 2,13,-1
 379 59 l 1,14,-1
 376 11 l 1,15,16
 308 -10 308 -10 248 -10 c 0,17,18
 95 -10 95 -10 95 137 c 0,19,20
 95 288 95 288 158 395 c 0,21,22
 190 448 190 448 241.5 479 c 128,-1,23
 293 510 293 510 350 510 c 128,-1,24
 407 510 407 510 460 498 c 2,0,-1
234 590 m 1,25,-1
 385 735 l 1,26,-1
 416 735 l 1,27,-1
 503 590 l 1,28,-1
 447 590 l 1,29,-1
 393 682 l 1,30,-1
 296 590 l 1,31,-1
 234 590 l 1,25,-1
EndSplineSet
EndChar

StartChar: Cdotaccent
Encoding: 266 266 203
Width: 506
GlyphClass: 2
Flags: W
LayerCount: 2
Fore
SplineSet
305 -10 m 0,0,1
 115 -10 115 -10 115 189 c 0,2,3
 115 331 115 331 168 462 c 0,4,5
 196 531 196 531 235.5 584.5 c 128,-1,6
 275 638 275 638 334.5 671.5 c 128,-1,7
 394 705 394 705 464 705 c 0,8,9
 533 705 533 705 605 688 c 1,10,-1
 629 683 l 1,11,-1
 615 633 l 1,12,13
 534 649 534 649 463.5 649 c 128,-1,14
 393 649 393 649 338 605.5 c 128,-1,15
 283 562 283 562 250 493 c 0,16,17
 179 348 179 348 179 191 c 0,18,19
 179 117 179 117 211.5 81.5 c 128,-1,20
 244 46 244 46 314 46 c 0,21,22
 389 46 389 46 453 58 c 1,23,-1
 476 63 l 1,24,-1
 473 12 l 1,25,26
 384 -10 384 -10 305 -10 c 0,0,1
461 798 m 1,27,-1
 478 876 l 1,28,-1
 528 876 l 1,29,-1
 511 798 l 1,30,-1
 461 798 l 1,27,-1
EndSplineSet
Position2: "'cpsp' Capital Spacing in Latin lookup 0 subtable" dx=5 dy=0 dh=10 dv=0
EndChar

StartChar: cdotaccent
Encoding: 267 267 204
Width: 404
GlyphClass: 2
Flags: W
LayerCount: 2
Fore
SplineSet
460 498 m 2,0,-1
 477 494 l 1,1,-1
 462 446 l 1,2,3
 400 457 400 457 356 457 c 0,4,5
 290 457 290 457 244 410 c 0,6,7
 156 322 156 322 156 147 c 0,8,9
 156 95 156 95 182 69 c 128,-1,10
 208 43 208 43 266 43 c 0,11,12
 301 43 301 43 360 55 c 2,13,-1
 379 59 l 1,14,-1
 376 11 l 1,15,16
 308 -10 308 -10 248 -10 c 0,17,18
 95 -10 95 -10 95 137 c 0,19,20
 95 288 95 288 158 395 c 0,21,22
 190 448 190 448 241.5 479 c 128,-1,23
 293 510 293 510 350 510 c 128,-1,24
 407 510 407 510 460 498 c 2,0,-1
341 610 m 1,25,-1
 360 688 l 1,26,-1
 411 688 l 1,27,-1
 393 610 l 1,28,-1
 341 610 l 1,25,-1
EndSplineSet
EndChar

StartChar: Ccaron
Encoding: 268 268 205
Width: 506
GlyphClass: 2
Flags: W
LayerCount: 2
Fore
SplineSet
305 -10 m 0,0,1
 115 -10 115 -10 115 189 c 0,2,3
 115 331 115 331 168 462 c 0,4,5
 196 531 196 531 235.5 584.5 c 128,-1,6
 275 638 275 638 334.5 671.5 c 128,-1,7
 394 705 394 705 464 705 c 0,8,9
 533 705 533 705 605 688 c 1,10,-1
 629 683 l 1,11,-1
 615 633 l 1,12,13
 534 649 534 649 463.5 649 c 128,-1,14
 393 649 393 649 338 605.5 c 128,-1,15
 283 562 283 562 250 493 c 0,16,17
 179 348 179 348 179 191 c 0,18,19
 179 117 179 117 211.5 81.5 c 128,-1,20
 244 46 244 46 314 46 c 0,21,22
 389 46 389 46 453 58 c 1,23,-1
 476 63 l 1,24,-1
 473 12 l 1,25,26
 384 -10 384 -10 305 -10 c 0,0,1
663 930 m 1,27,-1
 507 796 l 1,28,-1
 471 796 l 1,29,-1
 373 930 l 1,30,-1
 432 930 l 1,31,-1
 497 841 l 1,32,-1
 600 930 l 1,33,-1
 663 930 l 1,27,-1
EndSplineSet
Position2: "'cpsp' Capital Spacing in Latin lookup 0 subtable" dx=5 dy=0 dh=10 dv=0
EndChar

StartChar: ccaron
Encoding: 269 269 206
Width: 404
GlyphClass: 2
Flags: W
LayerCount: 2
Fore
SplineSet
387 590 m 1,0,-1
 355 590 l 1,1,-1
 270 735 l 1,2,-1
 325 735 l 1,3,-1
 382 640 l 1,4,-1
 481 735 l 1,5,-1
 543 735 l 1,6,-1
 387 590 l 1,0,-1
460 498 m 2,7,-1
 477 494 l 1,8,-1
 462 446 l 1,9,10
 400 457 400 457 356 457 c 0,11,12
 290 457 290 457 244 410 c 0,13,14
 156 322 156 322 156 147 c 0,15,16
 156 95 156 95 182 69 c 128,-1,17
 208 43 208 43 266 43 c 0,18,19
 301 43 301 43 360 55 c 2,20,-1
 379 59 l 1,21,-1
 376 11 l 1,22,23
 308 -10 308 -10 248 -10 c 0,24,25
 95 -10 95 -10 95 137 c 0,26,27
 95 288 95 288 158 395 c 0,28,29
 190 448 190 448 241.5 479 c 128,-1,30
 293 510 293 510 350 510 c 128,-1,31
 407 510 407 510 460 498 c 2,7,-1
EndSplineSet
EndChar

StartChar: Dcaron
Encoding: 270 270 207
Width: 607
GlyphClass: 2
Flags: W
LayerCount: 2
Fore
SplineSet
319 0 m 2,0,-1
 81 0 l 1,1,-1
 241 695 l 1,2,-1
 466 695 l 2,3,4
 559 695 559 695 604 645.5 c 128,-1,5
 649 596 649 596 649 489 c 0,6,7
 649 351 649 351 598 227 c 0,8,9
 572 162 572 162 534 112 c 128,-1,10
 496 62 496 62 440.5 31 c 128,-1,11
 385 0 385 0 319 0 c 2,0,-1
554.5 604 m 128,-1,13
 524 640 524 640 454 640 c 2,14,-1
 290 640 l 1,15,-1
 156 55 l 1,16,-1
 329 55 l 2,17,18
 390 55 390 55 440.5 98.5 c 128,-1,19
 491 142 491 142 521.5 208.5 c 128,-1,20
 552 275 552 275 568.5 348.5 c 128,-1,21
 585 422 585 422 585 495 c 128,-1,12
 585 568 585 568 554.5 604 c 128,-1,13
621 930 m 1,22,-1
 465 796 l 1,23,-1
 429 796 l 1,24,-1
 331 930 l 1,25,-1
 390 930 l 1,26,-1
 455 841 l 1,27,-1
 558 930 l 1,28,-1
 621 930 l 1,22,-1
EndSplineSet
Position2: "'cpsp' Capital Spacing in Latin lookup 0 subtable" dx=5 dy=0 dh=10 dv=0
EndChar

StartChar: dcaron
Encoding: 271 271 208
Width: 530
GlyphClass: 2
Flags: W
LayerCount: 2
Fore
SplineSet
700 695 m 1,0,-1
 647 467 l 1,1,-1
 592 467 l 1,2,-1
 646 695 l 1,3,-1
 700 695 l 1,0,-1
213 -10 m 0,4,5
 91 -10 91 -10 91 129 c 0,6,7
 91 217 91 217 119.5 302.5 c 128,-1,8
 148 388 148 388 206.5 448.5 c 128,-1,9
 265 509 265 509 340 509 c 0,10,11
 390 509 390 509 456 496 c 2,12,-1
 477 492 l 1,13,-1
 531 722 l 1,14,-1
 591 722 l 1,15,-1
 423 0 l 1,16,-1
 365 0 l 1,17,-1
 387 98 l 1,18,19
 336 30 336 30 267 2 c 0,20,21
 239 -10 239 -10 213 -10 c 0,4,5
466 442 m 1,22,23
 399 457 399 457 341 457 c 128,-1,24
 283 457 283 457 238.5 401.5 c 128,-1,25
 194 346 194 346 173.5 273 c 128,-1,26
 153 200 153 200 153 129 c 0,27,28
 153 43 153 43 231 43 c 0,29,30
 264 43 264 43 307 75 c 128,-1,31
 350 107 350 107 377 140 c 2,32,-1
 404 172 l 1,33,-1
 466 442 l 1,22,23
EndSplineSet
EndChar

StartChar: Dcroat
Encoding: 272 272 209
Width: 611
GlyphClass: 2
Flags: W
LayerCount: 2
Fore
SplineSet
322 0 m 2,0,-1
 84 0 l 1,1,-1
 157 318 l 1,2,-1
 87 318 l 1,3,-1
 100 380 l 1,4,-1
 171 380 l 1,5,-1
 244 695 l 1,6,-1
 469 695 l 2,7,8
 562 695 562 695 607 645.5 c 128,-1,9
 652 596 652 596 652 489 c 0,10,11
 652 351 652 351 602 227 c 0,12,13
 545 87 545 87 444 31 c 0,14,15
 388 0 388 0 322 0 c 2,0,-1
571.5 348.5 m 128,-1,17
 588 422 588 422 588 495 c 128,-1,18
 588 568 588 568 557.5 604 c 128,-1,19
 527 640 527 640 457 640 c 2,20,-1
 293 640 l 1,21,-1
 233 380 l 1,22,-1
 382 380 l 1,23,-1
 368 318 l 1,24,-1
 219 318 l 1,25,-1
 159 55 l 1,26,-1
 332 55 l 2,27,28
 393 55 393 55 443.5 98.5 c 128,-1,29
 494 142 494 142 524.5 208.5 c 128,-1,16
 555 275 555 275 571.5 348.5 c 128,-1,17
EndSplineSet
Position2: "'cpsp' Capital Spacing in Latin lookup 0 subtable" dx=5 dy=0 dh=10 dv=0
EndChar

StartChar: dcroat
Encoding: 273 273 210
Width: 493
GlyphClass: 2
Flags: W
LayerCount: 2
Fore
SplineSet
213 -10 m 0,0,1
 91 -10 91 -10 91 129 c 0,2,3
 91 217 91 217 119.5 302.5 c 128,-1,4
 148 388 148 388 206.5 448.5 c 128,-1,5
 265 509 265 509 340 509 c 0,6,7
 390 509 390 509 456 496 c 2,8,-1
 477 492 l 1,9,-1
 502 599 l 1,10,-1
 352 599 l 1,11,-1
 364 656 l 1,12,-1
 515 656 l 1,13,-1
 531 722 l 1,14,-1
 591 722 l 1,15,-1
 575 656 l 1,16,-1
 631 656 l 1,17,-1
 618 599 l 1,18,-1
 562 599 l 1,19,-1
 423 0 l 1,20,-1
 365 0 l 1,21,-1
 387 98 l 1,22,23
 336 30 336 30 267 2 c 0,24,25
 239 -10 239 -10 213 -10 c 0,0,1
466 442 m 1,26,27
 399 457 399 457 341 457 c 128,-1,28
 283 457 283 457 238.5 401.5 c 128,-1,29
 194 346 194 346 173.5 273 c 128,-1,30
 153 200 153 200 153 129 c 0,31,32
 153 43 153 43 231 43 c 0,33,34
 264 43 264 43 307 75 c 128,-1,35
 350 107 350 107 377 140 c 2,36,-1
 404 172 l 1,37,-1
 466 442 l 1,26,27
EndSplineSet
EndChar

StartChar: Emacron
Encoding: 274 274 211
Width: 507
GlyphClass: 2
Flags: W
LayerCount: 2
Fore
SplineSet
313 828 m 1,0,-1
 323 874 l 1,1,-1
 609 874 l 1,2,-1
 597 828 l 1,3,-1
 313 828 l 1,0,-1
81 0 m 1,4,-1
 241 695 l 1,5,-1
 624 695 l 1,6,-1
 611 640 l 1,7,-1
 290 640 l 1,8,-1
 230 382 l 1,9,-1
 496 382 l 1,10,-1
 483 327 l 1,11,-1
 218 327 l 1,12,-1
 155 55 l 1,13,-1
 476 55 l 1,14,-1
 463 0 l 1,15,-1
 81 0 l 1,4,-1
EndSplineSet
Position2: "'cpsp' Capital Spacing in Latin lookup 0 subtable" dx=5 dy=0 dh=10 dv=0
EndChar

StartChar: emacron
Encoding: 275 275 212
Width: 458
GlyphClass: 2
Flags: W
LayerCount: 2
Fore
SplineSet
181.5 70 m 128,-1,1
 209 44 209 44 249 44 c 0,2,3
 326 44 326 44 396 62 c 1,4,-1
 420 69 l 1,5,-1
 416 20 l 1,6,7
 329 -10 329 -10 250 -10 c 0,8,9
 93 -10 93 -10 93 138 c 0,10,11
 93 274 93 274 158 387 c 0,12,13
 189 442 189 442 242 475.5 c 128,-1,14
 295 509 295 509 362 509 c 0,15,16
 503 509 503 509 503 395 c 0,17,18
 503 307 503 307 435 271.5 c 128,-1,19
 367 236 367 236 222 236 c 2,20,-1
 166 236 l 1,21,22
 154 186 154 186 154 141 c 128,-1,0
 154 96 154 96 181.5 70 c 128,-1,1
234 285 m 2,23,24
 344 285 344 285 393.5 308.5 c 128,-1,25
 443 332 443 332 443 395 c 128,-1,26
 443 458 443 458 359 458 c 0,27,28
 228 458 228 458 175 285 c 1,29,-1
 234 285 l 2,23,24
264 642 m 1,30,-1
 275 689 l 1,31,-1
 542 689 l 1,32,-1
 530 642 l 1,33,-1
 264 642 l 1,30,-1
EndSplineSet
EndChar

StartChar: Ebreve
Encoding: 276 276 213
Width: 507
GlyphClass: 2
Flags: W
LayerCount: 2
Fore
SplineSet
393 922 m 1,0,1
 391 910 391 910 391 893 c 128,-1,2
 391 876 391 876 405 861.5 c 128,-1,3
 419 847 419 847 455 847 c 128,-1,4
 491 847 491 847 519.5 868 c 128,-1,5
 548 889 548 889 557 922 c 1,6,-1
 610 922 l 1,7,8
 593 863 593 863 550.5 831 c 128,-1,9
 508 799 508 799 446.5 799 c 128,-1,10
 385 799 385 799 357 830 c 0,11,12
 337 852 337 852 337 890 c 0,13,14
 337 905 337 905 340 922 c 1,15,-1
 393 922 l 1,0,1
81 0 m 1,16,-1
 241 695 l 1,17,-1
 624 695 l 1,18,-1
 611 640 l 1,19,-1
 290 640 l 1,20,-1
 230 382 l 1,21,-1
 496 382 l 1,22,-1
 483 327 l 1,23,-1
 218 327 l 1,24,-1
 155 55 l 1,25,-1
 476 55 l 1,26,-1
 463 0 l 1,27,-1
 81 0 l 1,16,-1
EndSplineSet
Position2: "'cpsp' Capital Spacing in Latin lookup 0 subtable" dx=5 dy=0 dh=10 dv=0
EndChar

StartChar: ebreve
Encoding: 277 277 214
Width: 458
GlyphClass: 2
Flags: W
LayerCount: 2
Fore
SplineSet
181.5 70 m 128,-1,1
 209 44 209 44 249 44 c 0,2,3
 326 44 326 44 396 62 c 1,4,-1
 420 69 l 1,5,-1
 416 20 l 1,6,7
 329 -10 329 -10 250 -10 c 0,8,9
 93 -10 93 -10 93 138 c 0,10,11
 93 274 93 274 158 387 c 0,12,13
 189 442 189 442 242 475.5 c 128,-1,14
 295 509 295 509 362 509 c 0,15,16
 503 509 503 509 503 395 c 0,17,18
 503 307 503 307 435 271.5 c 128,-1,19
 367 236 367 236 222 236 c 2,20,-1
 166 236 l 1,21,22
 154 186 154 186 154 141 c 128,-1,0
 154 96 154 96 181.5 70 c 128,-1,1
234 285 m 2,23,24
 344 285 344 285 393.5 308.5 c 128,-1,25
 443 332 443 332 443 395 c 128,-1,26
 443 458 443 458 359 458 c 0,27,28
 228 458 228 458 175 285 c 1,29,-1
 234 285 l 2,23,24
328 727 m 1,30,31
 325 714 325 714 325 698 c 128,-1,32
 325 682 325 682 336 666 c 0,33,34
 352 643 352 643 394 643 c 0,35,36
 477 643 477 643 500 727 c 1,37,-1
 552 727 l 1,38,39
 514 594 514 594 379 594 c 0,40,41
 317 594 317 594 290 631 c 1,42,43
 273 656 273 656 273 682 c 128,-1,44
 273 708 273 708 277 727 c 1,45,-1
 328 727 l 1,30,31
EndSplineSet
EndChar

StartChar: Edotaccent
Encoding: 278 278 215
Width: 507
GlyphClass: 2
Flags: W
LayerCount: 2
Fore
SplineSet
430 844 m 1,0,-1
 447 922 l 1,1,-1
 497 922 l 1,2,-1
 480 844 l 1,3,-1
 430 844 l 1,0,-1
81 0 m 1,4,-1
 241 695 l 1,5,-1
 624 695 l 1,6,-1
 611 640 l 1,7,-1
 290 640 l 1,8,-1
 230 382 l 1,9,-1
 496 382 l 1,10,-1
 483 327 l 1,11,-1
 218 327 l 1,12,-1
 155 55 l 1,13,-1
 476 55 l 1,14,-1
 463 0 l 1,15,-1
 81 0 l 1,4,-1
EndSplineSet
Position2: "'cpsp' Capital Spacing in Latin lookup 0 subtable" dx=5 dy=0 dh=10 dv=0
EndChar

StartChar: edotaccent
Encoding: 279 279 216
Width: 458
GlyphClass: 2
Flags: W
LayerCount: 2
Fore
SplineSet
181.5 70 m 128,-1,1
 209 44 209 44 249 44 c 0,2,3
 326 44 326 44 396 62 c 1,4,-1
 420 69 l 1,5,-1
 416 20 l 1,6,7
 329 -10 329 -10 250 -10 c 0,8,9
 93 -10 93 -10 93 138 c 0,10,11
 93 274 93 274 158 387 c 0,12,13
 189 442 189 442 242 475.5 c 128,-1,14
 295 509 295 509 362 509 c 0,15,16
 503 509 503 509 503 395 c 0,17,18
 503 307 503 307 435 271.5 c 128,-1,19
 367 236 367 236 222 236 c 2,20,-1
 166 236 l 1,21,22
 154 186 154 186 154 141 c 128,-1,0
 154 96 154 96 181.5 70 c 128,-1,1
234 285 m 2,23,24
 344 285 344 285 393.5 308.5 c 128,-1,25
 443 332 443 332 443 395 c 128,-1,26
 443 458 443 458 359 458 c 0,27,28
 228 458 228 458 175 285 c 1,29,-1
 234 285 l 2,23,24
346 610 m 1,30,-1
 365 688 l 1,31,-1
 416 688 l 1,32,-1
 398 610 l 1,33,-1
 346 610 l 1,30,-1
EndSplineSet
EndChar

StartChar: Eogonek
Encoding: 280 280 217
Width: 507
GlyphClass: 2
Flags: W
LayerCount: 2
Fore
SplineSet
347 -126 m 0,0,1
 347 -148 347 -148 375 -148 c 1,2,-1
 426 -142 l 1,3,-1
 420 -193 l 1,4,5
 378 -202 378 -202 349 -202 c 0,6,7
 281 -202 281 -202 281 -142.5 c 128,-1,8
 281 -83 281 -83 379 0 c 1,9,-1
 81 0 l 1,10,-1
 241 695 l 1,11,-1
 624 695 l 1,12,-1
 611 640 l 1,13,-1
 290 640 l 1,14,-1
 230 382 l 1,15,-1
 496 382 l 1,16,-1
 483 327 l 1,17,-1
 218 327 l 1,18,-1
 155 55 l 1,19,-1
 476 55 l 1,20,-1
 463 0 l 1,21,-1
 441 0 l 1,22,23
 410 -24 410 -24 378.5 -62.5 c 128,-1,24
 347 -101 347 -101 347 -126 c 0,0,1
EndSplineSet
Position2: "'cpsp' Capital Spacing in Latin lookup 0 subtable" dx=5 dy=0 dh=10 dv=0
EndChar

StartChar: eogonek
Encoding: 281 281 218
Width: 458
GlyphClass: 2
Flags: W
LayerCount: 2
Fore
SplineSet
317 -182 m 0,0,1
 249 -182 249 -182 249 -122 c 0,2,3
 249 -73 249 -73 322 -2 c 1,4,5
 280 -10 280 -10 240 -10 c 0,6,7
 170 -10 170 -10 131.5 27.5 c 128,-1,8
 93 65 93 65 93 134.5 c 128,-1,9
 93 204 93 204 109.5 268 c 128,-1,10
 126 332 126 332 157.5 387 c 128,-1,11
 189 442 189 442 242 475.5 c 128,-1,12
 295 509 295 509 362 509 c 0,13,14
 503 509 503 509 503 395 c 0,15,16
 503 307 503 307 435 271.5 c 128,-1,17
 367 236 367 236 222 236 c 2,18,-1
 166 236 l 1,19,20
 154 186 154 186 154 141 c 128,-1,21
 154 96 154 96 181.5 70 c 128,-1,22
 209 44 209 44 249 44 c 0,23,24
 326 44 326 44 396 62 c 1,25,-1
 420 69 l 1,26,-1
 416 20 l 1,27,28
 411 18 411 18 404 16 c 1,29,30
 373 -10 373 -10 344 -46 c 128,-1,31
 315 -82 315 -82 315 -106 c 0,32,33
 315 -128 315 -128 343 -128 c 1,34,-1
 394 -122 l 1,35,-1
 388 -173 l 1,36,37
 346 -182 346 -182 317 -182 c 0,0,1
234 285 m 2,38,39
 344 285 344 285 393.5 308.5 c 128,-1,40
 443 332 443 332 443 395 c 128,-1,41
 443 458 443 458 359 458 c 0,42,43
 228 458 228 458 175 285 c 1,44,-1
 234 285 l 2,38,39
EndSplineSet
EndChar

StartChar: Ecaron
Encoding: 282 282 219
Width: 507
GlyphClass: 2
Flags: W
LayerCount: 2
Fore
SplineSet
617 934 m 1,0,-1
 461 800 l 1,1,-1
 425 800 l 1,2,-1
 327 934 l 1,3,-1
 386 934 l 1,4,-1
 451 845 l 1,5,-1
 554 934 l 1,6,-1
 617 934 l 1,0,-1
81 0 m 1,7,-1
 241 695 l 1,8,-1
 624 695 l 1,9,-1
 611 640 l 1,10,-1
 290 640 l 1,11,-1
 230 382 l 1,12,-1
 496 382 l 1,13,-1
 483 327 l 1,14,-1
 218 327 l 1,15,-1
 155 55 l 1,16,-1
 476 55 l 1,17,-1
 463 0 l 1,18,-1
 81 0 l 1,7,-1
EndSplineSet
Position2: "'cpsp' Capital Spacing in Latin lookup 0 subtable" dx=5 dy=0 dh=10 dv=0
EndChar

StartChar: ecaron
Encoding: 283 283 220
Width: 458
GlyphClass: 2
Flags: W
LayerCount: 2
Fore
SplineSet
181.5 70 m 128,-1,1
 209 44 209 44 249 44 c 0,2,3
 326 44 326 44 396 62 c 1,4,-1
 420 69 l 1,5,-1
 416 20 l 1,6,7
 329 -10 329 -10 250 -10 c 0,8,9
 93 -10 93 -10 93 138 c 0,10,11
 93 274 93 274 158 387 c 0,12,13
 189 442 189 442 242 475.5 c 128,-1,14
 295 509 295 509 362 509 c 0,15,16
 503 509 503 509 503 395 c 0,17,18
 503 307 503 307 435 271.5 c 128,-1,19
 367 236 367 236 222 236 c 2,20,-1
 166 236 l 1,21,22
 154 186 154 186 154 141 c 128,-1,0
 154 96 154 96 181.5 70 c 128,-1,1
234 285 m 2,23,24
 344 285 344 285 393.5 308.5 c 128,-1,25
 443 332 443 332 443 395 c 128,-1,26
 443 458 443 458 359 458 c 0,27,28
 228 458 228 458 175 285 c 1,29,-1
 234 285 l 2,23,24
399 590 m 1,30,-1
 367 590 l 1,31,-1
 282 735 l 1,32,-1
 337 735 l 1,33,-1
 394 640 l 1,34,-1
 493 735 l 1,35,-1
 555 735 l 1,36,-1
 399 590 l 1,30,-1
EndSplineSet
EndChar

StartChar: Gcircumflex
Encoding: 284 284 221
Width: 573
GlyphClass: 2
Flags: W
LayerCount: 2
Fore
SplineSet
349 785 m 1,0,-1
 500 930 l 1,1,-1
 542 930 l 1,2,-1
 628 785 l 1,3,-1
 567 785 l 1,4,-1
 513 877 l 1,5,-1
 416 785 l 1,6,-1
 349 785 l 1,0,-1
320 -10 m 0,7,8
 116 -10 116 -10 116 182 c 0,9,10
 116 377 116 377 200 534 c 0,11,12
 242 611 242 611 311.5 658 c 128,-1,13
 381 705 381 705 469 705 c 0,14,15
 553 705 553 705 640 683 c 2,16,-1
 667 676 l 1,17,-1
 651 628 l 1,18,19
 550 650 550 650 470.5 650 c 128,-1,20
 391 650 391 650 335 605 c 128,-1,21
 279 560 279 560 246 488 c 0,22,23
 180 342 180 342 180 181 c 0,24,25
 180 45 180 45 326 45 c 0,26,27
 382 45 382 45 442 58 c 1,28,-1
 462 63 l 1,29,-1
 518 301 l 1,30,-1
 403 301 l 1,31,-1
 415 354 l 1,32,-1
 592 354 l 1,33,-1
 513 18 l 1,34,35
 420 -10 420 -10 320 -10 c 0,7,8
EndSplineSet
Position2: "'cpsp' Capital Spacing in Latin lookup 0 subtable" dx=5 dy=0 dh=10 dv=0
EndChar

StartChar: gcircumflex
Encoding: 285 285 222
Width: 464
GlyphClass: 2
Flags: W
LayerCount: 2
Fore
SplineSet
189 -237 m 0,0,1
 111 -237 111 -237 65.5 -201.5 c 128,-1,2
 20 -166 20 -166 20 -107 c 0,3,4
 20 -22 20 -22 155 50 c 1,5,6
 140 65 140 65 140 88 c 128,-1,7
 140 111 140 111 153 135.5 c 128,-1,8
 166 160 166 160 180 174 c 1,9,-1
 193 189 l 1,10,11
 124 220 124 220 124 301.5 c 128,-1,12
 124 383 124 383 178.5 446.5 c 128,-1,13
 233 510 233 510 324 510 c 0,14,15
 370 510 370 510 403 498 c 2,16,-1
 414 494 l 1,17,-1
 562 500 l 1,18,-1
 550 447 l 1,19,-1
 453 447 l 1,20,21
 472 418 472 418 472 374 c 0,22,23
 472 299 472 299 416.5 236 c 128,-1,24
 361 173 361 173 261 173 c 1,25,-1
 231 175 l 1,26,27
 196 131 196 131 196 107.5 c 128,-1,28
 196 84 196 84 214.5 76.5 c 128,-1,29
 233 69 233 69 302.5 60.5 c 128,-1,30
 372 52 372 52 406.5 26 c 128,-1,31
 441 0 441 0 441 -55 c 0,32,33
 441 -129 441 -129 372 -183 c 128,-1,34
 303 -237 303 -237 189 -237 c 0,0,1
111 -28 m 128,-1,36
 78 -60 78 -60 78 -97.5 c 128,-1,37
 78 -135 78 -135 108 -160 c 128,-1,38
 138 -185 138 -185 204.5 -185 c 128,-1,39
 271 -185 271 -185 326.5 -150 c 128,-1,40
 382 -115 382 -115 382 -59 c 0,41,42
 382 -25 382 -25 359 -10.5 c 128,-1,43
 336 4 336 4 273.5 11 c 128,-1,44
 211 18 211 18 189 27 c 1,45,35
 144 4 144 4 111 -28 c 128,-1,36
269 224 m 0,46,47
 339 224 339 224 377 271.5 c 128,-1,48
 415 319 415 319 415 366 c 128,-1,49
 415 413 415 413 393 435.5 c 128,-1,50
 371 458 371 458 314.5 458 c 128,-1,51
 258 458 258 458 220 410.5 c 128,-1,52
 182 363 182 363 182 310 c 0,53,54
 182 224 182 224 269 224 c 0,46,47
218 590 m 1,55,-1
 369 735 l 1,56,-1
 400 735 l 1,57,-1
 487 590 l 1,58,-1
 431 590 l 1,59,-1
 377 682 l 1,60,-1
 280 590 l 1,61,-1
 218 590 l 1,55,-1
EndSplineSet
EndChar

StartChar: Gbreve
Encoding: 286 286 223
Width: 573
GlyphClass: 2
Flags: W
LayerCount: 2
Fore
SplineSet
442 922 m 1,0,1
 440 915 440 915 440 894 c 128,-1,2
 440 873 440 873 457.5 856.5 c 128,-1,3
 475 840 475 840 511.5 840 c 128,-1,4
 548 840 548 840 576 862.5 c 128,-1,5
 604 885 604 885 614 922 c 1,6,-1
 671 922 l 1,7,8
 654 860 654 860 606 821 c 128,-1,9
 558 782 558 782 498.5 782 c 128,-1,10
 439 782 439 782 410.5 811.5 c 128,-1,11
 382 841 382 841 381 886 c 0,12,13
 381 904 381 904 384 922 c 1,14,-1
 442 922 l 1,0,1
320 -10 m 0,15,16
 116 -10 116 -10 116 182 c 0,17,18
 116 377 116 377 200 534 c 0,19,20
 242 611 242 611 311.5 658 c 128,-1,21
 381 705 381 705 469 705 c 0,22,23
 553 705 553 705 640 683 c 2,24,-1
 667 676 l 1,25,-1
 651 628 l 1,26,27
 550 650 550 650 470.5 650 c 128,-1,28
 391 650 391 650 335 605 c 128,-1,29
 279 560 279 560 246 488 c 0,30,31
 180 342 180 342 180 181 c 0,32,33
 180 45 180 45 326 45 c 0,34,35
 382 45 382 45 442 58 c 1,36,-1
 462 63 l 1,37,-1
 518 301 l 1,38,-1
 403 301 l 1,39,-1
 415 354 l 1,40,-1
 592 354 l 1,41,-1
 513 18 l 1,42,43
 420 -10 420 -10 320 -10 c 0,15,16
EndSplineSet
Position2: "'cpsp' Capital Spacing in Latin lookup 0 subtable" dx=5 dy=0 dh=10 dv=0
EndChar

StartChar: gbreve
Encoding: 287 287 224
Width: 464
GlyphClass: 2
Flags: W
LayerCount: 2
Fore
SplineSet
189 -237 m 0,0,1
 111 -237 111 -237 65.5 -201.5 c 128,-1,2
 20 -166 20 -166 20 -107 c 0,3,4
 20 -22 20 -22 155 50 c 1,5,6
 140 65 140 65 140 88 c 128,-1,7
 140 111 140 111 153 135.5 c 128,-1,8
 166 160 166 160 180 174 c 1,9,-1
 193 189 l 1,10,11
 124 220 124 220 124 301.5 c 128,-1,12
 124 383 124 383 178.5 446.5 c 128,-1,13
 233 510 233 510 324 510 c 0,14,15
 370 510 370 510 403 498 c 2,16,-1
 414 494 l 1,17,-1
 562 500 l 1,18,-1
 550 447 l 1,19,-1
 453 447 l 1,20,21
 472 418 472 418 472 374 c 0,22,23
 472 299 472 299 416.5 236 c 128,-1,24
 361 173 361 173 261 173 c 1,25,-1
 231 175 l 1,26,27
 196 131 196 131 196 107.5 c 128,-1,28
 196 84 196 84 214.5 76.5 c 128,-1,29
 233 69 233 69 302.5 60.5 c 128,-1,30
 372 52 372 52 406.5 26 c 128,-1,31
 441 0 441 0 441 -55 c 0,32,33
 441 -129 441 -129 372 -183 c 128,-1,34
 303 -237 303 -237 189 -237 c 0,0,1
111 -28 m 128,-1,36
 78 -60 78 -60 78 -97.5 c 128,-1,37
 78 -135 78 -135 108 -160 c 128,-1,38
 138 -185 138 -185 204.5 -185 c 128,-1,39
 271 -185 271 -185 326.5 -150 c 128,-1,40
 382 -115 382 -115 382 -59 c 0,41,42
 382 -25 382 -25 359 -10.5 c 128,-1,43
 336 4 336 4 273.5 11 c 128,-1,44
 211 18 211 18 189 27 c 1,45,35
 144 4 144 4 111 -28 c 128,-1,36
269 224 m 0,46,47
 339 224 339 224 377 271.5 c 128,-1,48
 415 319 415 319 415 366 c 128,-1,49
 415 413 415 413 393 435.5 c 128,-1,50
 371 458 371 458 314.5 458 c 128,-1,51
 258 458 258 458 220 410.5 c 128,-1,52
 182 363 182 363 182 310 c 0,53,54
 182 224 182 224 269 224 c 0,46,47
327 727 m 1,55,56
 324 714 324 714 324 698 c 128,-1,57
 324 682 324 682 334 666 c 1,58,59
 351 643 351 643 393 643 c 0,60,61
 476 643 476 643 499 727 c 1,62,-1
 551 727 l 1,63,64
 513 594 513 594 378 594 c 0,65,66
 316 594 316 594 290 631 c 0,67,68
 272 656 272 656 272 682 c 128,-1,69
 272 708 272 708 276 727 c 1,70,-1
 327 727 l 1,55,56
EndSplineSet
EndChar

StartChar: Gdotaccent
Encoding: 288 288 225
Width: 573
GlyphClass: 2
Flags: W
LayerCount: 2
Fore
SplineSet
476 813 m 1,0,-1
 494 891 l 1,1,-1
 551 891 l 1,2,-1
 533 813 l 1,3,-1
 476 813 l 1,0,-1
320 -10 m 0,4,5
 116 -10 116 -10 116 182 c 0,6,7
 116 377 116 377 200 534 c 0,8,9
 242 611 242 611 311.5 658 c 128,-1,10
 381 705 381 705 469 705 c 0,11,12
 553 705 553 705 640 683 c 2,13,-1
 667 676 l 1,14,-1
 651 628 l 1,15,16
 550 650 550 650 470.5 650 c 128,-1,17
 391 650 391 650 335 605 c 128,-1,18
 279 560 279 560 246 488 c 0,19,20
 180 342 180 342 180 181 c 0,21,22
 180 45 180 45 326 45 c 0,23,24
 382 45 382 45 442 58 c 1,25,-1
 462 63 l 1,26,-1
 518 301 l 1,27,-1
 403 301 l 1,28,-1
 415 354 l 1,29,-1
 592 354 l 1,30,-1
 513 18 l 1,31,32
 420 -10 420 -10 320 -10 c 0,4,5
EndSplineSet
Position2: "'cpsp' Capital Spacing in Latin lookup 0 subtable" dx=5 dy=0 dh=10 dv=0
EndChar

StartChar: gdotaccent
Encoding: 289 289 226
Width: 464
GlyphClass: 2
Flags: W
LayerCount: 2
Fore
SplineSet
189 -237 m 0,0,1
 111 -237 111 -237 65.5 -201.5 c 128,-1,2
 20 -166 20 -166 20 -107 c 0,3,4
 20 -22 20 -22 155 50 c 1,5,6
 140 65 140 65 140 88 c 128,-1,7
 140 111 140 111 153 135.5 c 128,-1,8
 166 160 166 160 180 174 c 1,9,-1
 193 189 l 1,10,11
 124 220 124 220 124 301.5 c 128,-1,12
 124 383 124 383 178.5 446.5 c 128,-1,13
 233 510 233 510 324 510 c 0,14,15
 370 510 370 510 403 498 c 2,16,-1
 414 494 l 1,17,-1
 562 500 l 1,18,-1
 550 447 l 1,19,-1
 453 447 l 1,20,21
 472 418 472 418 472 374 c 0,22,23
 472 299 472 299 416.5 236 c 128,-1,24
 361 173 361 173 261 173 c 1,25,-1
 231 175 l 1,26,27
 196 131 196 131 196 107.5 c 128,-1,28
 196 84 196 84 214.5 76.5 c 128,-1,29
 233 69 233 69 302.5 60.5 c 128,-1,30
 372 52 372 52 406.5 26 c 128,-1,31
 441 0 441 0 441 -55 c 0,32,33
 441 -129 441 -129 372 -183 c 128,-1,34
 303 -237 303 -237 189 -237 c 0,0,1
111 -28 m 128,-1,36
 78 -60 78 -60 78 -97.5 c 128,-1,37
 78 -135 78 -135 108 -160 c 128,-1,38
 138 -185 138 -185 204.5 -185 c 128,-1,39
 271 -185 271 -185 326.5 -150 c 128,-1,40
 382 -115 382 -115 382 -59 c 0,41,42
 382 -25 382 -25 359 -10.5 c 128,-1,43
 336 4 336 4 273.5 11 c 128,-1,44
 211 18 211 18 189 27 c 1,45,35
 144 4 144 4 111 -28 c 128,-1,36
269 224 m 0,46,47
 339 224 339 224 377 271.5 c 128,-1,48
 415 319 415 319 415 366 c 128,-1,49
 415 413 415 413 393 435.5 c 128,-1,50
 371 458 371 458 314.5 458 c 128,-1,51
 258 458 258 458 220 410.5 c 128,-1,52
 182 363 182 363 182 310 c 0,53,54
 182 224 182 224 269 224 c 0,46,47
331 610 m 1,55,-1
 350 688 l 1,56,-1
 401 688 l 1,57,-1
 383 610 l 1,58,-1
 331 610 l 1,55,-1
EndSplineSet
EndChar

StartChar: Gcommaaccent
Encoding: 290 290 227
Width: 573
GlyphClass: 2
Flags: W
LayerCount: 2
Fore
SplineSet
320 -10 m 0,0,1
 116 -10 116 -10 116 182 c 0,2,3
 116 377 116 377 200 534 c 0,4,5
 242 611 242 611 311.5 658 c 128,-1,6
 381 705 381 705 469 705 c 0,7,8
 553 705 553 705 640 683 c 2,9,-1
 667 676 l 1,10,-1
 651 628 l 1,11,12
 550 650 550 650 470.5 650 c 128,-1,13
 391 650 391 650 335 605 c 128,-1,14
 279 560 279 560 246 488 c 0,15,16
 180 342 180 342 180 181 c 0,17,18
 180 45 180 45 326 45 c 0,19,20
 382 45 382 45 442 58 c 1,21,-1
 462 63 l 1,22,-1
 518 301 l 1,23,-1
 403 301 l 1,24,-1
 415 354 l 1,25,-1
 592 354 l 1,26,-1
 513 18 l 1,27,28
 420 -10 420 -10 320 -10 c 0,0,1
264 -73 m 1,29,-1
 320 -73 l 1,30,-1
 227 -276 l 1,31,-1
 179 -276 l 1,32,-1
 264 -73 l 1,29,-1
EndSplineSet
Position2: "'cpsp' Capital Spacing in Latin lookup 0 subtable" dx=5 dy=0 dh=10 dv=0
EndChar

StartChar: gcommaaccent
Encoding: 291 291 228
Width: 464
GlyphClass: 2
Flags: W
LayerCount: 2
Fore
SplineSet
412 788 m 1,0,-1
 461 788 l 1,1,-1
 376 585 l 1,2,-1
 320 585 l 1,3,-1
 412 788 l 1,0,-1
189 -237 m 0,4,5
 111 -237 111 -237 65.5 -201.5 c 128,-1,6
 20 -166 20 -166 20 -107 c 0,7,8
 20 -22 20 -22 155 50 c 1,9,10
 140 65 140 65 140 88 c 128,-1,11
 140 111 140 111 153 135.5 c 128,-1,12
 166 160 166 160 180 174 c 1,13,-1
 193 189 l 1,14,15
 124 220 124 220 124 301.5 c 128,-1,16
 124 383 124 383 178.5 446.5 c 128,-1,17
 233 510 233 510 324 510 c 0,18,19
 370 510 370 510 403 498 c 2,20,-1
 414 494 l 1,21,-1
 562 500 l 1,22,-1
 550 447 l 1,23,-1
 453 447 l 1,24,25
 472 418 472 418 472 374 c 0,26,27
 472 299 472 299 416.5 236 c 128,-1,28
 361 173 361 173 261 173 c 1,29,-1
 231 175 l 1,30,31
 196 131 196 131 196 107.5 c 128,-1,32
 196 84 196 84 214.5 76.5 c 128,-1,33
 233 69 233 69 302.5 60.5 c 128,-1,34
 372 52 372 52 406.5 26 c 128,-1,35
 441 0 441 0 441 -55 c 0,36,37
 441 -129 441 -129 372 -183 c 128,-1,38
 303 -237 303 -237 189 -237 c 0,4,5
111 -28 m 128,-1,40
 78 -60 78 -60 78 -97.5 c 128,-1,41
 78 -135 78 -135 108 -160 c 128,-1,42
 138 -185 138 -185 204.5 -185 c 128,-1,43
 271 -185 271 -185 326.5 -150 c 128,-1,44
 382 -115 382 -115 382 -59 c 0,45,46
 382 -25 382 -25 359 -10.5 c 128,-1,47
 336 4 336 4 273.5 11 c 128,-1,48
 211 18 211 18 189 27 c 1,49,39
 144 4 144 4 111 -28 c 128,-1,40
269 224 m 0,50,51
 339 224 339 224 377 271.5 c 128,-1,52
 415 319 415 319 415 366 c 128,-1,53
 415 413 415 413 393 435.5 c 128,-1,54
 371 458 371 458 314.5 458 c 128,-1,55
 258 458 258 458 220 410.5 c 128,-1,56
 182 363 182 363 182 310 c 0,57,58
 182 224 182 224 269 224 c 0,50,51
EndSplineSet
EndChar

StartChar: Hcircumflex
Encoding: 292 292 229
Width: 624
GlyphClass: 2
Flags: W
LayerCount: 2
Fore
SplineSet
482 0 m 1,0,-1
 556 322 l 1,1,-1
 216 322 l 1,2,-1
 142 0 l 1,3,-1
 81 0 l 1,4,-1
 241 695 l 1,5,-1
 303 695 l 1,6,-1
 229 377 l 1,7,-1
 569 377 l 1,8,-1
 643 695 l 1,9,-1
 704 695 l 1,10,-1
 544 0 l 1,11,-1
 482 0 l 1,0,-1
342 797 m 1,12,-1
 503 931 l 1,13,-1
 533 931 l 1,14,-1
 630 797 l 1,15,-1
 574 797 l 1,16,-1
 513 883 l 1,17,-1
 408 797 l 1,18,-1
 342 797 l 1,12,-1
EndSplineSet
Position2: "'cpsp' Capital Spacing in Latin lookup 0 subtable" dx=5 dy=0 dh=10 dv=0
EndChar

StartChar: hcircumflex
Encoding: 293 293 230
Width: 495
GlyphClass: 2
Flags: W
LayerCount: 2
Fore
SplineSet
393 510 m 0,0,1
 449 510 449 510 479 477 c 128,-1,2
 509 444 509 444 509 392.5 c 128,-1,3
 509 341 509 341 489 254 c 2,4,-1
 430 0 l 1,5,-1
 371 0 l 1,6,-1
 430 252 l 2,7,8
 448 329 448 329 448 377 c 0,9,10
 448 456 448 456 374 456 c 0,11,12
 341 456 341 456 299 424.5 c 128,-1,13
 257 393 257 393 231 362 c 2,14,-1
 205 330 l 1,15,-1
 129 0 l 1,16,-1
 69 0 l 1,17,-1
 236 722 l 1,18,-1
 296 722 l 1,19,-1
 222 402 l 1,20,21
 273 470 273 470 340 498 c 0,22,23
 368 510 368 510 393 510 c 0,0,1
295 767 m 1,24,-1
 456 901 l 1,25,-1
 486 901 l 1,26,-1
 583 767 l 1,27,-1
 527 767 l 1,28,-1
 466 853 l 1,29,-1
 361 767 l 1,30,-1
 295 767 l 1,24,-1
EndSplineSet
EndChar

StartChar: Hbar
Encoding: 294 294 231
Width: 641
GlyphClass: 2
Flags: W
LayerCount: 2
Fore
SplineSet
123 508 m 1,0,-1
 123 509 l 1,1,-1
 135 565 l 1,2,-1
 219 565 l 1,3,-1
 249 695 l 1,4,-1
 308 695 l 1,5,-1
 278 565 l 1,6,-1
 624 565 l 1,7,-1
 654 695 l 1,8,-1
 712 695 l 1,9,-1
 682 565 l 1,10,-1
 765 565 l 1,11,-1
 750 508 l 1,12,-1
 669 508 l 1,13,-1
 552 0 l 1,14,-1
 494 0 l 1,15,-1
 567 320 l 1,16,-1
 221 320 l 1,17,-1
 148 0 l 1,18,-1
 89 0 l 1,19,-1
 206 508 l 1,20,-1
 123 508 l 1,0,-1
235 379 m 1,21,-1
 581 379 l 1,22,-1
 611 508 l 1,23,-1
 265 508 l 1,24,-1
 235 379 l 1,21,-1
EndSplineSet
Position2: "'cpsp' Capital Spacing in Latin lookup 0 subtable" dx=5 dy=0 dh=10 dv=0
EndChar

StartChar: hbar
Encoding: 295 295 232
Width: 495
GlyphClass: 2
Flags: W
LayerCount: 2
Fore
SplineSet
393 510 m 0,0,1
 449 510 449 510 479 477 c 128,-1,2
 509 444 509 444 509 392.5 c 128,-1,3
 509 341 509 341 489 254 c 2,4,-1
 430 0 l 1,5,-1
 371 0 l 1,6,-1
 430 252 l 2,7,8
 448 329 448 329 448 377 c 0,9,10
 448 456 448 456 374 456 c 0,11,12
 341 456 341 456 299 424.5 c 128,-1,13
 257 393 257 393 231 362 c 2,14,-1
 205 330 l 1,15,-1
 129 0 l 1,16,-1
 69 0 l 1,17,-1
 205 591 l 1,18,-1
 150 591 l 1,19,-1
 162 644 l 1,20,-1
 218 644 l 1,21,-1
 236 722 l 1,22,-1
 296 722 l 1,23,-1
 278 644 l 1,24,-1
 429 644 l 1,25,-1
 416 591 l 1,26,-1
 265 591 l 1,27,-1
 222 402 l 1,28,29
 273 470 273 470 340 498 c 0,30,31
 368 510 368 510 393 510 c 0,0,1
EndSplineSet
EndChar

StartChar: Itilde
Encoding: 296 296 233
Width: 223
GlyphClass: 2
Flags: W
LayerCount: 2
Fore
SplineSet
370 805 m 0,0,1
 347 805 347 805 296 834.5 c 128,-1,2
 245 864 245 864 234 864 c 0,3,4
 214 864 214 864 160 826 c 1,5,-1
 143 813 l 1,6,-1
 141 857 l 1,7,8
 208 916 208 916 238.5 916 c 128,-1,9
 269 916 269 916 319 887 c 128,-1,10
 369 858 369 858 380 858 c 0,11,12
 399 858 399 858 447 894 c 2,13,-1
 463 906 l 1,14,-1
 466 864 l 1,15,16
 403 805 403 805 370 805 c 0,0,1
81 0 m 1,17,-1
 241 695 l 1,18,-1
 303 695 l 1,19,-1
 142 0 l 1,20,-1
 81 0 l 1,17,-1
EndSplineSet
Position2: "'cpsp' Capital Spacing in Latin lookup 0 subtable" dx=5 dy=0 dh=10 dv=0
EndChar

StartChar: itilde
Encoding: 297 297 234
Width: 197
GlyphClass: 2
Flags: W
LayerCount: 2
Fore
SplineSet
68 0 m 1,0,-1
 184 500 l 1,1,-1
 244 500 l 1,2,-1
 128 0 l 1,3,-1
 68 0 l 1,0,-1
301 620 m 0,4,5
 282 620 282 620 234 644.5 c 128,-1,6
 186 669 186 669 175 669 c 0,7,8
 155 669 155 669 110 636 c 2,9,-1
 95 625 l 1,10,-1
 93 672 l 1,11,12
 153 722 153 722 187 722 c 0,13,14
 209 722 209 722 255 697.5 c 128,-1,15
 301 673 301 673 310 673 c 0,16,17
 328 673 328 673 371 704 c 2,18,-1
 385 714 l 1,19,-1
 389 668 l 1,20,21
 335 620 335 620 301 620 c 0,4,5
EndSplineSet
EndChar

StartChar: Imacron
Encoding: 298 298 235
Width: 223
GlyphClass: 2
Flags: W
LayerCount: 2
Fore
SplineSet
154 838 m 1,0,-1
 164 884 l 1,1,-1
 450 884 l 1,2,-1
 438 838 l 1,3,-1
 154 838 l 1,0,-1
81 0 m 1,4,-1
 241 695 l 1,5,-1
 303 695 l 1,6,-1
 142 0 l 1,7,-1
 81 0 l 1,4,-1
EndSplineSet
Position2: "'cpsp' Capital Spacing in Latin lookup 0 subtable" dx=5 dy=0 dh=10 dv=0
EndChar

StartChar: imacron
Encoding: 299 299 236
Width: 197
GlyphClass: 2
Flags: W
LayerCount: 2
Fore
SplineSet
68 0 m 1,0,-1
 184 500 l 1,1,-1
 244 500 l 1,2,-1
 128 0 l 1,3,-1
 68 0 l 1,0,-1
105 642 m 1,4,-1
 116 689 l 1,5,-1
 383 689 l 1,6,-1
 371 642 l 1,7,-1
 105 642 l 1,4,-1
EndSplineSet
EndChar

StartChar: Ibreve
Encoding: 300 300 237
Width: 223
GlyphClass: 2
Flags: W
LayerCount: 2
Fore
SplineSet
240 921 m 1,0,1
 238 909 238 909 238 892 c 128,-1,2
 238 875 238 875 252 860.5 c 128,-1,3
 266 846 266 846 302 846 c 128,-1,4
 338 846 338 846 366.5 867 c 128,-1,5
 395 888 395 888 404 921 c 1,6,-1
 457 921 l 1,7,8
 440 862 440 862 397.5 830 c 128,-1,9
 355 798 355 798 293.5 798 c 128,-1,10
 232 798 232 798 204 829 c 0,11,12
 184 851 184 851 184 889 c 0,13,14
 184 904 184 904 187 921 c 1,15,-1
 240 921 l 1,0,1
81 0 m 1,16,-1
 241 695 l 1,17,-1
 303 695 l 1,18,-1
 142 0 l 1,19,-1
 81 0 l 1,16,-1
EndSplineSet
Position2: "'cpsp' Capital Spacing in Latin lookup 0 subtable" dx=5 dy=0 dh=10 dv=0
EndChar

StartChar: ibreve
Encoding: 301 301 238
Width: 197
GlyphClass: 2
Flags: W
LayerCount: 2
Fore
SplineSet
68 0 m 1,0,-1
 184 500 l 1,1,-1
 244 500 l 1,2,-1
 128 0 l 1,3,-1
 68 0 l 1,0,-1
176 727 m 1,4,5
 173 714 173 714 173 698 c 128,-1,6
 173 682 173 682 184 666 c 0,7,8
 200 643 200 643 242 643 c 0,9,10
 325 643 325 643 348 727 c 1,11,-1
 400 727 l 1,12,13
 362 594 362 594 227 594 c 0,14,15
 165 594 165 594 138 631 c 1,16,17
 121 656 121 656 121 682 c 128,-1,18
 121 708 121 708 125 727 c 1,19,-1
 176 727 l 1,4,5
EndSplineSet
EndChar

StartChar: Iogonek
Encoding: 302 302 239
Width: 223
GlyphClass: 2
Flags: W
LayerCount: 2
Fore
SplineSet
44 -202 m 0,0,1
 -24 -202 -24 -202 -24 -142 c 0,2,3
 -24 -108 -24 -108 10 -66 c 128,-1,4
 44 -24 44 -24 82 6 c 1,5,-1
 241 695 l 1,6,-1
 303 695 l 1,7,-1
 142 0 l 1,8,9
 109 -23 109 -23 75.5 -61.5 c 128,-1,10
 42 -100 42 -100 42 -126 c 0,11,12
 42 -148 42 -148 70 -148 c 1,13,-1
 121 -142 l 1,14,-1
 115 -193 l 1,15,16
 73 -202 73 -202 44 -202 c 0,0,1
EndSplineSet
Position2: "'cpsp' Capital Spacing in Latin lookup 0 subtable" dx=5 dy=0 dh=10 dv=0
EndChar

StartChar: iogonek
Encoding: 303 303 240
Width: 198
GlyphClass: 2
Flags: W
LayerCount: 2
Fore
SplineSet
32 -202 m 0,0,1
 -36 -202 -36 -202 -36 -142 c 0,2,3
 -36 -108 -36 -108 -2 -65.5 c 128,-1,4
 32 -23 32 -23 70 7 c 1,5,-1
 185 500 l 1,6,-1
 245 500 l 1,7,-1
 129 0 l 1,8,9
 95 -26 95 -26 62.5 -63 c 128,-1,10
 30 -100 30 -100 30 -126 c 0,11,12
 30 -148 30 -148 58 -148 c 1,13,-1
 109 -142 l 1,14,-1
 103 -193 l 1,15,16
 61 -202 61 -202 32 -202 c 0,0,1
211 616 m 1,17,-1
 229 696 l 1,18,-1
 290 696 l 1,19,-1
 272 616 l 1,20,-1
 211 616 l 1,17,-1
EndSplineSet
EndChar

StartChar: Idotaccent
Encoding: 304 304 241
Width: 223
GlyphClass: 2
Flags: W
LayerCount: 2
Fore
SplineSet
274 844 m 1,0,-1
 291 922 l 1,1,-1
 341 922 l 1,2,-1
 324 844 l 1,3,-1
 274 844 l 1,0,-1
81 0 m 1,4,-1
 241 695 l 1,5,-1
 303 695 l 1,6,-1
 142 0 l 1,7,-1
 81 0 l 1,4,-1
EndSplineSet
Position2: "'cpsp' Capital Spacing in Latin lookup 0 subtable" dx=5 dy=0 dh=10 dv=0
EndChar

StartChar: dotlessi
Encoding: 305 305 242
Width: 197
GlyphClass: 2
Flags: W
LayerCount: 2
Fore
SplineSet
68 0 m 1,0,-1
 184 500 l 1,1,-1
 244 500 l 1,2,-1
 128 0 l 1,3,-1
 68 0 l 1,0,-1
EndSplineSet
EndChar

StartChar: Jcircumflex
Encoding: 308 308 243
Width: 260
GlyphClass: 2
Flags: W
LayerCount: 2
Fore
SplineSet
343 695 m 1,0,-1
 209 114 l 2,1,2
 187 22 187 22 169.5 -9.5 c 128,-1,3
 152 -41 152 -41 131 -51 c 0,4,5
 89 -71 89 -71 7 -71 c 1,6,-1
 17 -16 l 1,7,8
 84 -15 84 -15 106.5 8.5 c 128,-1,9
 129 32 129 32 149 121 c 2,10,-1
 282 695 l 1,11,-1
 343 695 l 1,0,-1
181 797 m 1,12,-1
 342 931 l 1,13,-1
 372 931 l 1,14,-1
 469 797 l 1,15,-1
 413 797 l 1,16,-1
 352 883 l 1,17,-1
 247 797 l 1,18,-1
 181 797 l 1,12,-1
EndSplineSet
Position2: "'cpsp' Capital Spacing in Latin lookup 0 subtable" dx=5 dy=0 dh=10 dv=0
EndChar

StartChar: jcircumflex
Encoding: 309 309 244
Width: 197
GlyphClass: 2
Flags: W
LayerCount: 2
Fore
SplineSet
68 0 m 2,0,-1
 184 500 l 1,1,-1
 244 500 l 1,2,-1
 128 0 l 2,3,4
 102 -113 102 -113 71.5 -149 c 128,-1,5
 41 -185 41 -185 -72 -237 c 1,6,-1
 -92 -188 l 1,7,8
 1 -141 1 -141 24.5 -113 c 128,-1,9
 48 -85 48 -85 68 0 c 2,0,-1
91 590 m 1,10,-1
 242 735 l 1,11,-1
 273 735 l 1,12,-1
 360 590 l 1,13,-1
 304 590 l 1,14,-1
 250 682 l 1,15,-1
 153 590 l 1,16,-1
 91 590 l 1,10,-1
EndSplineSet
EndChar

StartChar: Kcommaaccent
Encoding: 310 310 245
Width: 516
GlyphClass: 2
Flags: W
LayerCount: 2
Fore
SplineSet
233 -73 m 1,0,-1
 289 -73 l 1,1,-1
 196 -276 l 1,2,-1
 148 -276 l 1,3,-1
 233 -73 l 1,0,-1
432 0 m 1,4,-1
 320 315 l 1,5,-1
 214 313 l 1,6,-1
 142 0 l 1,7,-1
 81 0 l 1,8,-1
 241 695 l 1,9,-1
 303 695 l 1,10,-1
 227 368 l 1,11,-1
 325 370 l 1,12,-1
 587 695 l 1,13,-1
 657 695 l 1,14,-1
 374 344 l 1,15,-1
 497 0 l 1,16,-1
 432 0 l 1,4,-1
EndSplineSet
Position2: "'cpsp' Capital Spacing in Latin lookup 0 subtable" dx=5 dy=0 dh=10 dv=0
EndChar

StartChar: kcommaaccent
Encoding: 311 311 246
Width: 440
GlyphClass: 2
Flags: W
LayerCount: 2
Fore
SplineSet
95 -276 m 1,0,-1
 180 -73 l 1,1,-1
 236 -73 l 1,2,-1
 143 -276 l 1,3,-1
 95 -276 l 1,0,-1
129 0 m 1,4,-1
 69 0 l 1,5,-1
 236 722 l 1,6,-1
 296 722 l 1,7,-1
 198 297 l 1,8,-1
 269 299 l 1,9,-1
 464 500 l 1,10,-1
 535 500 l 1,11,-1
 314 270 l 1,12,-1
 416 0 l 1,13,-1
 352 0 l 1,14,-1
 258 247 l 1,15,-1
 185 246 l 1,16,-1
 129 0 l 1,4,-1
EndSplineSet
EndChar

StartChar: Lacute
Encoding: 313 313 247
Width: 436
GlyphClass: 2
Flags: W
LayerCount: 2
Fore
SplineSet
319 790 m 1,0,-1
 311 835 l 1,1,-1
 530 930 l 1,2,-1
 539 878 l 1,3,-1
 319 790 l 1,0,-1
429 0 m 1,4,-1
 81 0 l 1,5,-1
 241 695 l 1,6,-1
 303 695 l 1,7,-1
 155 55 l 1,8,-1
 441 55 l 1,9,-1
 429 0 l 1,4,-1
EndSplineSet
Position2: "'cpsp' Capital Spacing in Latin lookup 0 subtable" dx=5 dy=0 dh=10 dv=0
EndChar

StartChar: lacute
Encoding: 314 314 248
Width: 207
GlyphClass: 2
Flags: W
LayerCount: 2
Fore
SplineSet
74 0 m 1,0,-1
 241 722 l 1,1,-1
 300 722 l 1,2,-1
 133 0 l 1,3,-1
 74 0 l 1,0,-1
252 790 m 1,4,-1
 244 835 l 1,5,-1
 463 930 l 1,6,-1
 472 878 l 1,7,-1
 252 790 l 1,4,-1
EndSplineSet
EndChar

StartChar: Lcommaaccent
Encoding: 315 315 249
Width: 436
GlyphClass: 2
Flags: W
LayerCount: 2
Fore
SplineSet
218 -73 m 1,0,-1
 274 -73 l 1,1,-1
 181 -276 l 1,2,-1
 133 -276 l 1,3,-1
 218 -73 l 1,0,-1
429 0 m 1,4,-1
 81 0 l 1,5,-1
 241 695 l 1,6,-1
 303 695 l 1,7,-1
 155 55 l 1,8,-1
 441 55 l 1,9,-1
 429 0 l 1,4,-1
EndSplineSet
Position2: "'cpsp' Capital Spacing in Latin lookup 0 subtable" dx=5 dy=0 dh=10 dv=0
EndChar

StartChar: lcommaaccent
Encoding: 316 316 250
Width: 207
GlyphClass: 2
Flags: W
LayerCount: 2
Fore
SplineSet
60 -73 m 1,0,-1
 116 -73 l 1,1,-1
 23 -276 l 1,2,-1
 -25 -276 l 1,3,-1
 60 -73 l 1,0,-1
74 0 m 1,4,-1
 241 722 l 1,5,-1
 300 722 l 1,6,-1
 133 0 l 1,7,-1
 74 0 l 1,4,-1
EndSplineSet
EndChar

StartChar: Lcaron
Encoding: 317 317 251
Width: 450
GlyphClass: 2
Flags: W
LayerCount: 2
Fore
SplineSet
545 695 m 1,0,-1
 492 467 l 1,1,-1
 437 467 l 1,2,-1
 490 695 l 1,3,-1
 545 695 l 1,0,-1
429 0 m 1,4,-1
 81 0 l 1,5,-1
 241 695 l 1,6,-1
 303 695 l 1,7,-1
 155 55 l 1,8,-1
 441 55 l 1,9,-1
 429 0 l 1,4,-1
EndSplineSet
Position2: "'cpsp' Capital Spacing in Latin lookup 0 subtable" dx=5 dy=0 dh=10 dv=0
EndChar

StartChar: lcaron
Encoding: 318 318 252
Width: 239
GlyphClass: 2
Flags: W
LayerCount: 2
Fore
SplineSet
410 695 m 1,0,-1
 356 467 l 1,1,-1
 302 467 l 1,2,-1
 355 695 l 1,3,-1
 410 695 l 1,0,-1
74 0 m 1,4,-1
 241 722 l 1,5,-1
 300 722 l 1,6,-1
 133 0 l 1,7,-1
 74 0 l 1,4,-1
EndSplineSet
EndChar

StartChar: Lslash
Encoding: 321 321 253
Width: 437
GlyphClass: 2
Flags: W
LayerCount: 2
Fore
SplineSet
431 0 m 1,0,-1
 83 0 l 1,1,-1
 148 283 l 1,2,-1
 88 245 l 1,3,-1
 88 246 l 1,4,-1
 68 291 l 1,5,-1
 163 351 l 1,6,-1
 243 695 l 1,7,-1
 305 695 l 1,8,-1
 235 396 l 1,9,-1
 396 496 l 1,10,-1
 415 451 l 1,11,-1
 220 328 l 1,12,-1
 157 55 l 1,13,-1
 443 55 l 1,14,-1
 431 0 l 1,0,-1
EndSplineSet
Position2: "'cpsp' Capital Spacing in Latin lookup 0 subtable" dx=5 dy=0 dh=10 dv=0
EndChar

StartChar: lslash
Encoding: 322 322 254
Width: 265
GlyphClass: 2
Flags: W
LayerCount: 2
Fore
SplineSet
100 0 m 1,0,-1
 168 293 l 1,1,-1
 94 248 l 1,2,-1
 73 291 l 1,3,-1
 183 359 l 1,4,-1
 267 722 l 1,5,-1
 326 722 l 1,6,-1
 252 402 l 1,7,-1
 328 450 l 1,8,-1
 348 405 l 1,9,-1
 236 336 l 1,10,-1
 159 0 l 1,11,-1
 100 0 l 1,0,-1
EndSplineSet
EndChar

StartChar: Nacute
Encoding: 323 323 255
Width: 625
GlyphClass: 2
Flags: W
LayerCount: 2
Fore
SplineSet
405 790 m 1,0,-1
 397 835 l 1,1,-1
 616 930 l 1,2,-1
 625 878 l 1,3,-1
 405 790 l 1,0,-1
81 0 m 1,4,-1
 241 695 l 1,5,-1
 357 695 l 1,6,-1
 478 61 l 1,7,-1
 499 61 l 1,8,-1
 645 695 l 1,9,-1
 705 695 l 1,10,-1
 545 0 l 1,11,-1
 433 0 l 1,12,-1
 309 636 l 1,13,-1
 287 636 l 1,14,-1
 140 0 l 1,15,-1
 81 0 l 1,4,-1
EndSplineSet
Position2: "'cpsp' Capital Spacing in Latin lookup 0 subtable" dx=5 dy=0 dh=10 dv=0
EndChar

StartChar: nacute
Encoding: 324 324 256
Width: 494
GlyphClass: 2
Flags: W
LayerCount: 2
Fore
SplineSet
373 456 m 0,0,1
 333 456 333 456 282 412 c 0,2,3
 262 396 262 396 242 374.5 c 128,-1,4
 222 353 222 353 215.5 344.5 c 128,-1,5
 209 336 209 336 205 331 c 1,6,-1
 128 0 l 1,7,-1
 68 0 l 1,8,-1
 184 500 l 1,9,-1
 242 500 l 1,10,-1
 221 403 l 1,11,-1
 244 430 l 2,12,13
 266 456 266 456 309 483 c 128,-1,14
 352 510 352 510 400.5 510 c 128,-1,15
 449 510 449 510 479 477 c 128,-1,16
 509 444 509 444 509 392 c 128,-1,17
 509 340 509 340 489 256 c 2,18,-1
 429 0 l 1,19,-1
 370 0 l 1,20,-1
 429 252 l 2,21,22
 448 333 448 333 448 377 c 0,23,24
 448 456 448 456 373 456 c 0,0,1
302 601 m 1,25,-1
 296 647 l 1,26,-1
 514 741 l 1,27,-1
 521 688 l 1,28,-1
 302 601 l 1,25,-1
EndSplineSet
EndChar

StartChar: Ncommaaccent
Encoding: 325 325 257
Width: 625
GlyphClass: 2
Flags: W
LayerCount: 2
Fore
SplineSet
281 -73 m 1,0,-1
 337 -73 l 1,1,-1
 244 -276 l 1,2,-1
 196 -276 l 1,3,-1
 281 -73 l 1,0,-1
81 0 m 1,4,-1
 241 695 l 1,5,-1
 357 695 l 1,6,-1
 478 61 l 1,7,-1
 499 61 l 1,8,-1
 645 695 l 1,9,-1
 705 695 l 1,10,-1
 545 0 l 1,11,-1
 433 0 l 1,12,-1
 309 636 l 1,13,-1
 287 636 l 1,14,-1
 140 0 l 1,15,-1
 81 0 l 1,4,-1
EndSplineSet
Position2: "'cpsp' Capital Spacing in Latin lookup 0 subtable" dx=5 dy=0 dh=10 dv=0
EndChar

StartChar: ncommaaccent
Encoding: 326 326 258
Width: 494
GlyphClass: 2
Flags: W
LayerCount: 2
Fore
SplineSet
392 510 m 0,0,1
 449 510 449 510 479 477 c 128,-1,2
 509 444 509 444 509 392 c 128,-1,3
 509 340 509 340 489 256 c 2,4,-1
 429 0 l 1,5,-1
 370 0 l 1,6,-1
 429 252 l 2,7,8
 448 333 448 333 448 377 c 0,9,10
 448 456 448 456 373 456 c 0,11,12
 340 456 340 456 298 425 c 128,-1,13
 256 394 256 394 230 362 c 2,14,-1
 205 331 l 1,15,-1
 128 0 l 1,16,-1
 68 0 l 1,17,-1
 184 500 l 1,18,-1
 242 500 l 1,19,-1
 221 403 l 1,20,21
 271 470 271 470 340 498 c 0,22,23
 367 510 367 510 392 510 c 0,0,1
132 -276 m 1,24,-1
 217 -73 l 1,25,-1
 273 -73 l 1,26,-1
 180 -276 l 1,27,-1
 132 -276 l 1,24,-1
EndSplineSet
EndChar

StartChar: Ncaron
Encoding: 327 327 259
Width: 625
GlyphClass: 2
Flags: W
LayerCount: 2
Fore
SplineSet
663 926 m 1,0,-1
 507 792 l 1,1,-1
 471 792 l 1,2,-1
 373 926 l 1,3,-1
 432 926 l 1,4,-1
 497 837 l 1,5,-1
 600 926 l 1,6,-1
 663 926 l 1,0,-1
81 0 m 1,7,-1
 241 695 l 1,8,-1
 357 695 l 1,9,-1
 478 61 l 1,10,-1
 499 61 l 1,11,-1
 645 695 l 1,12,-1
 705 695 l 1,13,-1
 545 0 l 1,14,-1
 433 0 l 1,15,-1
 309 636 l 1,16,-1
 287 636 l 1,17,-1
 140 0 l 1,18,-1
 81 0 l 1,7,-1
EndSplineSet
Position2: "'cpsp' Capital Spacing in Latin lookup 0 subtable" dx=5 dy=0 dh=10 dv=0
EndChar

StartChar: ncaron
Encoding: 328 328 260
Width: 494
GlyphClass: 2
Flags: W
LayerCount: 2
Fore
SplineSet
392 510 m 0,0,1
 449 510 449 510 479 477 c 128,-1,2
 509 444 509 444 509 392 c 128,-1,3
 509 340 509 340 489 256 c 2,4,-1
 429 0 l 1,5,-1
 370 0 l 1,6,-1
 429 252 l 2,7,8
 448 333 448 333 448 377 c 0,9,10
 448 456 448 456 373 456 c 0,11,12
 340 456 340 456 298 425 c 128,-1,13
 256 394 256 394 230 362 c 2,14,-1
 205 331 l 1,15,-1
 128 0 l 1,16,-1
 68 0 l 1,17,-1
 184 500 l 1,18,-1
 242 500 l 1,19,-1
 221 403 l 1,20,21
 271 470 271 470 340 498 c 0,22,23
 367 510 367 510 392 510 c 0,0,1
397 590 m 1,24,-1
 365 590 l 1,25,-1
 280 735 l 1,26,-1
 335 735 l 1,27,-1
 392 640 l 1,28,-1
 491 735 l 1,29,-1
 553 735 l 1,30,-1
 397 590 l 1,24,-1
EndSplineSet
EndChar

StartChar: Eng
Encoding: 330 330 261
Width: 625
GlyphClass: 2
Flags: W
LayerCount: 2
Fore
SplineSet
81 0 m 1,0,-1
 241 695 l 1,1,-1
 358 695 l 1,2,-1
 479 61 l 1,3,-1
 500 61 l 1,4,-1
 646 695 l 1,5,-1
 705 695 l 1,6,-1
 546 4 l 2,7,8
 532 -60 532 -60 521 -91 c 128,-1,9
 510 -122 510 -122 487.5 -145.5 c 128,-1,10
 465 -169 465 -169 434 -175 c 128,-1,11
 403 -181 403 -181 346 -181 c 1,12,-1
 356 -126 l 1,13,14
 421 -126 421 -126 443.5 -103.5 c 128,-1,15
 466 -81 466 -81 485 0 c 1,16,-1
 432 0 l 1,17,-1
 308 636 l 1,18,-1
 287 636 l 1,19,-1
 139 0 l 1,20,-1
 81 0 l 1,0,-1
EndSplineSet
Position2: "'cpsp' Capital Spacing in Latin lookup 0 subtable" dx=5 dy=0 dh=10 dv=0
EndChar

StartChar: eng
Encoding: 331 331 262
Width: 489
GlyphClass: 2
Flags: W
LayerCount: 2
Fore
SplineSet
300 484 m 128,-1,1
 345 509 345 509 397 509 c 128,-1,2
 449 509 449 509 476 484 c 1,3,4
 506 458 506 458 506 404 c 128,-1,5
 506 350 506 350 485 259 c 2,6,-1
 424 -2 l 2,7,8
 402 -92 402 -92 362.5 -137 c 128,-1,9
 323 -182 323 -182 222 -233 c 1,10,-1
 210 -178 l 1,11,12
 294 -133 294 -133 323.5 -98 c 128,-1,13
 353 -63 353 -63 372 15 c 2,14,-1
 429 259 l 2,15,16
 448 339 448 339 448 378.5 c 128,-1,17
 448 418 448 418 429 434.5 c 128,-1,18
 410 451 410 451 373 451 c 128,-1,19
 336 451 336 451 297 431.5 c 128,-1,20
 258 412 258 412 235 393 c 2,21,-1
 212 374 l 1,22,-1
 124 0 l 1,23,-1
 68 0 l 1,24,-1
 185 500 l 1,25,-1
 242 500 l 1,26,-1
 224 430 l 1,27,0
 255 459 255 459 300 484 c 128,-1,1
EndSplineSet
EndChar

StartChar: Omacron
Encoding: 332 332 263
Width: 631
GlyphClass: 2
Flags: W
LayerCount: 2
Fore
SplineSet
215 80 m 128,-1,1
 250 45 250 45 327 45 c 128,-1,2
 404 45 404 45 457 87 c 0,3,4
 530 145 530 145 569.5 261 c 128,-1,5
 609 377 609 377 609 495 c 0,6,7
 609 575 609 575 572 612.5 c 128,-1,8
 535 650 535 650 463 650 c 128,-1,9
 391 650 391 650 340 610 c 0,10,11
 265 552 265 552 222.5 431.5 c 128,-1,12
 180 311 180 311 180 199 c 0,13,0
 180 115 180 115 215 80 c 128,-1,1
630 241.5 m 128,-1,15
 587 120 587 120 508.5 55 c 128,-1,16
 430 -10 430 -10 323.5 -10 c 128,-1,17
 217 -10 217 -10 167 38 c 128,-1,18
 117 86 117 86 117 205 c 128,-1,19
 117 324 117 324 158.5 443 c 128,-1,20
 200 562 200 562 278.5 633.5 c 128,-1,21
 357 705 357 705 459 705 c 0,22,23
 673 705 673 705 673 498 c 0,24,14
 673 363 673 363 630 241.5 c 128,-1,15
360 828 m 1,25,-1
 370 874 l 1,26,-1
 656 874 l 1,27,-1
 644 828 l 1,28,-1
 360 828 l 1,25,-1
EndSplineSet
Position2: "'cpsp' Capital Spacing in Latin lookup 0 subtable" dx=5 dy=0 dh=10 dv=0
EndChar

StartChar: omacron
Encoding: 333 333 264
Width: 494
GlyphClass: 2
Flags: W
LayerCount: 2
Fore
SplineSet
345 509 m 0,0,1
 513 509 513 509 513 344 c 0,2,3
 513 196 513 196 442.5 93 c 128,-1,4
 372 -10 372 -10 258 -10 c 0,5,6
 94 -10 94 -10 94 148 c 0,7,8
 94 297 94 297 165.5 403 c 128,-1,9
 237 509 237 509 345 509 c 0,0,1
258 43 m 0,10,11
 344 43 344 43 398 131.5 c 128,-1,12
 452 220 452 220 452 345 c 0,13,14
 452 396 452 396 425 426.5 c 128,-1,15
 398 457 398 457 345 457 c 0,16,17
 262 457 262 457 208 365 c 128,-1,18
 154 273 154 273 154 148 c 0,19,20
 154 43 154 43 258 43 c 0,10,11
250 642 m 1,21,-1
 261 689 l 1,22,-1
 528 689 l 1,23,-1
 516 642 l 1,24,-1
 250 642 l 1,21,-1
EndSplineSet
EndChar

StartChar: Obreve
Encoding: 334 334 265
Width: 631
GlyphClass: 2
Flags: W
LayerCount: 2
Fore
SplineSet
438 922 m 1,0,1
 436 910 436 910 436 893 c 128,-1,2
 436 876 436 876 450 861.5 c 128,-1,3
 464 847 464 847 500 847 c 128,-1,4
 536 847 536 847 564.5 868 c 128,-1,5
 593 889 593 889 602 922 c 1,6,-1
 655 922 l 1,7,8
 638 863 638 863 595.5 831 c 128,-1,9
 553 799 553 799 491.5 799 c 128,-1,10
 430 799 430 799 402 830 c 0,11,12
 382 852 382 852 382 890 c 0,13,14
 382 905 382 905 385 922 c 1,15,-1
 438 922 l 1,0,1
215 80 m 128,-1,17
 250 45 250 45 327 45 c 128,-1,18
 404 45 404 45 457 87 c 0,19,20
 530 145 530 145 569.5 261 c 128,-1,21
 609 377 609 377 609 495 c 0,22,23
 609 575 609 575 572 612.5 c 128,-1,24
 535 650 535 650 463 650 c 128,-1,25
 391 650 391 650 340 610 c 0,26,27
 265 552 265 552 222.5 431.5 c 128,-1,28
 180 311 180 311 180 199 c 0,29,16
 180 115 180 115 215 80 c 128,-1,17
630 241.5 m 128,-1,31
 587 120 587 120 508.5 55 c 128,-1,32
 430 -10 430 -10 323.5 -10 c 128,-1,33
 217 -10 217 -10 167 38 c 128,-1,34
 117 86 117 86 117 205 c 128,-1,35
 117 324 117 324 158.5 443 c 128,-1,36
 200 562 200 562 278.5 633.5 c 128,-1,37
 357 705 357 705 459 705 c 0,38,39
 673 705 673 705 673 498 c 0,40,30
 673 363 673 363 630 241.5 c 128,-1,31
EndSplineSet
Position2: "'cpsp' Capital Spacing in Latin lookup 0 subtable" dx=5 dy=0 dh=10 dv=0
EndChar

StartChar: obreve
Encoding: 335 335 266
Width: 494
GlyphClass: 2
Flags: W
LayerCount: 2
Fore
SplineSet
345 509 m 0,0,1
 513 509 513 509 513 344 c 0,2,3
 513 196 513 196 442.5 93 c 128,-1,4
 372 -10 372 -10 258 -10 c 0,5,6
 94 -10 94 -10 94 148 c 0,7,8
 94 297 94 297 165.5 403 c 128,-1,9
 237 509 237 509 345 509 c 0,0,1
258 43 m 0,10,11
 344 43 344 43 398 131.5 c 128,-1,12
 452 220 452 220 452 345 c 0,13,14
 452 396 452 396 425 426.5 c 128,-1,15
 398 457 398 457 345 457 c 0,16,17
 262 457 262 457 208 365 c 128,-1,18
 154 273 154 273 154 148 c 0,19,20
 154 43 154 43 258 43 c 0,10,11
325 727 m 1,21,22
 322 714 322 714 322 698 c 128,-1,23
 322 682 322 682 332 666 c 1,24,25
 349 643 349 643 391 643 c 0,26,27
 474 643 474 643 497 727 c 1,28,-1
 549 727 l 1,29,30
 511 594 511 594 376 594 c 0,31,32
 314 594 314 594 288 631 c 0,33,34
 270 656 270 656 270 682 c 128,-1,35
 270 708 270 708 274 727 c 1,36,-1
 325 727 l 1,21,22
EndSplineSet
EndChar

StartChar: Ohungarumlaut
Encoding: 336 336 267
Width: 631
GlyphClass: 2
Flags: W
LayerCount: 2
Fore
SplineSet
566 779 m 1,0,-1
 538 807 l 1,1,-1
 715 921 l 1,2,-1
 748 892 l 1,3,-1
 566 779 l 1,0,-1
381 780 m 1,4,-1
 351 807 l 1,5,-1
 531 922 l 1,6,-1
 562 892 l 1,7,-1
 381 780 l 1,4,-1
215 80 m 128,-1,9
 250 45 250 45 327 45 c 128,-1,10
 404 45 404 45 457 87 c 0,11,12
 530 145 530 145 569.5 261 c 128,-1,13
 609 377 609 377 609 495 c 0,14,15
 609 575 609 575 572 612.5 c 128,-1,16
 535 650 535 650 463 650 c 128,-1,17
 391 650 391 650 340 610 c 0,18,19
 265 552 265 552 222.5 431.5 c 128,-1,20
 180 311 180 311 180 199 c 0,21,8
 180 115 180 115 215 80 c 128,-1,9
630 241.5 m 128,-1,23
 587 120 587 120 508.5 55 c 128,-1,24
 430 -10 430 -10 323.5 -10 c 128,-1,25
 217 -10 217 -10 167 38 c 128,-1,26
 117 86 117 86 117 205 c 128,-1,27
 117 324 117 324 158.5 443 c 128,-1,28
 200 562 200 562 278.5 633.5 c 128,-1,29
 357 705 357 705 459 705 c 0,30,31
 673 705 673 705 673 498 c 0,32,22
 673 363 673 363 630 241.5 c 128,-1,23
EndSplineSet
Position2: "'cpsp' Capital Spacing in Latin lookup 0 subtable" dx=5 dy=0 dh=10 dv=0
EndChar

StartChar: ohungarumlaut
Encoding: 337 337 268
Width: 494
GlyphClass: 2
Flags: W
LayerCount: 2
Fore
SplineSet
345 509 m 0,0,1
 513 509 513 509 513 344 c 0,2,3
 513 196 513 196 442.5 93 c 128,-1,4
 372 -10 372 -10 258 -10 c 0,5,6
 94 -10 94 -10 94 148 c 0,7,8
 94 297 94 297 165.5 403 c 128,-1,9
 237 509 237 509 345 509 c 0,0,1
258 43 m 0,10,11
 344 43 344 43 398 131.5 c 128,-1,12
 452 220 452 220 452 345 c 0,13,14
 452 396 452 396 425 426.5 c 128,-1,15
 398 457 398 457 345 457 c 0,16,17
 262 457 262 457 208 365 c 128,-1,18
 154 273 154 273 154 148 c 0,19,20
 154 43 154 43 258 43 c 0,10,11
440 586 m 1,21,-1
 412 621 l 1,22,-1
 584 747 l 1,23,-1
 616 711 l 1,24,-1
 440 586 l 1,21,-1
261 586 m 1,25,-1
 233 621 l 1,26,-1
 405 747 l 1,27,-1
 436 711 l 1,28,-1
 261 586 l 1,25,-1
EndSplineSet
EndChar

StartChar: OE
Encoding: 338 338 269
Width: 865
GlyphClass: 2
Flags: W
LayerCount: 2
Fore
SplineSet
298 -10 m 0,0,1
 201 -10 201 -10 156 34 c 0,2,3
 110 80 110 80 110 171 c 0,4,5
 110 238 110 238 134 345 c 1,6,7
 178 528 178 528 255.5 617.5 c 128,-1,8
 333 707 333 707 467 707 c 0,9,10
 524 707 524 707 604 697 c 1,11,-1
 984 697 l 1,12,-1
 971 636 l 1,13,-1
 648 636 l 1,14,-1
 587 385 l 1,15,-1
 853 385 l 1,16,-1
 840 325 l 1,17,-1
 575 327 l 1,18,-1
 512 61 l 1,19,-1
 834 61 l 1,20,-1
 819 -1 l 1,21,-1
 441 -1 l 1,22,23
 338 -10 338 -10 298 -10 c 0,0,1
172 187 m 0,24,25
 172 52 172 52 306 52 c 0,26,27
 374 52 374 52 452 60 c 1,28,-1
 590 639 l 1,29,30
 534 646 534 646 458 646 c 0,31,32
 349 646 349 646 290.5 574 c 128,-1,33
 232 502 232 502 196 346 c 1,34,35
 172 252 172 252 172 187 c 0,24,25
EndSplineSet
Position2: "'cpsp' Capital Spacing in Latin lookup 0 subtable" dx=5 dy=0 dh=10 dv=0
EndChar

StartChar: oe
Encoding: 339 339 270
Width: 809
GlyphClass: 2
Flags: W
LayerCount: 2
Fore
SplineSet
498 225 m 1,0,1
 485 169 485 169 485 130.5 c 128,-1,2
 485 92 485 92 509 69.5 c 128,-1,3
 533 47 533 47 573 47 c 0,4,5
 629 47 629 47 728 54 c 2,6,-1
 757 56 l 1,7,-1
 748 4 l 1,8,9
 644 -10 644 -10 567 -10 c 0,10,11
 452 -10 452 -10 433 83 c 1,12,13
 403 35 403 35 358.5 12.5 c 128,-1,14
 314 -10 314 -10 240.5 -10 c 128,-1,15
 167 -10 167 -10 130 19 c 0,16,17
 91 50 91 50 91 127 c 0,18,19
 91 184 91 184 109 258 c 0,20,21
 140 390 140 390 198 449.5 c 128,-1,22
 256 509 256 509 368 509 c 0,23,24
 494 509 494 509 510 406 c 1,25,26
 571 509 571 509 699 509 c 0,27,28
 840 509 840 509 843 376 c 0,29,30
 843 371 843 371 843 347 c 128,-1,31
 843 323 843 323 830 272 c 1,32,-1
 816 223 l 1,33,-1
 498 225 l 1,0,1
236 408 m 128,-1,35
 194 363 194 363 172 268.5 c 128,-1,36
 150 174 150 174 150 130.5 c 128,-1,37
 150 87 150 87 175.5 67 c 128,-1,38
 201 47 201 47 248 47 c 128,-1,39
 295 47 295 47 323 58 c 128,-1,40
 351 69 351 69 369 85 c 128,-1,41
 387 101 387 101 402 131 c 0,42,43
 424 176 424 176 441 245.5 c 128,-1,44
 458 315 458 315 458 343 c 128,-1,45
 458 371 458 371 455 385 c 0,46,47
 441 453 441 453 359.5 453 c 128,-1,34
 278 453 278 453 236 408 c 128,-1,35
687 452 m 0,48,49
 552 452 552 452 510 276 c 1,50,-1
 771 274 l 1,51,52
 784 327 784 327 784 366 c 0,53,54
 783 452 783 452 687 452 c 0,48,49
EndSplineSet
EndChar

StartChar: Racute
Encoding: 340 340 271
Width: 566
GlyphClass: 2
Flags: W
LayerCount: 2
Fore
SplineSet
629 535 m 0,0,1
 629 423 629 423 573 358.5 c 128,-1,2
 517 294 517 294 445 278 c 1,3,4
 445 278 445 278 526 0 c 1,5,-1
 464 0 l 1,6,-1
 387 270 l 1,7,-1
 205 270 l 1,8,-1
 142 0 l 1,9,-1
 81 0 l 1,10,-1
 241 695 l 1,11,-1
 457 695 l 2,12,13
 544 695 544 695 586.5 657.5 c 128,-1,14
 629 620 629 620 629 535 c 0,0,1
565 533 m 0,15,16
 565 592 565 592 537.5 616.5 c 128,-1,17
 510 641 510 641 449 641 c 2,18,-1
 290 641 l 1,19,-1
 217 324 l 1,20,-1
 379 324 l 2,21,22
 463 324 463 324 514 382 c 128,-1,23
 565 440 565 440 565 533 c 0,15,16
363 790 m 1,24,-1
 355 835 l 1,25,-1
 574 930 l 1,26,-1
 583 878 l 1,27,-1
 363 790 l 1,24,-1
EndSplineSet
Position2: "'cpsp' Capital Spacing in Latin lookup 0 subtable" dx=5 dy=0 dh=10 dv=0
EndChar

StartChar: racute
Encoding: 341 341 272
Width: 311
GlyphClass: 2
Flags: W
LayerCount: 2
Fore
SplineSet
68 0 m 1,0,-1
 185 500 l 1,1,-1
 244 500 l 1,2,-1
 226 425 l 1,3,4
 322 491 322 491 413 510 c 1,5,-1
 398 449 l 1,6,7
 340 435 340 435 246 386 c 2,8,-1
 215 370 l 1,9,-1
 129 0 l 1,10,-1
 68 0 l 1,0,-1
205 601 m 1,11,-1
 199 647 l 1,12,-1
 417 741 l 1,13,-1
 424 688 l 1,14,-1
 205 601 l 1,11,-1
EndSplineSet
EndChar

StartChar: Rcommaaccent
Encoding: 342 342 273
Width: 566
GlyphClass: 2
Flags: W
LayerCount: 2
Fore
SplineSet
172 -276 m 1,0,-1
 257 -73 l 1,1,-1
 313 -73 l 1,2,-1
 220 -276 l 1,3,-1
 172 -276 l 1,0,-1
457 695 m 2,4,5
 544 695 544 695 586.5 657.5 c 128,-1,6
 629 620 629 620 629 535 c 0,7,8
 629 423 629 423 573 358.5 c 128,-1,9
 517 294 517 294 445 278 c 1,10,-1
 526 0 l 1,11,-1
 464 0 l 1,12,-1
 387 270 l 1,13,-1
 205 270 l 1,14,-1
 142 0 l 1,15,-1
 81 0 l 1,16,-1
 241 695 l 1,17,-1
 457 695 l 2,4,5
565 533 m 0,18,19
 565 592 565 592 537.5 616.5 c 128,-1,20
 510 641 510 641 449 641 c 2,21,-1
 290 641 l 1,22,-1
 217 324 l 1,23,-1
 379 324 l 2,24,25
 463 324 463 324 514 382 c 128,-1,26
 565 440 565 440 565 533 c 0,18,19
EndSplineSet
Position2: "'cpsp' Capital Spacing in Latin lookup 0 subtable" dx=5 dy=0 dh=10 dv=0
EndChar

StartChar: rcommaaccent
Encoding: 343 343 274
Width: 311
GlyphClass: 2
Flags: W
LayerCount: 2
Fore
SplineSet
68 0 m 1,0,-1
 185 500 l 1,1,-1
 244 500 l 1,2,-1
 226 425 l 1,3,4
 322 491 322 491 413 510 c 1,5,-1
 398 449 l 1,6,7
 340 435 340 435 246 386 c 2,8,-1
 215 370 l 1,9,-1
 129 0 l 1,10,-1
 68 0 l 1,0,-1
60 -73 m 1,11,-1
 116 -73 l 1,12,-1
 23 -276 l 1,13,-1
 -25 -276 l 1,14,-1
 60 -73 l 1,11,-1
EndSplineSet
EndChar

StartChar: Rcaron
Encoding: 344 344 275
Width: 566
GlyphClass: 2
Flags: W
LayerCount: 2
Fore
SplineSet
609 926 m 1,0,-1
 453 792 l 1,1,-1
 417 792 l 1,2,-1
 319 926 l 1,3,-1
 378 926 l 1,4,-1
 443 837 l 1,5,-1
 546 926 l 1,6,-1
 609 926 l 1,0,-1
629 535 m 0,7,8
 629 423 629 423 573 358.5 c 128,-1,9
 517 294 517 294 445 278 c 1,10,11
 445 278 445 278 526 0 c 1,12,-1
 464 0 l 1,13,-1
 387 270 l 1,14,-1
 205 270 l 1,15,-1
 142 0 l 1,16,-1
 81 0 l 1,17,-1
 241 695 l 1,18,-1
 457 695 l 2,19,20
 544 695 544 695 586.5 657.5 c 128,-1,21
 629 620 629 620 629 535 c 0,7,8
565 533 m 0,22,23
 565 592 565 592 537.5 616.5 c 128,-1,24
 510 641 510 641 449 641 c 2,25,-1
 290 641 l 1,26,-1
 217 324 l 1,27,-1
 379 324 l 2,28,29
 463 324 463 324 514 382 c 128,-1,30
 565 440 565 440 565 533 c 0,22,23
EndSplineSet
Position2: "'cpsp' Capital Spacing in Latin lookup 0 subtable" dx=5 dy=0 dh=10 dv=0
EndChar

StartChar: rcaron
Encoding: 345 345 276
Width: 311
GlyphClass: 2
Flags: W
LayerCount: 2
Fore
SplineSet
68 0 m 1,0,-1
 185 500 l 1,1,-1
 244 500 l 1,2,-1
 226 425 l 1,3,4
 322 491 322 491 413 510 c 1,5,-1
 398 449 l 1,6,7
 340 435 340 435 246 386 c 2,8,-1
 215 370 l 1,9,-1
 129 0 l 1,10,-1
 68 0 l 1,0,-1
311 590 m 1,11,-1
 279 590 l 1,12,-1
 194 735 l 1,13,-1
 249 735 l 1,14,-1
 306 640 l 1,15,-1
 405 735 l 1,16,-1
 467 735 l 1,17,-1
 311 590 l 1,11,-1
EndSplineSet
EndChar

StartChar: Sacute
Encoding: 346 346 277
Width: 500
GlyphClass: 2
Flags: W
LayerCount: 2
Fore
SplineSet
580 632 m 1,0,1
 476 650 476 650 399.5 650 c 128,-1,2
 323 650 323 650 275.5 609 c 128,-1,3
 228 568 228 568 228 490 c 0,4,5
 228 447 228 447 255 428 c 128,-1,6
 282 409 282 409 360.5 383 c 128,-1,7
 439 357 439 357 470.5 326 c 128,-1,8
 502 295 502 295 502 230 c 0,9,10
 502 119 502 119 435.5 54.5 c 128,-1,11
 369 -10 369 -10 256 -10 c 0,12,13
 180 -10 180 -10 86 8 c 1,14,-1
 57 13 l 1,15,-1
 68 63 l 1,16,17
 185 45 185 45 265 45 c 128,-1,18
 345 45 345 45 392 93 c 128,-1,19
 439 141 439 141 439 226 c 0,20,21
 439 271 439 271 416 290.5 c 128,-1,22
 393 310 393 310 315.5 335 c 128,-1,23
 238 360 238 360 201.5 391 c 128,-1,24
 165 422 165 422 165 486 c 0,25,26
 165 590 165 590 232 647.5 c 128,-1,27
 299 705 299 705 411 705 c 0,28,29
 489 705 489 705 566 686 c 1,30,-1
 591 679 l 1,31,-1
 580 632 l 1,0,1
354 790 m 1,32,-1
 346 835 l 1,33,-1
 565 930 l 1,34,-1
 574 878 l 1,35,-1
 354 790 l 1,32,-1
EndSplineSet
Position2: "'cpsp' Capital Spacing in Latin lookup 0 subtable" dx=5 dy=0 dh=10 dv=0
EndChar

StartChar: sacute
Encoding: 347 347 278
Width: 428
GlyphClass: 2
Flags: W
LayerCount: 2
Fore
SplineSet
470 443 m 1,0,1
 377 457 377 457 317 457 c 128,-1,2
 257 457 257 457 222 425 c 128,-1,3
 187 393 187 393 187 348 c 0,4,5
 187 321 187 321 206.5 308 c 128,-1,6
 226 295 226 295 293.5 279 c 128,-1,7
 361 263 361 263 391.5 242 c 128,-1,8
 422 221 422 221 422 170 c 0,9,10
 422 83 422 83 361.5 36.5 c 128,-1,11
 301 -10 301 -10 207 -10 c 0,12,13
 138 -10 138 -10 74 6 c 1,14,-1
 52 11 l 1,15,-1
 63 59 l 1,16,17
 155 43 155 43 217 43 c 128,-1,18
 279 43 279 43 320 72 c 128,-1,19
 361 101 361 101 361 158 c 0,20,21
 361 190 361 190 340 202.5 c 128,-1,22
 319 215 319 215 253 230.5 c 128,-1,23
 187 246 187 246 157 267.5 c 128,-1,24
 127 289 127 289 127 335 c 0,25,26
 127 411 127 411 181.5 460 c 128,-1,27
 236 509 236 509 321 509 c 0,28,29
 387 509 387 509 459 496 c 1,30,-1
 483 491 l 1,31,-1
 470 443 l 1,0,1
282 601 m 1,32,-1
 276 647 l 1,33,-1
 494 741 l 1,34,-1
 501 688 l 1,35,-1
 282 601 l 1,32,-1
EndSplineSet
EndChar

StartChar: Scircumflex
Encoding: 348 348 279
Width: 500
GlyphClass: 2
Flags: W
LayerCount: 2
Fore
SplineSet
580 632 m 1,0,1
 476 650 476 650 399.5 650 c 128,-1,2
 323 650 323 650 275.5 609 c 128,-1,3
 228 568 228 568 228 490 c 0,4,5
 228 447 228 447 255 428 c 128,-1,6
 282 409 282 409 360.5 383 c 128,-1,7
 439 357 439 357 470.5 326 c 128,-1,8
 502 295 502 295 502 230 c 0,9,10
 502 119 502 119 435.5 54.5 c 128,-1,11
 369 -10 369 -10 256 -10 c 0,12,13
 180 -10 180 -10 86 8 c 1,14,-1
 57 13 l 1,15,-1
 68 63 l 1,16,17
 185 45 185 45 265 45 c 128,-1,18
 345 45 345 45 392 93 c 128,-1,19
 439 141 439 141 439 226 c 0,20,21
 439 271 439 271 416 290.5 c 128,-1,22
 393 310 393 310 315.5 335 c 128,-1,23
 238 360 238 360 201.5 391 c 128,-1,24
 165 422 165 422 165 486 c 0,25,26
 165 590 165 590 232 647.5 c 128,-1,27
 299 705 299 705 411 705 c 0,28,29
 489 705 489 705 566 686 c 1,30,-1
 591 679 l 1,31,-1
 580 632 l 1,0,1
288 797 m 1,32,-1
 449 931 l 1,33,-1
 479 931 l 1,34,-1
 576 797 l 1,35,-1
 520 797 l 1,36,-1
 459 883 l 1,37,-1
 354 797 l 1,38,-1
 288 797 l 1,32,-1
EndSplineSet
Position2: "'cpsp' Capital Spacing in Latin lookup 0 subtable" dx=5 dy=0 dh=10 dv=0
EndChar

StartChar: scircumflex
Encoding: 349 349 280
Width: 428
GlyphClass: 2
Flags: W
LayerCount: 2
Fore
SplineSet
470 443 m 1,0,1
 377 457 377 457 317 457 c 128,-1,2
 257 457 257 457 222 425 c 128,-1,3
 187 393 187 393 187 348 c 0,4,5
 187 321 187 321 206.5 308 c 128,-1,6
 226 295 226 295 293.5 279 c 128,-1,7
 361 263 361 263 391.5 242 c 128,-1,8
 422 221 422 221 422 170 c 0,9,10
 422 83 422 83 361.5 36.5 c 128,-1,11
 301 -10 301 -10 207 -10 c 0,12,13
 138 -10 138 -10 74 6 c 1,14,-1
 52 11 l 1,15,-1
 63 59 l 1,16,17
 155 43 155 43 217 43 c 128,-1,18
 279 43 279 43 320 72 c 128,-1,19
 361 101 361 101 361 158 c 0,20,21
 361 190 361 190 340 202.5 c 128,-1,22
 319 215 319 215 253 230.5 c 128,-1,23
 187 246 187 246 157 267.5 c 128,-1,24
 127 289 127 289 127 335 c 0,25,26
 127 411 127 411 181.5 460 c 128,-1,27
 236 509 236 509 321 509 c 0,28,29
 387 509 387 509 459 496 c 1,30,-1
 483 491 l 1,31,-1
 470 443 l 1,0,1
221 590 m 1,32,-1
 372 735 l 1,33,-1
 403 735 l 1,34,-1
 490 590 l 1,35,-1
 434 590 l 1,36,-1
 380 682 l 1,37,-1
 283 590 l 1,38,-1
 221 590 l 1,32,-1
EndSplineSet
EndChar

